<?xml version="1.0" encoding="us-ascii" standalone="no"?><svg xmlns="http://www.w3.org/2000/svg" xmlns:xlink="http://www.w3.org/1999/xlink" contentStyleType="text/css" height="868px" preserveAspectRatio="none" style="width:1526px;height:868px;background:#FFFFFF;" version="1.1" viewBox="0 0 1526 868" width="1526px" zoomAndPan="magnify"><defs/><g><text fill="#000000" font-family="sans-serif" font-size="14" font-weight="bold" lengthAdjust="spacing" textLength="116" x="698" y="22.9951">Class Diagram</text><!--cluster CONTROLLER--><g id="cluster_CONTROLLER"><path d="M9.5,43.2969 L113.5,43.2969 A5.25,5.25 0 0 1 117,46.7969 L124,65.5938 L1515.5,65.5938 A3.5,3.5 0 0 1 1519,69.0938 L1519,857.7969 A3.5,3.5 0 0 1 1515.5,861.2969 L9.5,861.2969 A3.5,3.5 0 0 1 6,857.7969 L6,46.7969 A3.5,3.5 0 0 1 9.5,43.2969 " fill="none" style="stroke:#696969;stroke-width:1.0;"/><line style="stroke:#696969;stroke-width:1.0;" x1="6" x2="124" y1="65.5938" y2="65.5938"/><text fill="#000000" font-family="sans-serif" font-size="14" font-weight="bold" lengthAdjust="spacing" textLength="105" x="10" y="58.292">CONTROLLER</text></g><!--cluster MODEL--><g id="cluster_MODEL"><path d="M33.5,86.2969 L87.5,86.2969 A5.25,5.25 0 0 1 91,89.7969 L98,108.5938 L1491.5,108.5938 A3.5,3.5 0 0 1 1495,112.0938 L1495,833.7969 A3.5,3.5 0 0 1 1491.5,837.2969 L33.5,837.2969 A3.5,3.5 0 0 1 30,833.7969 L30,89.7969 A3.5,3.5 0 0 1 33.5,86.2969 " fill="none" style="stroke:#696969;stroke-width:1.0;"/><line style="stroke:#696969;stroke-width:1.0;" x1="30" x2="98" y1="108.5938" y2="108.5938"/><text fill="#000000" font-family="sans-serif" font-size="14" font-weight="bold" lengthAdjust="spacing" textLength="55" x="34" y="101.292">MODEL</text></g><!--cluster Bos--><g id="cluster_Bos"><path d="M57.5,129.2969 L86.5,129.2969 A5.25,5.25 0 0 1 90,132.7969 L97,151.5938 L1467.5,151.5938 A3.5,3.5 0 0 1 1471,155.0938 L1471,809.7969 A3.5,3.5 0 0 1 1467.5,813.2969 L57.5,813.2969 A3.5,3.5 0 0 1 54,809.7969 L54,132.7969 A3.5,3.5 0 0 1 57.5,129.2969 " fill="none" style="stroke:#696969;stroke-width:1.0;"/><line style="stroke:#696969;stroke-width:1.0;" x1="54" x2="97" y1="151.5938" y2="151.5938"/><text fill="#000000" font-family="sans-serif" font-size="14" font-weight="bold" lengthAdjust="spacing" textLength="30" x="58" y="144.292">Bos</text></g><!--class MysqlDatabaseBo--><g id="elem_MysqlDatabaseBo"><rect codeLine="13" fill="#F1F1F1" height="64.2969" id="MysqlDatabaseBo" rx="3.5" ry="3.5" style="stroke:#181818;stroke-width:0.5;" width="194" x="70" y="254.2969"/><ellipse cx="100.75" cy="270.2969" fill="#ADD1B2" rx="11" ry="11" style="stroke:#181818;stroke-width:1.0;"/><path d="M103.0938,265.9688 C102.1563,265.5313 101.5625,265.3906 100.6875,265.3906 C98.0625,265.3906 96.0625,267.4688 96.0625,270.1875 L96.0625,271.3125 C96.0625,273.8906 98.1719,275.7813 101.0625,275.7813 C102.2813,275.7813 103.4375,275.4844 104.1875,274.9375 C104.7656,274.5313 105.0938,274.0781 105.0938,273.6875 C105.0938,273.2344 104.7031,272.8438 104.2344,272.8438 C104.0156,272.8438 103.8125,272.9219 103.625,273.1094 C103.1719,273.5938 103.1719,273.5938 102.9844,273.6875 C102.5625,273.9531 101.875,274.0781 101.1094,274.0781 C99.0625,274.0781 97.7656,272.9844 97.7656,271.2813 L97.7656,270.1875 C97.7656,268.4063 99.0156,267.0938 100.75,267.0938 C101.3281,267.0938 101.9375,267.25 102.4063,267.5 C102.8906,267.7813 103.0625,268 103.1563,268.4063 C103.2188,268.8125 103.25,268.9375 103.3906,269.0625 C103.5313,269.2031 103.7656,269.3125 103.9844,269.3125 C104.25,269.3125 104.5156,269.1719 104.6875,268.9531 C104.7969,268.7969 104.8281,268.6094 104.8281,268.1875 L104.8281,266.7656 C104.8281,266.3281 104.8125,266.2031 104.7188,266.0469 C104.5625,265.7813 104.2813,265.6406 103.9844,265.6406 C103.6875,265.6406 103.4844,265.7344 103.2656,266.0469 L103.0938,265.9688 Z " fill="#000000"/><text fill="#000000" font-family="sans-serif" font-size="14" lengthAdjust="spacing" textLength="127" x="118.25" y="275.1436">MysqlDatabaseBo</text><line style="stroke:#181818;stroke-width:0.5;" x1="71" x2="263" y1="286.2969" y2="286.2969"/><line style="stroke:#181818;stroke-width:0.5;" x1="71" x2="263" y1="294.2969" y2="294.2969"/><text fill="#000000" font-family="sans-serif" font-size="14" lengthAdjust="spacing" textLength="182" x="76" y="311.292">function getConnection()</text></g><!--class SecurityBo--><g id="elem_SecurityBo"><rect codeLine="16" fill="#F1F1F1" height="96.8906" id="SecurityBo" rx="3.5" ry="3.5" style="stroke:#181818;stroke-width:0.5;" width="281" x="299.5" y="237.7969"/><ellipse cx="396.75" cy="253.7969" fill="#ADD1B2" rx="11" ry="11" style="stroke:#181818;stroke-width:1.0;"/><path d="M399.0938,249.4688 C398.1563,249.0313 397.5625,248.8906 396.6875,248.8906 C394.0625,248.8906 392.0625,250.9688 392.0625,253.6875 L392.0625,254.8125 C392.0625,257.3906 394.1719,259.2813 397.0625,259.2813 C398.2813,259.2813 399.4375,258.9844 400.1875,258.4375 C400.7656,258.0313 401.0938,257.5781 401.0938,257.1875 C401.0938,256.7344 400.7031,256.3438 400.2344,256.3438 C400.0156,256.3438 399.8125,256.4219 399.625,256.6094 C399.1719,257.0938 399.1719,257.0938 398.9844,257.1875 C398.5625,257.4531 397.875,257.5781 397.1094,257.5781 C395.0625,257.5781 393.7656,256.4844 393.7656,254.7813 L393.7656,253.6875 C393.7656,251.9063 395.0156,250.5938 396.75,250.5938 C397.3281,250.5938 397.9375,250.75 398.4063,251 C398.8906,251.2813 399.0625,251.5 399.1563,251.9063 C399.2188,252.3125 399.25,252.4375 399.3906,252.5625 C399.5313,252.7031 399.7656,252.8125 399.9844,252.8125 C400.25,252.8125 400.5156,252.6719 400.6875,252.4531 C400.7969,252.2969 400.8281,252.1094 400.8281,251.6875 L400.8281,250.2656 C400.8281,249.8281 400.8125,249.7031 400.7188,249.5469 C400.5625,249.2813 400.2813,249.1406 399.9844,249.1406 C399.6875,249.1406 399.4844,249.2344 399.2656,249.5469 L399.0938,249.4688 Z " fill="#000000"/><text fill="#000000" font-family="sans-serif" font-size="14" lengthAdjust="spacing" textLength="78" x="417.25" y="258.6436">SecurityBo</text><line style="stroke:#181818;stroke-width:0.5;" x1="300.5" x2="579.5" y1="269.7969" y2="269.7969"/><text fill="#000000" font-family="sans-serif" font-size="14" lengthAdjust="spacing" textLength="117" x="305.5" y="286.792">protected $dao;</text><line style="stroke:#181818;stroke-width:0.5;" x1="300.5" x2="579.5" y1="294.0938" y2="294.0938"/><text fill="#000000" font-family="sans-serif" font-size="14" lengthAdjust="spacing" textLength="205" x="305.5" y="311.0889">public function __construct()</text><text fill="#000000" font-family="sans-serif" font-size="14" lengthAdjust="spacing" textLength="269" x="305.5" y="327.3857">public function doUserAuthorization()</text></g><!--class TavernBo--><g id="elem_TavernBo"><rect codeLine="21" fill="#F1F1F1" height="113.1875" id="TavernBo" rx="3.5" ry="3.5" style="stroke:#181818;stroke-width:0.5;" width="368" x="616" y="229.7969"/><ellipse cx="761.75" cy="245.7969" fill="#ADD1B2" rx="11" ry="11" style="stroke:#181818;stroke-width:1.0;"/><path d="M764.0938,241.4688 C763.1563,241.0313 762.5625,240.8906 761.6875,240.8906 C759.0625,240.8906 757.0625,242.9688 757.0625,245.6875 L757.0625,246.8125 C757.0625,249.3906 759.1719,251.2813 762.0625,251.2813 C763.2813,251.2813 764.4375,250.9844 765.1875,250.4375 C765.7656,250.0313 766.0938,249.5781 766.0938,249.1875 C766.0938,248.7344 765.7031,248.3438 765.2344,248.3438 C765.0156,248.3438 764.8125,248.4219 764.625,248.6094 C764.1719,249.0938 764.1719,249.0938 763.9844,249.1875 C763.5625,249.4531 762.875,249.5781 762.1094,249.5781 C760.0625,249.5781 758.7656,248.4844 758.7656,246.7813 L758.7656,245.6875 C758.7656,243.9063 760.0156,242.5938 761.75,242.5938 C762.3281,242.5938 762.9375,242.75 763.4063,243 C763.8906,243.2813 764.0625,243.5 764.1563,243.9063 C764.2188,244.3125 764.25,244.4375 764.3906,244.5625 C764.5313,244.7031 764.7656,244.8125 764.9844,244.8125 C765.25,244.8125 765.5156,244.6719 765.6875,244.4531 C765.7969,244.2969 765.8281,244.1094 765.8281,243.6875 L765.8281,242.2656 C765.8281,241.8281 765.8125,241.7031 765.7188,241.5469 C765.5625,241.2813 765.2813,241.1406 764.9844,241.1406 C764.6875,241.1406 764.4844,241.2344 764.2656,241.5469 L764.0938,241.4688 Z " fill="#000000"/><text fill="#000000" font-family="sans-serif" font-size="14" lengthAdjust="spacing" textLength="68" x="782.25" y="250.6436">TavernBo</text><line style="stroke:#181818;stroke-width:0.5;" x1="617" x2="983" y1="261.7969" y2="261.7969"/><text fill="#000000" font-family="sans-serif" font-size="14" lengthAdjust="spacing" textLength="117" x="622" y="278.792">protected $dao;</text><line style="stroke:#181818;stroke-width:0.5;" x1="617" x2="983" y1="286.0938" y2="286.0938"/><text fill="#000000" font-family="sans-serif" font-size="14" lengthAdjust="spacing" textLength="205" x="622" y="303.0889">public function __construct()</text><text fill="#000000" font-family="sans-serif" font-size="14" lengthAdjust="spacing" textLength="356" x="622" y="319.3857">public function isRegistrationValid(TavernDo $do)</text><text fill="#000000" font-family="sans-serif" font-size="14" lengthAdjust="spacing" textLength="268" x="622" y="335.6826">public function create(TavernDo $do)</text></g><!--class UserBo--><g id="elem_UserBo"><rect codeLine="27" fill="#F1F1F1" height="243.5625" id="UserBo" rx="3.5" ry="3.5" style="stroke:#181818;stroke-width:0.5;" width="436" x="1019" y="164.2969"/><ellipse cx="1207.75" cy="180.2969" fill="#ADD1B2" rx="11" ry="11" style="stroke:#181818;stroke-width:1.0;"/><path d="M1210.0938,175.9688 C1209.1563,175.5313 1208.5625,175.3906 1207.6875,175.3906 C1205.0625,175.3906 1203.0625,177.4688 1203.0625,180.1875 L1203.0625,181.3125 C1203.0625,183.8906 1205.1719,185.7813 1208.0625,185.7813 C1209.2813,185.7813 1210.4375,185.4844 1211.1875,184.9375 C1211.7656,184.5313 1212.0938,184.0781 1212.0938,183.6875 C1212.0938,183.2344 1211.7031,182.8438 1211.2344,182.8438 C1211.0156,182.8438 1210.8125,182.9219 1210.625,183.1094 C1210.1719,183.5938 1210.1719,183.5938 1209.9844,183.6875 C1209.5625,183.9531 1208.875,184.0781 1208.1094,184.0781 C1206.0625,184.0781 1204.7656,182.9844 1204.7656,181.2813 L1204.7656,180.1875 C1204.7656,178.4063 1206.0156,177.0938 1207.75,177.0938 C1208.3281,177.0938 1208.9375,177.25 1209.4063,177.5 C1209.8906,177.7813 1210.0625,178 1210.1563,178.4063 C1210.2188,178.8125 1210.25,178.9375 1210.3906,179.0625 C1210.5313,179.2031 1210.7656,179.3125 1210.9844,179.3125 C1211.25,179.3125 1211.5156,179.1719 1211.6875,178.9531 C1211.7969,178.7969 1211.8281,178.6094 1211.8281,178.1875 L1211.8281,176.7656 C1211.8281,176.3281 1211.8125,176.2031 1211.7188,176.0469 C1211.5625,175.7813 1211.2813,175.6406 1210.9844,175.6406 C1210.6875,175.6406 1210.4844,175.7344 1210.2656,176.0469 L1210.0938,175.9688 Z " fill="#000000"/><text fill="#000000" font-family="sans-serif" font-size="14" lengthAdjust="spacing" textLength="50" x="1228.25" y="185.1436">UserBo</text><line style="stroke:#181818;stroke-width:0.5;" x1="1020" x2="1454" y1="196.2969" y2="196.2969"/><text fill="#000000" font-family="sans-serif" font-size="14" lengthAdjust="spacing" textLength="117" x="1025" y="213.292">protected $dao;</text><line style="stroke:#181818;stroke-width:0.5;" x1="1020" x2="1454" y1="220.5938" y2="220.5938"/><text fill="#000000" font-family="sans-serif" font-size="14" lengthAdjust="spacing" textLength="205" x="1025" y="237.5889">public function __construct()</text><text fill="#000000" font-family="sans-serif" font-size="14" lengthAdjust="spacing" textLength="365" x="1025" y="253.8857">public function getHashFromPassword(UserDo $do)</text><text fill="#000000" font-family="sans-serif" font-size="14" lengthAdjust="spacing" textLength="185" x="1025" y="270.1826">public function getUsers()</text><text fill="#000000" font-family="sans-serif" font-size="14" lengthAdjust="spacing" textLength="338" x="1025" y="286.4795">public function isRegistrationValid(UserDo $do)</text><text fill="#000000" font-family="sans-serif" font-size="14" lengthAdjust="spacing" textLength="250" x="1025" y="302.7764">public function create(UserDo $do)</text><text fill="#000000" font-family="sans-serif" font-size="14" lengthAdjust="spacing" textLength="298" x="1025" y="319.0732">public function isUserEmailUnique($email)</text><text fill="#000000" font-family="sans-serif" font-size="14" lengthAdjust="spacing" textLength="368" x="1025" y="335.3701">public function isUserNicknameUnique($nick_name)</text><text fill="#000000" font-family="sans-serif" font-size="14" lengthAdjust="spacing" textLength="305" x="1025" y="351.667">public function doLogin(UserDo $input_do)</text><text fill="#000000" font-family="sans-serif" font-size="14" lengthAdjust="spacing" textLength="199" x="1025" y="367.9639">public function getById($id)</text><text fill="#000000" font-family="sans-serif" font-size="14" lengthAdjust="spacing" textLength="424" x="1025" y="384.2607">public function getUserForgotPassword(array $parameters)</text><text fill="#000000" font-family="sans-serif" font-size="14" lengthAdjust="spacing" textLength="365" x="1025" y="400.5576">public function getUserListForTavernRegistration()</text></g><!--class AchievementBo--><g id="elem_AchievementBo"><rect codeLine="41" fill="#F1F1F1" height="113.1875" id="AchievementBo" rx="3.5" ry="3.5" style="stroke:#181818;stroke-width:0.5;" width="471" x="70.5" y="468.2969"/><ellipse cx="244.25" cy="484.2969" fill="#ADD1B2" rx="11" ry="11" style="stroke:#181818;stroke-width:1.0;"/><path d="M246.5938,479.9688 C245.6563,479.5313 245.0625,479.3906 244.1875,479.3906 C241.5625,479.3906 239.5625,481.4688 239.5625,484.1875 L239.5625,485.3125 C239.5625,487.8906 241.6719,489.7813 244.5625,489.7813 C245.7813,489.7813 246.9375,489.4844 247.6875,488.9375 C248.2656,488.5313 248.5938,488.0781 248.5938,487.6875 C248.5938,487.2344 248.2031,486.8438 247.7344,486.8438 C247.5156,486.8438 247.3125,486.9219 247.125,487.1094 C246.6719,487.5938 246.6719,487.5938 246.4844,487.6875 C246.0625,487.9531 245.375,488.0781 244.6094,488.0781 C242.5625,488.0781 241.2656,486.9844 241.2656,485.2813 L241.2656,484.1875 C241.2656,482.4063 242.5156,481.0938 244.25,481.0938 C244.8281,481.0938 245.4375,481.25 245.9063,481.5 C246.3906,481.7813 246.5625,482 246.6563,482.4063 C246.7188,482.8125 246.75,482.9375 246.8906,483.0625 C247.0313,483.2031 247.2656,483.3125 247.4844,483.3125 C247.75,483.3125 248.0156,483.1719 248.1875,482.9531 C248.2969,482.7969 248.3281,482.6094 248.3281,482.1875 L248.3281,480.7656 C248.3281,480.3281 248.3125,480.2031 248.2188,480.0469 C248.0625,479.7813 247.7813,479.6406 247.4844,479.6406 C247.1875,479.6406 246.9844,479.7344 246.7656,480.0469 L246.5938,479.9688 Z " fill="#000000"/><text fill="#000000" font-family="sans-serif" font-size="14" lengthAdjust="spacing" textLength="115" x="264.75" y="489.1436">AchievementBo</text><line style="stroke:#181818;stroke-width:0.5;" x1="71.5" x2="540.5" y1="500.2969" y2="500.2969"/><text fill="#000000" font-family="sans-serif" font-size="14" lengthAdjust="spacing" textLength="117" x="76.5" y="517.292">protected $dao;</text><line style="stroke:#181818;stroke-width:0.5;" x1="71.5" x2="540.5" y1="524.5938" y2="524.5938"/><text fill="#000000" font-family="sans-serif" font-size="14" lengthAdjust="spacing" textLength="205" x="76.5" y="541.5889">public function __construct()</text><text fill="#000000" font-family="sans-serif" font-size="14" lengthAdjust="spacing" textLength="459" x="76.5" y="557.8857">public function isAchievementCreateValid(AchievementDo $do)</text><text fill="#000000" font-family="sans-serif" font-size="14" lengthAdjust="spacing" textLength="315" x="76.5" y="574.1826">public function create(AchievementDo $do)</text></g><!--class OrderBo--><g id="elem_OrderBo"><rect codeLine="47" fill="#F1F1F1" height="48" id="OrderBo" rx="3.5" ry="3.5" style="stroke:#181818;stroke-width:0.5;" width="92" x="577" y="500.7969"/><ellipse cx="592" cy="516.7969" fill="#ADD1B2" rx="11" ry="11" style="stroke:#181818;stroke-width:1.0;"/><path d="M594.3438,512.4688 C593.4063,512.0313 592.8125,511.8906 591.9375,511.8906 C589.3125,511.8906 587.3125,513.9688 587.3125,516.6875 L587.3125,517.8125 C587.3125,520.3906 589.4219,522.2813 592.3125,522.2813 C593.5313,522.2813 594.6875,521.9844 595.4375,521.4375 C596.0156,521.0313 596.3438,520.5781 596.3438,520.1875 C596.3438,519.7344 595.9531,519.3438 595.4844,519.3438 C595.2656,519.3438 595.0625,519.4219 594.875,519.6094 C594.4219,520.0938 594.4219,520.0938 594.2344,520.1875 C593.8125,520.4531 593.125,520.5781 592.3594,520.5781 C590.3125,520.5781 589.0156,519.4844 589.0156,517.7813 L589.0156,516.6875 C589.0156,514.9063 590.2656,513.5938 592,513.5938 C592.5781,513.5938 593.1875,513.75 593.6563,514 C594.1406,514.2813 594.3125,514.5 594.4063,514.9063 C594.4688,515.3125 594.5,515.4375 594.6406,515.5625 C594.7813,515.7031 595.0156,515.8125 595.2344,515.8125 C595.5,515.8125 595.7656,515.6719 595.9375,515.4531 C596.0469,515.2969 596.0781,515.1094 596.0781,514.6875 L596.0781,513.2656 C596.0781,512.8281 596.0625,512.7031 595.9688,512.5469 C595.8125,512.2813 595.5313,512.1406 595.2344,512.1406 C594.9375,512.1406 594.7344,512.2344 594.5156,512.5469 L594.3438,512.4688 Z " fill="#000000"/><text fill="#000000" font-family="sans-serif" font-size="14" lengthAdjust="spacing" textLength="60" x="606" y="521.6436">OrderBo</text><line style="stroke:#181818;stroke-width:0.5;" x1="578" x2="668" y1="532.7969" y2="532.7969"/><line style="stroke:#181818;stroke-width:0.5;" x1="578" x2="668" y1="540.7969" y2="540.7969"/></g><!--class RaidBo--><g id="elem_RaidBo"><rect codeLine="48" fill="#F1F1F1" height="48" id="RaidBo" rx="3.5" ry="3.5" style="stroke:#181818;stroke-width:0.5;" width="82" x="704" y="500.7969"/><ellipse cx="719" cy="516.7969" fill="#ADD1B2" rx="11" ry="11" style="stroke:#181818;stroke-width:1.0;"/><path d="M721.3438,512.4688 C720.4063,512.0313 719.8125,511.8906 718.9375,511.8906 C716.3125,511.8906 714.3125,513.9688 714.3125,516.6875 L714.3125,517.8125 C714.3125,520.3906 716.4219,522.2813 719.3125,522.2813 C720.5313,522.2813 721.6875,521.9844 722.4375,521.4375 C723.0156,521.0313 723.3438,520.5781 723.3438,520.1875 C723.3438,519.7344 722.9531,519.3438 722.4844,519.3438 C722.2656,519.3438 722.0625,519.4219 721.875,519.6094 C721.4219,520.0938 721.4219,520.0938 721.2344,520.1875 C720.8125,520.4531 720.125,520.5781 719.3594,520.5781 C717.3125,520.5781 716.0156,519.4844 716.0156,517.7813 L716.0156,516.6875 C716.0156,514.9063 717.2656,513.5938 719,513.5938 C719.5781,513.5938 720.1875,513.75 720.6563,514 C721.1406,514.2813 721.3125,514.5 721.4063,514.9063 C721.4688,515.3125 721.5,515.4375 721.6406,515.5625 C721.7813,515.7031 722.0156,515.8125 722.2344,515.8125 C722.5,515.8125 722.7656,515.6719 722.9375,515.4531 C723.0469,515.2969 723.0781,515.1094 723.0781,514.6875 L723.0781,513.2656 C723.0781,512.8281 723.0625,512.7031 722.9688,512.5469 C722.8125,512.2813 722.5313,512.1406 722.2344,512.1406 C721.9375,512.1406 721.7344,512.2344 721.5156,512.5469 L721.3438,512.4688 Z " fill="#000000"/><text fill="#000000" font-family="sans-serif" font-size="14" lengthAdjust="spacing" textLength="50" x="733" y="521.6436">RaidBo</text><line style="stroke:#181818;stroke-width:0.5;" x1="705" x2="785" y1="532.7969" y2="532.7969"/><line style="stroke:#181818;stroke-width:0.5;" x1="705" x2="785" y1="540.7969" y2="540.7969"/></g><!--class RaidRewardBo--><g id="elem_RaidRewardBo"><rect codeLine="49" fill="#F1F1F1" height="48" id="RaidRewardBo" rx="3.5" ry="3.5" style="stroke:#181818;stroke-width:0.5;" width="135" x="821.5" y="500.7969"/><ellipse cx="836.5" cy="516.7969" fill="#ADD1B2" rx="11" ry="11" style="stroke:#181818;stroke-width:1.0;"/><path d="M838.8438,512.4688 C837.9063,512.0313 837.3125,511.8906 836.4375,511.8906 C833.8125,511.8906 831.8125,513.9688 831.8125,516.6875 L831.8125,517.8125 C831.8125,520.3906 833.9219,522.2813 836.8125,522.2813 C838.0313,522.2813 839.1875,521.9844 839.9375,521.4375 C840.5156,521.0313 840.8438,520.5781 840.8438,520.1875 C840.8438,519.7344 840.4531,519.3438 839.9844,519.3438 C839.7656,519.3438 839.5625,519.4219 839.375,519.6094 C838.9219,520.0938 838.9219,520.0938 838.7344,520.1875 C838.3125,520.4531 837.625,520.5781 836.8594,520.5781 C834.8125,520.5781 833.5156,519.4844 833.5156,517.7813 L833.5156,516.6875 C833.5156,514.9063 834.7656,513.5938 836.5,513.5938 C837.0781,513.5938 837.6875,513.75 838.1563,514 C838.6406,514.2813 838.8125,514.5 838.9063,514.9063 C838.9688,515.3125 839,515.4375 839.1406,515.5625 C839.2813,515.7031 839.5156,515.8125 839.7344,515.8125 C840,515.8125 840.2656,515.6719 840.4375,515.4531 C840.5469,515.2969 840.5781,515.1094 840.5781,514.6875 L840.5781,513.2656 C840.5781,512.8281 840.5625,512.7031 840.4688,512.5469 C840.3125,512.2813 840.0313,512.1406 839.7344,512.1406 C839.4375,512.1406 839.2344,512.2344 839.0156,512.5469 L838.8438,512.4688 Z " fill="#000000"/><text fill="#000000" font-family="sans-serif" font-size="14" lengthAdjust="spacing" textLength="103" x="850.5" y="521.6436">RaidRewardBo</text><line style="stroke:#181818;stroke-width:0.5;" x1="822.5" x2="955.5" y1="532.7969" y2="532.7969"/><line style="stroke:#181818;stroke-width:0.5;" x1="822.5" x2="955.5" y1="540.7969" y2="540.7969"/></g><!--class RaidUserBo--><g id="elem_RaidUserBo"><rect codeLine="50" fill="#F1F1F1" height="48" id="RaidUserBo" rx="3.5" ry="3.5" style="stroke:#181818;stroke-width:0.5;" width="113" x="249.5" y="641.2969"/><ellipse cx="264.5" cy="657.2969" fill="#ADD1B2" rx="11" ry="11" style="stroke:#181818;stroke-width:1.0;"/><path d="M266.8438,652.9688 C265.9063,652.5313 265.3125,652.3906 264.4375,652.3906 C261.8125,652.3906 259.8125,654.4688 259.8125,657.1875 L259.8125,658.3125 C259.8125,660.8906 261.9219,662.7813 264.8125,662.7813 C266.0313,662.7813 267.1875,662.4844 267.9375,661.9375 C268.5156,661.5313 268.8438,661.0781 268.8438,660.6875 C268.8438,660.2344 268.4531,659.8438 267.9844,659.8438 C267.7656,659.8438 267.5625,659.9219 267.375,660.1094 C266.9219,660.5938 266.9219,660.5938 266.7344,660.6875 C266.3125,660.9531 265.625,661.0781 264.8594,661.0781 C262.8125,661.0781 261.5156,659.9844 261.5156,658.2813 L261.5156,657.1875 C261.5156,655.4063 262.7656,654.0938 264.5,654.0938 C265.0781,654.0938 265.6875,654.25 266.1563,654.5 C266.6406,654.7813 266.8125,655 266.9063,655.4063 C266.9688,655.8125 267,655.9375 267.1406,656.0625 C267.2813,656.2031 267.5156,656.3125 267.7344,656.3125 C268,656.3125 268.2656,656.1719 268.4375,655.9531 C268.5469,655.7969 268.5781,655.6094 268.5781,655.1875 L268.5781,653.7656 C268.5781,653.3281 268.5625,653.2031 268.4688,653.0469 C268.3125,652.7813 268.0313,652.6406 267.7344,652.6406 C267.4375,652.6406 267.2344,652.7344 267.0156,653.0469 L266.8438,652.9688 Z " fill="#000000"/><text fill="#000000" font-family="sans-serif" font-size="14" lengthAdjust="spacing" textLength="81" x="278.5" y="662.1436">RaidUserBo</text><line style="stroke:#181818;stroke-width:0.5;" x1="250.5" x2="361.5" y1="673.2969" y2="673.2969"/><line style="stroke:#181818;stroke-width:0.5;" x1="250.5" x2="361.5" y1="681.2969" y2="681.2969"/></g><!--class TavernItemBo--><g id="elem_TavernItemBo"><rect codeLine="51" fill="#F1F1F1" height="48" id="TavernItemBo" rx="3.5" ry="3.5" style="stroke:#181818;stroke-width:0.5;" width="134" x="398" y="641.2969"/><ellipse cx="413" cy="657.2969" fill="#ADD1B2" rx="11" ry="11" style="stroke:#181818;stroke-width:1.0;"/><path d="M415.3438,652.9688 C414.4063,652.5313 413.8125,652.3906 412.9375,652.3906 C410.3125,652.3906 408.3125,654.4688 408.3125,657.1875 L408.3125,658.3125 C408.3125,660.8906 410.4219,662.7813 413.3125,662.7813 C414.5313,662.7813 415.6875,662.4844 416.4375,661.9375 C417.0156,661.5313 417.3438,661.0781 417.3438,660.6875 C417.3438,660.2344 416.9531,659.8438 416.4844,659.8438 C416.2656,659.8438 416.0625,659.9219 415.875,660.1094 C415.4219,660.5938 415.4219,660.5938 415.2344,660.6875 C414.8125,660.9531 414.125,661.0781 413.3594,661.0781 C411.3125,661.0781 410.0156,659.9844 410.0156,658.2813 L410.0156,657.1875 C410.0156,655.4063 411.2656,654.0938 413,654.0938 C413.5781,654.0938 414.1875,654.25 414.6563,654.5 C415.1406,654.7813 415.3125,655 415.4063,655.4063 C415.4688,655.8125 415.5,655.9375 415.6406,656.0625 C415.7813,656.2031 416.0156,656.3125 416.2344,656.3125 C416.5,656.3125 416.7656,656.1719 416.9375,655.9531 C417.0469,655.7969 417.0781,655.6094 417.0781,655.1875 L417.0781,653.7656 C417.0781,653.3281 417.0625,653.2031 416.9688,653.0469 C416.8125,652.7813 416.5313,652.6406 416.2344,652.6406 C415.9375,652.6406 415.7344,652.7344 415.5156,653.0469 L415.3438,652.9688 Z " fill="#000000"/><text fill="#000000" font-family="sans-serif" font-size="14" lengthAdjust="spacing" textLength="102" x="427" y="662.1436">TavernItemBo</text><line style="stroke:#181818;stroke-width:0.5;" x1="399" x2="531" y1="673.2969" y2="673.2969"/><line style="stroke:#181818;stroke-width:0.5;" x1="399" x2="531" y1="681.2969" y2="681.2969"/></g><!--class TavernItemRewardBo--><g id="elem_TavernItemRewardBo"><rect codeLine="52" fill="#F1F1F1" height="48" id="TavernItemRewardBo" rx="3.5" ry="3.5" style="stroke:#181818;stroke-width:0.5;" width="187" x="567.5" y="641.2969"/><ellipse cx="582.5" cy="657.2969" fill="#ADD1B2" rx="11" ry="11" style="stroke:#181818;stroke-width:1.0;"/><path d="M584.8438,652.9688 C583.9063,652.5313 583.3125,652.3906 582.4375,652.3906 C579.8125,652.3906 577.8125,654.4688 577.8125,657.1875 L577.8125,658.3125 C577.8125,660.8906 579.9219,662.7813 582.8125,662.7813 C584.0313,662.7813 585.1875,662.4844 585.9375,661.9375 C586.5156,661.5313 586.8438,661.0781 586.8438,660.6875 C586.8438,660.2344 586.4531,659.8438 585.9844,659.8438 C585.7656,659.8438 585.5625,659.9219 585.375,660.1094 C584.9219,660.5938 584.9219,660.5938 584.7344,660.6875 C584.3125,660.9531 583.625,661.0781 582.8594,661.0781 C580.8125,661.0781 579.5156,659.9844 579.5156,658.2813 L579.5156,657.1875 C579.5156,655.4063 580.7656,654.0938 582.5,654.0938 C583.0781,654.0938 583.6875,654.25 584.1563,654.5 C584.6406,654.7813 584.8125,655 584.9063,655.4063 C584.9688,655.8125 585,655.9375 585.1406,656.0625 C585.2813,656.2031 585.5156,656.3125 585.7344,656.3125 C586,656.3125 586.2656,656.1719 586.4375,655.9531 C586.5469,655.7969 586.5781,655.6094 586.5781,655.1875 L586.5781,653.7656 C586.5781,653.3281 586.5625,653.2031 586.4688,653.0469 C586.3125,652.7813 586.0313,652.6406 585.7344,652.6406 C585.4375,652.6406 585.2344,652.7344 585.0156,653.0469 L584.8438,652.9688 Z " fill="#000000"/><text fill="#000000" font-family="sans-serif" font-size="14" lengthAdjust="spacing" textLength="155" x="596.5" y="662.1436">TavernItemRewardBo</text><line style="stroke:#181818;stroke-width:0.5;" x1="568.5" x2="753.5" y1="673.2969" y2="673.2969"/><line style="stroke:#181818;stroke-width:0.5;" x1="568.5" x2="753.5" y1="681.2969" y2="681.2969"/></g><!--class TavernRaidAbstractBo--><g id="elem_TavernRaidAbstractBo"><rect codeLine="53" fill="#F1F1F1" height="48" id="TavernRaidAbstractBo" rx="3.5" ry="3.5" style="stroke:#181818;stroke-width:0.5;" width="194" x="790" y="641.2969"/><ellipse cx="805" cy="657.2969" fill="#ADD1B2" rx="11" ry="11" style="stroke:#181818;stroke-width:1.0;"/><path d="M807.3438,652.9688 C806.4063,652.5313 805.8125,652.3906 804.9375,652.3906 C802.3125,652.3906 800.3125,654.4688 800.3125,657.1875 L800.3125,658.3125 C800.3125,660.8906 802.4219,662.7813 805.3125,662.7813 C806.5313,662.7813 807.6875,662.4844 808.4375,661.9375 C809.0156,661.5313 809.3438,661.0781 809.3438,660.6875 C809.3438,660.2344 808.9531,659.8438 808.4844,659.8438 C808.2656,659.8438 808.0625,659.9219 807.875,660.1094 C807.4219,660.5938 807.4219,660.5938 807.2344,660.6875 C806.8125,660.9531 806.125,661.0781 805.3594,661.0781 C803.3125,661.0781 802.0156,659.9844 802.0156,658.2813 L802.0156,657.1875 C802.0156,655.4063 803.2656,654.0938 805,654.0938 C805.5781,654.0938 806.1875,654.25 806.6563,654.5 C807.1406,654.7813 807.3125,655 807.4063,655.4063 C807.4688,655.8125 807.5,655.9375 807.6406,656.0625 C807.7813,656.2031 808.0156,656.3125 808.2344,656.3125 C808.5,656.3125 808.7656,656.1719 808.9375,655.9531 C809.0469,655.7969 809.0781,655.6094 809.0781,655.1875 L809.0781,653.7656 C809.0781,653.3281 809.0625,653.2031 808.9688,653.0469 C808.8125,652.7813 808.5313,652.6406 808.2344,652.6406 C807.9375,652.6406 807.7344,652.7344 807.5156,653.0469 L807.3438,652.9688 Z " fill="#000000"/><text fill="#000000" font-family="sans-serif" font-size="14" lengthAdjust="spacing" textLength="162" x="819" y="662.1436">TavernRaidAbstractBo</text><line style="stroke:#181818;stroke-width:0.5;" x1="791" x2="983" y1="673.2969" y2="673.2969"/><line style="stroke:#181818;stroke-width:0.5;" x1="791" x2="983" y1="681.2969" y2="681.2969"/></g><!--class UserRaidAchievementBo--><g id="elem_UserRaidAchievementBo"><rect codeLine="54" fill="#F1F1F1" height="48" id="UserRaidAchievementBo" rx="3.5" ry="3.5" style="stroke:#181818;stroke-width:0.5;" width="209" x="201.5" y="749.2969"/><ellipse cx="216.5" cy="765.2969" fill="#ADD1B2" rx="11" ry="11" style="stroke:#181818;stroke-width:1.0;"/><path d="M218.8438,760.9688 C217.9063,760.5313 217.3125,760.3906 216.4375,760.3906 C213.8125,760.3906 211.8125,762.4688 211.8125,765.1875 L211.8125,766.3125 C211.8125,768.8906 213.9219,770.7813 216.8125,770.7813 C218.0313,770.7813 219.1875,770.4844 219.9375,769.9375 C220.5156,769.5313 220.8438,769.0781 220.8438,768.6875 C220.8438,768.2344 220.4531,767.8438 219.9844,767.8438 C219.7656,767.8438 219.5625,767.9219 219.375,768.1094 C218.9219,768.5938 218.9219,768.5938 218.7344,768.6875 C218.3125,768.9531 217.625,769.0781 216.8594,769.0781 C214.8125,769.0781 213.5156,767.9844 213.5156,766.2813 L213.5156,765.1875 C213.5156,763.4063 214.7656,762.0938 216.5,762.0938 C217.0781,762.0938 217.6875,762.25 218.1563,762.5 C218.6406,762.7813 218.8125,763 218.9063,763.4063 C218.9688,763.8125 219,763.9375 219.1406,764.0625 C219.2813,764.2031 219.5156,764.3125 219.7344,764.3125 C220,764.3125 220.2656,764.1719 220.4375,763.9531 C220.5469,763.7969 220.5781,763.6094 220.5781,763.1875 L220.5781,761.7656 C220.5781,761.3281 220.5625,761.2031 220.4688,761.0469 C220.3125,760.7813 220.0313,760.6406 219.7344,760.6406 C219.4375,760.6406 219.2344,760.7344 219.0156,761.0469 L218.8438,760.9688 Z " fill="#000000"/><text fill="#000000" font-family="sans-serif" font-size="14" lengthAdjust="spacing" textLength="177" x="230.5" y="770.1436">UserRaidAchievementBo</text><line style="stroke:#181818;stroke-width:0.5;" x1="202.5" x2="409.5" y1="781.2969" y2="781.2969"/><line style="stroke:#181818;stroke-width:0.5;" x1="202.5" x2="409.5" y1="789.2969" y2="789.2969"/></g><!--class UserRaidPointsBo--><g id="elem_UserRaidPointsBo"><rect codeLine="55" fill="#F1F1F1" height="48" id="UserRaidPointsBo" rx="3.5" ry="3.5" style="stroke:#181818;stroke-width:0.5;" width="158" x="446" y="749.2969"/><ellipse cx="461" cy="765.2969" fill="#ADD1B2" rx="11" ry="11" style="stroke:#181818;stroke-width:1.0;"/><path d="M463.3438,760.9688 C462.4063,760.5313 461.8125,760.3906 460.9375,760.3906 C458.3125,760.3906 456.3125,762.4688 456.3125,765.1875 L456.3125,766.3125 C456.3125,768.8906 458.4219,770.7813 461.3125,770.7813 C462.5313,770.7813 463.6875,770.4844 464.4375,769.9375 C465.0156,769.5313 465.3438,769.0781 465.3438,768.6875 C465.3438,768.2344 464.9531,767.8438 464.4844,767.8438 C464.2656,767.8438 464.0625,767.9219 463.875,768.1094 C463.4219,768.5938 463.4219,768.5938 463.2344,768.6875 C462.8125,768.9531 462.125,769.0781 461.3594,769.0781 C459.3125,769.0781 458.0156,767.9844 458.0156,766.2813 L458.0156,765.1875 C458.0156,763.4063 459.2656,762.0938 461,762.0938 C461.5781,762.0938 462.1875,762.25 462.6563,762.5 C463.1406,762.7813 463.3125,763 463.4063,763.4063 C463.4688,763.8125 463.5,763.9375 463.6406,764.0625 C463.7813,764.2031 464.0156,764.3125 464.2344,764.3125 C464.5,764.3125 464.7656,764.1719 464.9375,763.9531 C465.0469,763.7969 465.0781,763.6094 465.0781,763.1875 L465.0781,761.7656 C465.0781,761.3281 465.0625,761.2031 464.9688,761.0469 C464.8125,760.7813 464.5313,760.6406 464.2344,760.6406 C463.9375,760.6406 463.7344,760.7344 463.5156,761.0469 L463.3438,760.9688 Z " fill="#000000"/><text fill="#000000" font-family="sans-serif" font-size="14" lengthAdjust="spacing" textLength="126" x="475" y="770.1436">UserRaidPointsBo</text><line style="stroke:#181818;stroke-width:0.5;" x1="447" x2="603" y1="781.2969" y2="781.2969"/><line style="stroke:#181818;stroke-width:0.5;" x1="447" x2="603" y1="789.2969" y2="789.2969"/></g><!--SRC=[jLHDJ-Cm4BtdLtYbIcIvy0Fsr2y4Kg0e2tkjflQGZaZiOa-AkeZ_ldRQb0OIqgv4RfvvyzxC6pi_U8a5YZKjB6YE8YREKOnpS4vC238BHHHTd8dpKxv8YDCApYwY5SWdoBpqxFO-dIN9D1MlaIVw7-tJrOMezMzcasaYNaN5KmT7nlbkAcOXAszkDkuvdm330XoEp3uhn6Ef9PFH8aCU6wsnEiK_Tu2t1irlbAKbtenCJR2oXdq9AZ5GO7xLqNAHatpddi-bqOvjANdF_16Zp8D3EonvQIpzXI-wk8SrMjsOehsDunhvZ2ANOaOULdNn1t9IyLPqOho0wQwK5e6n5ToS8SpgNHJVD85VvXMuvQKrnPsNUp5MnK6ohtzV5s3kH7EEeTvPSmoKN41D2w3yGTDpYV40mw6lufRaauO2woBjp_CGw2vK9Z4PwNrRf5Sbptii6cskLJmWrUlZfR6PuVq6m5hOYC4A_6yAsTlSIv1uept9zZuT-jxnD8PoIRZslqZDt_e-3dJ6rLwtz-0WVEHrwAnepZMpAhoNHYm5KYsX55_0jYMsJwxbJtBDM7GcMkbs-_2amqNOYEGFWA1LfG_tqOguCwJPxP9XwBT_]--></g></svg>