<?xml version="1.0" encoding="us-ascii" standalone="no"?><svg xmlns="http://www.w3.org/2000/svg" xmlns:xlink="http://www.w3.org/1999/xlink" contentStyleType="text/css" height="1046px" preserveAspectRatio="none" style="width:1803px;height:1046px;background:#FFFFFF;" version="1.1" viewBox="0 0 1803 1046" width="1803px" zoomAndPan="magnify"><defs/><g><text fill="#000000" font-family="sans-serif" font-size="14" font-weight="bold" lengthAdjust="spacing" textLength="116" x="836.5" y="22.9951">Class Diagram</text><!--cluster CONTROLLER--><g id="cluster_CONTROLLER"><path d="M9.5,43.2969 L113.5,43.2969 A5.25,5.25 0 0 1 117,46.7969 L124,65.5938 L1792.5,65.5938 A3.5,3.5 0 0 1 1796,69.0938 L1796,1035.7969 A3.5,3.5 0 0 1 1792.5,1039.2969 L9.5,1039.2969 A3.5,3.5 0 0 1 6,1035.7969 L6,46.7969 A3.5,3.5 0 0 1 9.5,43.2969 " fill="none" style="stroke:#696969;stroke-width:1.0;"/><line style="stroke:#696969;stroke-width:1.0;" x1="6" x2="124" y1="65.5938" y2="65.5938"/><text fill="#000000" font-family="sans-serif" font-size="14" font-weight="bold" lengthAdjust="spacing" textLength="105" x="10" y="58.292">CONTROLLER</text></g><!--cluster MODEL--><g id="cluster_MODEL"><path d="M33.5,86.2969 L87.5,86.2969 A5.25,5.25 0 0 1 91,89.7969 L98,108.5938 L1768.5,108.5938 A3.5,3.5 0 0 1 1772,112.0938 L1772,1011.7969 A3.5,3.5 0 0 1 1768.5,1015.2969 L33.5,1015.2969 A3.5,3.5 0 0 1 30,1011.7969 L30,89.7969 A3.5,3.5 0 0 1 33.5,86.2969 " fill="none" style="stroke:#696969;stroke-width:1.0;"/><line style="stroke:#696969;stroke-width:1.0;" x1="30" x2="98" y1="108.5938" y2="108.5938"/><text fill="#000000" font-family="sans-serif" font-size="14" font-weight="bold" lengthAdjust="spacing" textLength="55" x="34" y="101.292">MODEL</text></g><!--cluster Daos--><g id="cluster_Daos"><path d="M57.5,129.2969 L96.5,129.2969 A5.25,5.25 0 0 1 100,132.7969 L107,151.5938 L1744.5,151.5938 A3.5,3.5 0 0 1 1748,155.0938 L1748,987.7969 A3.5,3.5 0 0 1 1744.5,991.2969 L57.5,991.2969 A3.5,3.5 0 0 1 54,987.7969 L54,132.7969 A3.5,3.5 0 0 1 57.5,129.2969 " fill="none" style="stroke:#696969;stroke-width:1.0;"/><line style="stroke:#696969;stroke-width:1.0;" x1="54" x2="107" y1="151.5938" y2="151.5938"/><text fill="#000000" font-family="sans-serif" font-size="14" font-weight="bold" lengthAdjust="spacing" textLength="40" x="58" y="144.292">Daos</text></g><!--class AchievementDao--><g id="elem_AchievementDao"><rect codeLine="13" fill="#F1F1F1" height="96.8906" id="AchievementDao" rx="3.5" ry="3.5" style="stroke:#181818;stroke-width:0.5;" width="357" x="70.5" y="180.2969"/><ellipse cx="182.75" cy="196.2969" fill="#ADD1B2" rx="11" ry="11" style="stroke:#181818;stroke-width:1.0;"/><path d="M185.0938,191.9688 C184.1563,191.5313 183.5625,191.3906 182.6875,191.3906 C180.0625,191.3906 178.0625,193.4688 178.0625,196.1875 L178.0625,197.3125 C178.0625,199.8906 180.1719,201.7813 183.0625,201.7813 C184.2813,201.7813 185.4375,201.4844 186.1875,200.9375 C186.7656,200.5313 187.0938,200.0781 187.0938,199.6875 C187.0938,199.2344 186.7031,198.8438 186.2344,198.8438 C186.0156,198.8438 185.8125,198.9219 185.625,199.1094 C185.1719,199.5938 185.1719,199.5938 184.9844,199.6875 C184.5625,199.9531 183.875,200.0781 183.1094,200.0781 C181.0625,200.0781 179.7656,198.9844 179.7656,197.2813 L179.7656,196.1875 C179.7656,194.4063 181.0156,193.0938 182.75,193.0938 C183.3281,193.0938 183.9375,193.25 184.4063,193.5 C184.8906,193.7813 185.0625,194 185.1563,194.4063 C185.2188,194.8125 185.25,194.9375 185.3906,195.0625 C185.5313,195.2031 185.7656,195.3125 185.9844,195.3125 C186.25,195.3125 186.5156,195.1719 186.6875,194.9531 C186.7969,194.7969 186.8281,194.6094 186.8281,194.1875 L186.8281,192.7656 C186.8281,192.3281 186.8125,192.2031 186.7188,192.0469 C186.5625,191.7813 186.2813,191.6406 185.9844,191.6406 C185.6875,191.6406 185.4844,191.7344 185.2656,192.0469 L185.0938,191.9688 Z " fill="#000000"/><text fill="#000000" font-family="sans-serif" font-size="14" lengthAdjust="spacing" textLength="124" x="203.25" y="201.1436">AchievementDao</text><line style="stroke:#181818;stroke-width:0.5;" x1="71.5" x2="426.5" y1="212.2969" y2="212.2969"/><text fill="#000000" font-family="sans-serif" font-size="14" lengthAdjust="spacing" textLength="271" x="76.5" y="229.292">protected $database_connection_bo;</text><line style="stroke:#181818;stroke-width:0.5;" x1="71.5" x2="426.5" y1="236.5938" y2="236.5938"/><text fill="#000000" font-family="sans-serif" font-size="14" lengthAdjust="spacing" textLength="345" x="76.5" y="253.5889">function __construct($database_connection_bo)</text><text fill="#000000" font-family="sans-serif" font-size="14" lengthAdjust="spacing" textLength="253" x="76.5" y="269.8857">function create(array $parameters)</text></g><!--class CommonDao--><g id="elem_CommonDao"><rect codeLine="18" fill="#F1F1F1" height="129.4844" id="CommonDao" rx="3.5" ry="3.5" style="stroke:#181818;stroke-width:0.5;" width="357" x="462.5" y="164.2969"/><ellipse cx="590.25" cy="180.2969" fill="#ADD1B2" rx="11" ry="11" style="stroke:#181818;stroke-width:1.0;"/><path d="M592.5938,175.9688 C591.6563,175.5313 591.0625,175.3906 590.1875,175.3906 C587.5625,175.3906 585.5625,177.4688 585.5625,180.1875 L585.5625,181.3125 C585.5625,183.8906 587.6719,185.7813 590.5625,185.7813 C591.7813,185.7813 592.9375,185.4844 593.6875,184.9375 C594.2656,184.5313 594.5938,184.0781 594.5938,183.6875 C594.5938,183.2344 594.2031,182.8438 593.7344,182.8438 C593.5156,182.8438 593.3125,182.9219 593.125,183.1094 C592.6719,183.5938 592.6719,183.5938 592.4844,183.6875 C592.0625,183.9531 591.375,184.0781 590.6094,184.0781 C588.5625,184.0781 587.2656,182.9844 587.2656,181.2813 L587.2656,180.1875 C587.2656,178.4063 588.5156,177.0938 590.25,177.0938 C590.8281,177.0938 591.4375,177.25 591.9063,177.5 C592.3906,177.7813 592.5625,178 592.6563,178.4063 C592.7188,178.8125 592.75,178.9375 592.8906,179.0625 C593.0313,179.2031 593.2656,179.3125 593.4844,179.3125 C593.75,179.3125 594.0156,179.1719 594.1875,178.9531 C594.2969,178.7969 594.3281,178.6094 594.3281,178.1875 L594.3281,176.7656 C594.3281,176.3281 594.3125,176.2031 594.2188,176.0469 C594.0625,175.7813 593.7813,175.6406 593.4844,175.6406 C593.1875,175.6406 592.9844,175.7344 592.7656,176.0469 L592.5938,175.9688 Z " fill="#000000"/><text fill="#000000" font-family="sans-serif" font-size="14" lengthAdjust="spacing" textLength="93" x="610.75" y="185.1436">CommonDao</text><line style="stroke:#181818;stroke-width:0.5;" x1="463.5" x2="818.5" y1="196.2969" y2="196.2969"/><text fill="#000000" font-family="sans-serif" font-size="14" lengthAdjust="spacing" textLength="271" x="468.5" y="213.292">protected $database_connection_bo;</text><line style="stroke:#181818;stroke-width:0.5;" x1="463.5" x2="818.5" y1="220.5938" y2="220.5938"/><text fill="#000000" font-family="sans-serif" font-size="14" lengthAdjust="spacing" textLength="345" x="468.5" y="237.5889">function __construct($database_connection_bo)</text><text fill="#000000" font-family="sans-serif" font-size="14" lengthAdjust="spacing" textLength="137" x="468.5" y="253.8857">function getUsers()</text><text fill="#000000" font-family="sans-serif" font-size="14" lengthAdjust="spacing" textLength="244" x="468.5" y="270.1826">function createUser($parameters)</text><text fill="#000000" font-family="sans-serif" font-size="14" lengthAdjust="spacing" textLength="244" x="468.5" y="286.4795">function deleteUser($parameters)</text></g><!--class OrderDao--><g id="elem_OrderDao"><rect codeLine="25" fill="#F1F1F1" height="129.4844" id="OrderDao" rx="3.5" ry="3.5" style="stroke:#181818;stroke-width:0.5;" width="357" x="854.5" y="164.2969"/><ellipse cx="994.25" cy="180.2969" fill="#ADD1B2" rx="11" ry="11" style="stroke:#181818;stroke-width:1.0;"/><path d="M996.5938,175.9688 C995.6563,175.5313 995.0625,175.3906 994.1875,175.3906 C991.5625,175.3906 989.5625,177.4688 989.5625,180.1875 L989.5625,181.3125 C989.5625,183.8906 991.6719,185.7813 994.5625,185.7813 C995.7813,185.7813 996.9375,185.4844 997.6875,184.9375 C998.2656,184.5313 998.5938,184.0781 998.5938,183.6875 C998.5938,183.2344 998.2031,182.8438 997.7344,182.8438 C997.5156,182.8438 997.3125,182.9219 997.125,183.1094 C996.6719,183.5938 996.6719,183.5938 996.4844,183.6875 C996.0625,183.9531 995.375,184.0781 994.6094,184.0781 C992.5625,184.0781 991.2656,182.9844 991.2656,181.2813 L991.2656,180.1875 C991.2656,178.4063 992.5156,177.0938 994.25,177.0938 C994.8281,177.0938 995.4375,177.25 995.9063,177.5 C996.3906,177.7813 996.5625,178 996.6563,178.4063 C996.7188,178.8125 996.75,178.9375 996.8906,179.0625 C997.0313,179.2031 997.2656,179.3125 997.4844,179.3125 C997.75,179.3125 998.0156,179.1719 998.1875,178.9531 C998.2969,178.7969 998.3281,178.6094 998.3281,178.1875 L998.3281,176.7656 C998.3281,176.3281 998.3125,176.2031 998.2188,176.0469 C998.0625,175.7813 997.7813,175.6406 997.4844,175.6406 C997.1875,175.6406 996.9844,175.7344 996.7656,176.0469 L996.5938,175.9688 Z " fill="#000000"/><text fill="#000000" font-family="sans-serif" font-size="14" lengthAdjust="spacing" textLength="69" x="1014.75" y="185.1436">OrderDao</text><line style="stroke:#181818;stroke-width:0.5;" x1="855.5" x2="1210.5" y1="196.2969" y2="196.2969"/><text fill="#000000" font-family="sans-serif" font-size="14" lengthAdjust="spacing" textLength="271" x="860.5" y="213.292">protected $database_connection_bo;</text><line style="stroke:#181818;stroke-width:0.5;" x1="855.5" x2="1210.5" y1="220.5938" y2="220.5938"/><text fill="#000000" font-family="sans-serif" font-size="14" lengthAdjust="spacing" textLength="345" x="860.5" y="237.5889">function __construct($database_connection_bo)</text><text fill="#000000" font-family="sans-serif" font-size="14" lengthAdjust="spacing" textLength="117" x="860.5" y="253.8857">function getAll()</text><text fill="#000000" font-family="sans-serif" font-size="14" lengthAdjust="spacing" textLength="294" x="860.5" y="270.1826">function createOrder(array $parameters)</text><text fill="#000000" font-family="sans-serif" font-size="14" lengthAdjust="spacing" textLength="254" x="860.5" y="286.4795">function deleteOrder($parameters)</text></g><!--class RaidDao--><g id="elem_RaidDao"><rect codeLine="32" fill="#F1F1F1" height="129.4844" id="RaidDao" rx="3.5" ry="3.5" style="stroke:#181818;stroke-width:0.5;" width="357" x="1246.5" y="164.2969"/><ellipse cx="1391.25" cy="180.2969" fill="#ADD1B2" rx="11" ry="11" style="stroke:#181818;stroke-width:1.0;"/><path d="M1393.5938,175.9688 C1392.6563,175.5313 1392.0625,175.3906 1391.1875,175.3906 C1388.5625,175.3906 1386.5625,177.4688 1386.5625,180.1875 L1386.5625,181.3125 C1386.5625,183.8906 1388.6719,185.7813 1391.5625,185.7813 C1392.7813,185.7813 1393.9375,185.4844 1394.6875,184.9375 C1395.2656,184.5313 1395.5938,184.0781 1395.5938,183.6875 C1395.5938,183.2344 1395.2031,182.8438 1394.7344,182.8438 C1394.5156,182.8438 1394.3125,182.9219 1394.125,183.1094 C1393.6719,183.5938 1393.6719,183.5938 1393.4844,183.6875 C1393.0625,183.9531 1392.375,184.0781 1391.6094,184.0781 C1389.5625,184.0781 1388.2656,182.9844 1388.2656,181.2813 L1388.2656,180.1875 C1388.2656,178.4063 1389.5156,177.0938 1391.25,177.0938 C1391.8281,177.0938 1392.4375,177.25 1392.9063,177.5 C1393.3906,177.7813 1393.5625,178 1393.6563,178.4063 C1393.7188,178.8125 1393.75,178.9375 1393.8906,179.0625 C1394.0313,179.2031 1394.2656,179.3125 1394.4844,179.3125 C1394.75,179.3125 1395.0156,179.1719 1395.1875,178.9531 C1395.2969,178.7969 1395.3281,178.6094 1395.3281,178.1875 L1395.3281,176.7656 C1395.3281,176.3281 1395.3125,176.2031 1395.2188,176.0469 C1395.0625,175.7813 1394.7813,175.6406 1394.4844,175.6406 C1394.1875,175.6406 1393.9844,175.7344 1393.7656,176.0469 L1393.5938,175.9688 Z " fill="#000000"/><text fill="#000000" font-family="sans-serif" font-size="14" lengthAdjust="spacing" textLength="59" x="1411.75" y="185.1436">RaidDao</text><line style="stroke:#181818;stroke-width:0.5;" x1="1247.5" x2="1602.5" y1="196.2969" y2="196.2969"/><text fill="#000000" font-family="sans-serif" font-size="14" lengthAdjust="spacing" textLength="271" x="1252.5" y="213.292">protected $database_connection_bo;</text><line style="stroke:#181818;stroke-width:0.5;" x1="1247.5" x2="1602.5" y1="220.5938" y2="220.5938"/><text fill="#000000" font-family="sans-serif" font-size="14" lengthAdjust="spacing" textLength="345" x="1252.5" y="237.5889">function __construct($database_connection_bo)</text><text fill="#000000" font-family="sans-serif" font-size="14" lengthAdjust="spacing" textLength="117" x="1252.5" y="253.8857">function getAll()</text><text fill="#000000" font-family="sans-serif" font-size="14" lengthAdjust="spacing" textLength="284" x="1252.5" y="270.1826">function createRaid(array $parameters)</text><text fill="#000000" font-family="sans-serif" font-size="14" lengthAdjust="spacing" textLength="244" x="1252.5" y="286.4795">function deleteRaid($parameters)</text></g><!--class RaidRewardDao--><g id="elem_RaidRewardDao"><rect codeLine="39" fill="#F1F1F1" height="129.4844" id="RaidRewardDao" rx="3.5" ry="3.5" style="stroke:#181818;stroke-width:0.5;" width="357" x="70.5" y="361.7969"/><ellipse cx="188.75" cy="377.7969" fill="#ADD1B2" rx="11" ry="11" style="stroke:#181818;stroke-width:1.0;"/><path d="M191.0938,373.4688 C190.1563,373.0313 189.5625,372.8906 188.6875,372.8906 C186.0625,372.8906 184.0625,374.9688 184.0625,377.6875 L184.0625,378.8125 C184.0625,381.3906 186.1719,383.2813 189.0625,383.2813 C190.2813,383.2813 191.4375,382.9844 192.1875,382.4375 C192.7656,382.0313 193.0938,381.5781 193.0938,381.1875 C193.0938,380.7344 192.7031,380.3438 192.2344,380.3438 C192.0156,380.3438 191.8125,380.4219 191.625,380.6094 C191.1719,381.0938 191.1719,381.0938 190.9844,381.1875 C190.5625,381.4531 189.875,381.5781 189.1094,381.5781 C187.0625,381.5781 185.7656,380.4844 185.7656,378.7813 L185.7656,377.6875 C185.7656,375.9063 187.0156,374.5938 188.75,374.5938 C189.3281,374.5938 189.9375,374.75 190.4063,375 C190.8906,375.2813 191.0625,375.5 191.1563,375.9063 C191.2188,376.3125 191.25,376.4375 191.3906,376.5625 C191.5313,376.7031 191.7656,376.8125 191.9844,376.8125 C192.25,376.8125 192.5156,376.6719 192.6875,376.4531 C192.7969,376.2969 192.8281,376.1094 192.8281,375.6875 L192.8281,374.2656 C192.8281,373.8281 192.8125,373.7031 192.7188,373.5469 C192.5625,373.2813 192.2813,373.1406 191.9844,373.1406 C191.6875,373.1406 191.4844,373.2344 191.2656,373.5469 L191.0938,373.4688 Z " fill="#000000"/><text fill="#000000" font-family="sans-serif" font-size="14" lengthAdjust="spacing" textLength="112" x="209.25" y="382.6436">RaidRewardDao</text><line style="stroke:#181818;stroke-width:0.5;" x1="71.5" x2="426.5" y1="393.7969" y2="393.7969"/><text fill="#000000" font-family="sans-serif" font-size="14" lengthAdjust="spacing" textLength="271" x="76.5" y="410.792">protected $database_connection_bo;</text><line style="stroke:#181818;stroke-width:0.5;" x1="71.5" x2="426.5" y1="418.0938" y2="418.0938"/><text fill="#000000" font-family="sans-serif" font-size="14" lengthAdjust="spacing" textLength="345" x="76.5" y="435.0889">function __construct($database_connection_bo)</text><text fill="#000000" font-family="sans-serif" font-size="14" lengthAdjust="spacing" textLength="117" x="76.5" y="451.3857">function getAll()</text><text fill="#000000" font-family="sans-serif" font-size="14" lengthAdjust="spacing" textLength="340" x="76.5" y="467.6826">function createRaid_reward(array $parameters)</text><text fill="#000000" font-family="sans-serif" font-size="14" lengthAdjust="spacing" textLength="300" x="76.5" y="483.9795">function deleteRaid_reward($parameters)</text></g><!--class RaidUserDao--><g id="elem_RaidUserDao"><rect codeLine="46" fill="#F1F1F1" height="113.1875" id="RaidUserDao" rx="3.5" ry="3.5" style="stroke:#181818;stroke-width:0.5;" width="357" x="462.5" y="369.7969"/><ellipse cx="591.75" cy="385.7969" fill="#ADD1B2" rx="11" ry="11" style="stroke:#181818;stroke-width:1.0;"/><path d="M594.0938,381.4688 C593.1563,381.0313 592.5625,380.8906 591.6875,380.8906 C589.0625,380.8906 587.0625,382.9688 587.0625,385.6875 L587.0625,386.8125 C587.0625,389.3906 589.1719,391.2813 592.0625,391.2813 C593.2813,391.2813 594.4375,390.9844 595.1875,390.4375 C595.7656,390.0313 596.0938,389.5781 596.0938,389.1875 C596.0938,388.7344 595.7031,388.3438 595.2344,388.3438 C595.0156,388.3438 594.8125,388.4219 594.625,388.6094 C594.1719,389.0938 594.1719,389.0938 593.9844,389.1875 C593.5625,389.4531 592.875,389.5781 592.1094,389.5781 C590.0625,389.5781 588.7656,388.4844 588.7656,386.7813 L588.7656,385.6875 C588.7656,383.9063 590.0156,382.5938 591.75,382.5938 C592.3281,382.5938 592.9375,382.75 593.4063,383 C593.8906,383.2813 594.0625,383.5 594.1563,383.9063 C594.2188,384.3125 594.25,384.4375 594.3906,384.5625 C594.5313,384.7031 594.7656,384.8125 594.9844,384.8125 C595.25,384.8125 595.5156,384.6719 595.6875,384.4531 C595.7969,384.2969 595.8281,384.1094 595.8281,383.6875 L595.8281,382.2656 C595.8281,381.8281 595.8125,381.7031 595.7188,381.5469 C595.5625,381.2813 595.2813,381.1406 594.9844,381.1406 C594.6875,381.1406 594.4844,381.2344 594.2656,381.5469 L594.0938,381.4688 Z " fill="#000000"/><text fill="#000000" font-family="sans-serif" font-size="14" lengthAdjust="spacing" textLength="90" x="612.25" y="390.6436">RaidUserDao</text><line style="stroke:#181818;stroke-width:0.5;" x1="463.5" x2="818.5" y1="401.7969" y2="401.7969"/><text fill="#000000" font-family="sans-serif" font-size="14" lengthAdjust="spacing" textLength="271" x="468.5" y="418.792">protected $database_connection_bo;</text><line style="stroke:#181818;stroke-width:0.5;" x1="463.5" x2="818.5" y1="426.0938" y2="426.0938"/><text fill="#000000" font-family="sans-serif" font-size="14" lengthAdjust="spacing" textLength="345" x="468.5" y="443.0889">function __construct($database_connection_bo)</text><text fill="#000000" font-family="sans-serif" font-size="14" lengthAdjust="spacing" textLength="117" x="468.5" y="459.3857">function getAll()</text><text fill="#000000" font-family="sans-serif" font-size="14" lengthAdjust="spacing" textLength="321" x="468.5" y="475.6826">function createRaid_user(array $parameters)</text></g><!--class SecurityDao--><g id="elem_SecurityDao"><rect codeLine="52" fill="#F1F1F1" height="96.8906" id="SecurityDao" rx="3.5" ry="3.5" style="stroke:#181818;stroke-width:0.5;" width="436" x="855" y="377.7969"/><ellipse cx="1025.25" cy="393.7969" fill="#ADD1B2" rx="11" ry="11" style="stroke:#181818;stroke-width:1.0;"/><path d="M1027.5938,389.4688 C1026.6563,389.0313 1026.0625,388.8906 1025.1875,388.8906 C1022.5625,388.8906 1020.5625,390.9688 1020.5625,393.6875 L1020.5625,394.8125 C1020.5625,397.3906 1022.6719,399.2813 1025.5625,399.2813 C1026.7813,399.2813 1027.9375,398.9844 1028.6875,398.4375 C1029.2656,398.0313 1029.5938,397.5781 1029.5938,397.1875 C1029.5938,396.7344 1029.2031,396.3438 1028.7344,396.3438 C1028.5156,396.3438 1028.3125,396.4219 1028.125,396.6094 C1027.6719,397.0938 1027.6719,397.0938 1027.4844,397.1875 C1027.0625,397.4531 1026.375,397.5781 1025.6094,397.5781 C1023.5625,397.5781 1022.2656,396.4844 1022.2656,394.7813 L1022.2656,393.6875 C1022.2656,391.9063 1023.5156,390.5938 1025.25,390.5938 C1025.8281,390.5938 1026.4375,390.75 1026.9063,391 C1027.3906,391.2813 1027.5625,391.5 1027.6563,391.9063 C1027.7188,392.3125 1027.75,392.4375 1027.8906,392.5625 C1028.0313,392.7031 1028.2656,392.8125 1028.4844,392.8125 C1028.75,392.8125 1029.0156,392.6719 1029.1875,392.4531 C1029.2969,392.2969 1029.3281,392.1094 1029.3281,391.6875 L1029.3281,390.2656 C1029.3281,389.8281 1029.3125,389.7031 1029.2188,389.5469 C1029.0625,389.2813 1028.7813,389.1406 1028.4844,389.1406 C1028.1875,389.1406 1027.9844,389.2344 1027.7656,389.5469 L1027.5938,389.4688 Z " fill="#000000"/><text fill="#000000" font-family="sans-serif" font-size="14" lengthAdjust="spacing" textLength="87" x="1045.75" y="398.6436">SecurityDao</text><line style="stroke:#181818;stroke-width:0.5;" x1="856" x2="1290" y1="409.7969" y2="409.7969"/><text fill="#000000" font-family="sans-serif" font-size="14" lengthAdjust="spacing" textLength="271" x="861" y="426.792">protected $database_connection_bo;</text><line style="stroke:#181818;stroke-width:0.5;" x1="856" x2="1290" y1="434.0938" y2="434.0938"/><text fill="#000000" font-family="sans-serif" font-size="14" lengthAdjust="spacing" textLength="345" x="861" y="451.0889">function __construct($database_connection_bo)</text><text fill="#000000" font-family="sans-serif" font-size="14" lengthAdjust="spacing" textLength="424" x="861" y="467.3857">function getUserPasswordHashByUserId(array $parameters)</text></g><!--class TavernDao--><g id="elem_TavernDao"><rect codeLine="57" fill="#F1F1F1" height="145.7813" id="TavernDao" rx="3.5" ry="3.5" style="stroke:#181818;stroke-width:0.5;" width="357" x="1326.5" y="353.2969"/><ellipse cx="1462.25" cy="369.2969" fill="#ADD1B2" rx="11" ry="11" style="stroke:#181818;stroke-width:1.0;"/><path d="M1464.5938,364.9688 C1463.6563,364.5313 1463.0625,364.3906 1462.1875,364.3906 C1459.5625,364.3906 1457.5625,366.4688 1457.5625,369.1875 L1457.5625,370.3125 C1457.5625,372.8906 1459.6719,374.7813 1462.5625,374.7813 C1463.7813,374.7813 1464.9375,374.4844 1465.6875,373.9375 C1466.2656,373.5313 1466.5938,373.0781 1466.5938,372.6875 C1466.5938,372.2344 1466.2031,371.8438 1465.7344,371.8438 C1465.5156,371.8438 1465.3125,371.9219 1465.125,372.1094 C1464.6719,372.5938 1464.6719,372.5938 1464.4844,372.6875 C1464.0625,372.9531 1463.375,373.0781 1462.6094,373.0781 C1460.5625,373.0781 1459.2656,371.9844 1459.2656,370.2813 L1459.2656,369.1875 C1459.2656,367.4063 1460.5156,366.0938 1462.25,366.0938 C1462.8281,366.0938 1463.4375,366.25 1463.9063,366.5 C1464.3906,366.7813 1464.5625,367 1464.6563,367.4063 C1464.7188,367.8125 1464.75,367.9375 1464.8906,368.0625 C1465.0313,368.2031 1465.2656,368.3125 1465.4844,368.3125 C1465.75,368.3125 1466.0156,368.1719 1466.1875,367.9531 C1466.2969,367.7969 1466.3281,367.6094 1466.3281,367.1875 L1466.3281,365.7656 C1466.3281,365.3281 1466.3125,365.2031 1466.2188,365.0469 C1466.0625,364.7813 1465.7813,364.6406 1465.4844,364.6406 C1465.1875,364.6406 1464.9844,364.7344 1464.7656,365.0469 L1464.5938,364.9688 Z " fill="#000000"/><text fill="#000000" font-family="sans-serif" font-size="14" lengthAdjust="spacing" textLength="77" x="1482.75" y="374.1436">TavernDao</text><line style="stroke:#181818;stroke-width:0.5;" x1="1327.5" x2="1682.5" y1="385.2969" y2="385.2969"/><text fill="#000000" font-family="sans-serif" font-size="14" lengthAdjust="spacing" textLength="271" x="1332.5" y="402.292">protected $database_connection_bo;</text><line style="stroke:#181818;stroke-width:0.5;" x1="1327.5" x2="1682.5" y1="409.5938" y2="409.5938"/><text fill="#000000" font-family="sans-serif" font-size="14" lengthAdjust="spacing" textLength="345" x="1332.5" y="426.5889">function __construct($database_connection_bo)</text><text fill="#000000" font-family="sans-serif" font-size="14" lengthAdjust="spacing" textLength="117" x="1332.5" y="442.8857">function getAll()</text><text fill="#000000" font-family="sans-serif" font-size="14" lengthAdjust="spacing" textLength="253" x="1332.5" y="459.1826">function create(array $parameters)</text><text fill="#000000" font-family="sans-serif" font-size="14" lengthAdjust="spacing" textLength="262" x="1332.5" y="475.4795">function deleteTavern($parameters)</text><text fill="#000000" font-family="sans-serif" font-size="14" lengthAdjust="spacing" textLength="318" x="1332.5" y="491.7764">function isDisplayNameUnique($parameters)</text></g><!--class TavernItemDao--><g id="elem_TavernItemDao"><rect codeLine="65" fill="#F1F1F1" height="129.4844" id="TavernItemDao" rx="3.5" ry="3.5" style="stroke:#181818;stroke-width:0.5;" width="357" x="70.5" y="608.2969"/><ellipse cx="189.25" cy="624.2969" fill="#ADD1B2" rx="11" ry="11" style="stroke:#181818;stroke-width:1.0;"/><path d="M191.5938,619.9688 C190.6563,619.5313 190.0625,619.3906 189.1875,619.3906 C186.5625,619.3906 184.5625,621.4688 184.5625,624.1875 L184.5625,625.3125 C184.5625,627.8906 186.6719,629.7813 189.5625,629.7813 C190.7813,629.7813 191.9375,629.4844 192.6875,628.9375 C193.2656,628.5313 193.5938,628.0781 193.5938,627.6875 C193.5938,627.2344 193.2031,626.8438 192.7344,626.8438 C192.5156,626.8438 192.3125,626.9219 192.125,627.1094 C191.6719,627.5938 191.6719,627.5938 191.4844,627.6875 C191.0625,627.9531 190.375,628.0781 189.6094,628.0781 C187.5625,628.0781 186.2656,626.9844 186.2656,625.2813 L186.2656,624.1875 C186.2656,622.4063 187.5156,621.0938 189.25,621.0938 C189.8281,621.0938 190.4375,621.25 190.9063,621.5 C191.3906,621.7813 191.5625,622 191.6563,622.4063 C191.7188,622.8125 191.75,622.9375 191.8906,623.0625 C192.0313,623.2031 192.2656,623.3125 192.4844,623.3125 C192.75,623.3125 193.0156,623.1719 193.1875,622.9531 C193.2969,622.7969 193.3281,622.6094 193.3281,622.1875 L193.3281,620.7656 C193.3281,620.3281 193.3125,620.2031 193.2188,620.0469 C193.0625,619.7813 192.7813,619.6406 192.4844,619.6406 C192.1875,619.6406 191.9844,619.7344 191.7656,620.0469 L191.5938,619.9688 Z " fill="#000000"/><text fill="#000000" font-family="sans-serif" font-size="14" lengthAdjust="spacing" textLength="111" x="209.75" y="629.1436">TavernItemDao</text><line style="stroke:#181818;stroke-width:0.5;" x1="71.5" x2="426.5" y1="640.2969" y2="640.2969"/><text fill="#000000" font-family="sans-serif" font-size="14" lengthAdjust="spacing" textLength="271" x="76.5" y="657.292">protected $database_connection_bo;</text><line style="stroke:#181818;stroke-width:0.5;" x1="71.5" x2="426.5" y1="664.5938" y2="664.5938"/><text fill="#000000" font-family="sans-serif" font-size="14" lengthAdjust="spacing" textLength="345" x="76.5" y="681.5889">function __construct($database_connection_bo)</text><text fill="#000000" font-family="sans-serif" font-size="14" lengthAdjust="spacing" textLength="117" x="76.5" y="697.8857">function getAll()</text><text fill="#000000" font-family="sans-serif" font-size="14" lengthAdjust="spacing" textLength="343" x="76.5" y="714.1826">function createTavern_item(array $parameters)</text><text fill="#000000" font-family="sans-serif" font-size="14" lengthAdjust="spacing" textLength="303" x="76.5" y="730.4795">function deleteTavern_item($parameters)</text></g><!--class TavernItemRewardDao--><g id="elem_TavernItemRewardDao"><rect codeLine="72" fill="#F1F1F1" height="129.4844" id="TavernItemRewardDao" rx="3.5" ry="3.5" style="stroke:#181818;stroke-width:0.5;" width="411" x="462.5" y="608.2969"/><ellipse cx="581.75" cy="624.2969" fill="#ADD1B2" rx="11" ry="11" style="stroke:#181818;stroke-width:1.0;"/><path d="M584.0938,619.9688 C583.1563,619.5313 582.5625,619.3906 581.6875,619.3906 C579.0625,619.3906 577.0625,621.4688 577.0625,624.1875 L577.0625,625.3125 C577.0625,627.8906 579.1719,629.7813 582.0625,629.7813 C583.2813,629.7813 584.4375,629.4844 585.1875,628.9375 C585.7656,628.5313 586.0938,628.0781 586.0938,627.6875 C586.0938,627.2344 585.7031,626.8438 585.2344,626.8438 C585.0156,626.8438 584.8125,626.9219 584.625,627.1094 C584.1719,627.5938 584.1719,627.5938 583.9844,627.6875 C583.5625,627.9531 582.875,628.0781 582.1094,628.0781 C580.0625,628.0781 578.7656,626.9844 578.7656,625.2813 L578.7656,624.1875 C578.7656,622.4063 580.0156,621.0938 581.75,621.0938 C582.3281,621.0938 582.9375,621.25 583.4063,621.5 C583.8906,621.7813 584.0625,622 584.1563,622.4063 C584.2188,622.8125 584.25,622.9375 584.3906,623.0625 C584.5313,623.2031 584.7656,623.3125 584.9844,623.3125 C585.25,623.3125 585.5156,623.1719 585.6875,622.9531 C585.7969,622.7969 585.8281,622.6094 585.8281,622.1875 L585.8281,620.7656 C585.8281,620.3281 585.8125,620.2031 585.7188,620.0469 C585.5625,619.7813 585.2813,619.6406 584.9844,619.6406 C584.6875,619.6406 584.4844,619.7344 584.2656,620.0469 L584.0938,619.9688 Z " fill="#000000"/><text fill="#000000" font-family="sans-serif" font-size="14" lengthAdjust="spacing" textLength="164" x="602.25" y="629.1436">TavernItemRewardDao</text><line style="stroke:#181818;stroke-width:0.5;" x1="463.5" x2="872.5" y1="640.2969" y2="640.2969"/><text fill="#000000" font-family="sans-serif" font-size="14" lengthAdjust="spacing" textLength="271" x="468.5" y="657.292">protected $database_connection_bo;</text><line style="stroke:#181818;stroke-width:0.5;" x1="463.5" x2="872.5" y1="664.5938" y2="664.5938"/><text fill="#000000" font-family="sans-serif" font-size="14" lengthAdjust="spacing" textLength="345" x="468.5" y="681.5889">function __construct($database_connection_bo)</text><text fill="#000000" font-family="sans-serif" font-size="14" lengthAdjust="spacing" textLength="117" x="468.5" y="697.8857">function getAll()</text><text fill="#000000" font-family="sans-serif" font-size="14" lengthAdjust="spacing" textLength="399" x="468.5" y="714.1826">function createTavern_item_reward(array $parameters)</text><text fill="#000000" font-family="sans-serif" font-size="14" lengthAdjust="spacing" textLength="359" x="468.5" y="730.4795">function deleteTavern_item_reward($parameters)</text></g><!--class UserDao--><g id="elem_UserDao"><rect codeLine="79" fill="#F1F1F1" height="227.2656" id="UserDao" rx="3.5" ry="3.5" style="stroke:#181818;stroke-width:0.5;" width="357" x="908.5" y="559.2969"/><ellipse cx="1053.25" cy="575.2969" fill="#ADD1B2" rx="11" ry="11" style="stroke:#181818;stroke-width:1.0;"/><path d="M1055.5938,570.9688 C1054.6563,570.5313 1054.0625,570.3906 1053.1875,570.3906 C1050.5625,570.3906 1048.5625,572.4688 1048.5625,575.1875 L1048.5625,576.3125 C1048.5625,578.8906 1050.6719,580.7813 1053.5625,580.7813 C1054.7813,580.7813 1055.9375,580.4844 1056.6875,579.9375 C1057.2656,579.5313 1057.5938,579.0781 1057.5938,578.6875 C1057.5938,578.2344 1057.2031,577.8438 1056.7344,577.8438 C1056.5156,577.8438 1056.3125,577.9219 1056.125,578.1094 C1055.6719,578.5938 1055.6719,578.5938 1055.4844,578.6875 C1055.0625,578.9531 1054.375,579.0781 1053.6094,579.0781 C1051.5625,579.0781 1050.2656,577.9844 1050.2656,576.2813 L1050.2656,575.1875 C1050.2656,573.4063 1051.5156,572.0938 1053.25,572.0938 C1053.8281,572.0938 1054.4375,572.25 1054.9063,572.5 C1055.3906,572.7813 1055.5625,573 1055.6563,573.4063 C1055.7188,573.8125 1055.75,573.9375 1055.8906,574.0625 C1056.0313,574.2031 1056.2656,574.3125 1056.4844,574.3125 C1056.75,574.3125 1057.0156,574.1719 1057.1875,573.9531 C1057.2969,573.7969 1057.3281,573.6094 1057.3281,573.1875 L1057.3281,571.7656 C1057.3281,571.3281 1057.3125,571.2031 1057.2188,571.0469 C1057.0625,570.7813 1056.7813,570.6406 1056.4844,570.6406 C1056.1875,570.6406 1055.9844,570.7344 1055.7656,571.0469 L1055.5938,570.9688 Z " fill="#000000"/><text fill="#000000" font-family="sans-serif" font-size="14" lengthAdjust="spacing" textLength="59" x="1073.75" y="580.1436">UserDao</text><line style="stroke:#181818;stroke-width:0.5;" x1="909.5" x2="1264.5" y1="591.2969" y2="591.2969"/><text fill="#000000" font-family="sans-serif" font-size="14" lengthAdjust="spacing" textLength="271" x="914.5" y="608.292">protected $database_connection_bo;</text><text fill="#000000" font-family="sans-serif" font-size="14" lengthAdjust="spacing" textLength="168" x="914.5" y="624.5889">protected $do_factory;</text><line style="stroke:#181818;stroke-width:0.5;" x1="909.5" x2="1264.5" y1="631.8906" y2="631.8906"/><text fill="#000000" font-family="sans-serif" font-size="14" lengthAdjust="spacing" textLength="345" x="914.5" y="648.8857">function __construct($database_connection_bo)</text><text fill="#000000" font-family="sans-serif" font-size="14" lengthAdjust="spacing" textLength="117" x="914.5" y="665.1826">function getAll()</text><text fill="#000000" font-family="sans-serif" font-size="14" lengthAdjust="spacing" textLength="253" x="914.5" y="681.4795">function create(array $parameters)</text><text fill="#000000" font-family="sans-serif" font-size="14" lengthAdjust="spacing" textLength="244" x="914.5" y="697.7764">function deleteUser($parameters)</text><text fill="#000000" font-family="sans-serif" font-size="14" lengthAdjust="spacing" textLength="327" x="914.5" y="714.0732">function isUserNicknameUnique($parameters)</text><text fill="#000000" font-family="sans-serif" font-size="14" lengthAdjust="spacing" textLength="295" x="914.5" y="730.3701">function isUserEmailUnique($parameters)</text><text fill="#000000" font-family="sans-serif" font-size="14" lengthAdjust="spacing" textLength="265" x="914.5" y="746.667">function getHash(array $parameters)</text><text fill="#000000" font-family="sans-serif" font-size="14" lengthAdjust="spacing" textLength="262" x="914.5" y="762.9639">function getById(array $parameters)</text><text fill="#000000" font-family="sans-serif" font-size="14" lengthAdjust="spacing" textLength="317" x="914.5" y="779.2607">function getUserListForTavernRegistration()</text></g><!--class UserRaidAchievementDao--><g id="elem_UserRaidAchievementDao"><rect codeLine="92" fill="#F1F1F1" height="129.4844" id="UserRaidAchievementDao" rx="3.5" ry="3.5" style="stroke:#181818;stroke-width:0.5;" width="431" x="1300.5" y="608.2969"/><ellipse cx="1418.75" cy="624.2969" fill="#ADD1B2" rx="11" ry="11" style="stroke:#181818;stroke-width:1.0;"/><path d="M1421.0938,619.9688 C1420.1563,619.5313 1419.5625,619.3906 1418.6875,619.3906 C1416.0625,619.3906 1414.0625,621.4688 1414.0625,624.1875 L1414.0625,625.3125 C1414.0625,627.8906 1416.1719,629.7813 1419.0625,629.7813 C1420.2813,629.7813 1421.4375,629.4844 1422.1875,628.9375 C1422.7656,628.5313 1423.0938,628.0781 1423.0938,627.6875 C1423.0938,627.2344 1422.7031,626.8438 1422.2344,626.8438 C1422.0156,626.8438 1421.8125,626.9219 1421.625,627.1094 C1421.1719,627.5938 1421.1719,627.5938 1420.9844,627.6875 C1420.5625,627.9531 1419.875,628.0781 1419.1094,628.0781 C1417.0625,628.0781 1415.7656,626.9844 1415.7656,625.2813 L1415.7656,624.1875 C1415.7656,622.4063 1417.0156,621.0938 1418.75,621.0938 C1419.3281,621.0938 1419.9375,621.25 1420.4063,621.5 C1420.8906,621.7813 1421.0625,622 1421.1563,622.4063 C1421.2188,622.8125 1421.25,622.9375 1421.3906,623.0625 C1421.5313,623.2031 1421.7656,623.3125 1421.9844,623.3125 C1422.25,623.3125 1422.5156,623.1719 1422.6875,622.9531 C1422.7969,622.7969 1422.8281,622.6094 1422.8281,622.1875 L1422.8281,620.7656 C1422.8281,620.3281 1422.8125,620.2031 1422.7188,620.0469 C1422.5625,619.7813 1422.2813,619.6406 1421.9844,619.6406 C1421.6875,619.6406 1421.4844,619.7344 1421.2656,620.0469 L1421.0938,619.9688 Z " fill="#000000"/><text fill="#000000" font-family="sans-serif" font-size="14" lengthAdjust="spacing" textLength="186" x="1439.25" y="629.1436">UserRaidAchievementDao</text><line style="stroke:#181818;stroke-width:0.5;" x1="1301.5" x2="1730.5" y1="640.2969" y2="640.2969"/><text fill="#000000" font-family="sans-serif" font-size="14" lengthAdjust="spacing" textLength="271" x="1306.5" y="657.292">protected $database_connection_bo;</text><line style="stroke:#181818;stroke-width:0.5;" x1="1301.5" x2="1730.5" y1="664.5938" y2="664.5938"/><text fill="#000000" font-family="sans-serif" font-size="14" lengthAdjust="spacing" textLength="345" x="1306.5" y="681.5889">function __construct($database_connection_bo)</text><text fill="#000000" font-family="sans-serif" font-size="14" lengthAdjust="spacing" textLength="117" x="1306.5" y="697.8857">function getAll()</text><text fill="#000000" font-family="sans-serif" font-size="14" lengthAdjust="spacing" textLength="419" x="1306.5" y="714.1826">function createUser_raid_achievement(array $parameters)</text><text fill="#000000" font-family="sans-serif" font-size="14" lengthAdjust="spacing" textLength="379" x="1306.5" y="730.4795">function deleteUser_raid_achievement($parameters)</text></g><!--class UserRaidPointsDao--><g id="elem_UserRaidPointsDao"><rect codeLine="99" fill="#F1F1F1" height="129.4844" id="UserRaidPointsDao" rx="3.5" ry="3.5" style="stroke:#181818;stroke-width:0.5;" width="376" x="70" y="846.2969"/><ellipse cx="186.25" cy="862.2969" fill="#ADD1B2" rx="11" ry="11" style="stroke:#181818;stroke-width:1.0;"/><path d="M188.5938,857.9688 C187.6563,857.5313 187.0625,857.3906 186.1875,857.3906 C183.5625,857.3906 181.5625,859.4688 181.5625,862.1875 L181.5625,863.3125 C181.5625,865.8906 183.6719,867.7813 186.5625,867.7813 C187.7813,867.7813 188.9375,867.4844 189.6875,866.9375 C190.2656,866.5313 190.5938,866.0781 190.5938,865.6875 C190.5938,865.2344 190.2031,864.8438 189.7344,864.8438 C189.5156,864.8438 189.3125,864.9219 189.125,865.1094 C188.6719,865.5938 188.6719,865.5938 188.4844,865.6875 C188.0625,865.9531 187.375,866.0781 186.6094,866.0781 C184.5625,866.0781 183.2656,864.9844 183.2656,863.2813 L183.2656,862.1875 C183.2656,860.4063 184.5156,859.0938 186.25,859.0938 C186.8281,859.0938 187.4375,859.25 187.9063,859.5 C188.3906,859.7813 188.5625,860 188.6563,860.4063 C188.7188,860.8125 188.75,860.9375 188.8906,861.0625 C189.0313,861.2031 189.2656,861.3125 189.4844,861.3125 C189.75,861.3125 190.0156,861.1719 190.1875,860.9531 C190.2969,860.7969 190.3281,860.6094 190.3281,860.1875 L190.3281,858.7656 C190.3281,858.3281 190.3125,858.2031 190.2188,858.0469 C190.0625,857.7813 189.7813,857.6406 189.4844,857.6406 C189.1875,857.6406 188.9844,857.7344 188.7656,858.0469 L188.5938,857.9688 Z " fill="#000000"/><text fill="#000000" font-family="sans-serif" font-size="14" lengthAdjust="spacing" textLength="135" x="206.75" y="867.1436">UserRaidPointsDao</text><line style="stroke:#181818;stroke-width:0.5;" x1="71" x2="445" y1="878.2969" y2="878.2969"/><text fill="#000000" font-family="sans-serif" font-size="14" lengthAdjust="spacing" textLength="271" x="76" y="895.292">protected $database_connection_bo;</text><line style="stroke:#181818;stroke-width:0.5;" x1="71" x2="445" y1="902.5938" y2="902.5938"/><text fill="#000000" font-family="sans-serif" font-size="14" lengthAdjust="spacing" textLength="345" x="76" y="919.5889">function __construct($database_connection_bo)</text><text fill="#000000" font-family="sans-serif" font-size="14" lengthAdjust="spacing" textLength="117" x="76" y="935.8857">function getAll()</text><text fill="#000000" font-family="sans-serif" font-size="14" lengthAdjust="spacing" textLength="364" x="76" y="952.1826">function createUser_raid_point(array $parameters)</text><text fill="#000000" font-family="sans-serif" font-size="14" lengthAdjust="spacing" textLength="324" x="76" y="968.4795">function deleteUser_raid_point($parameters)</text></g><!--SRC=[pLP1Rjim4Bph5ImG86elUK1FIUoW1bmxK9EpiAOsDX69T9Sh1qAGlvUKeDQ6evXC3vOF0apEa3Epv4fVU8CLYfrQ4MXE4bPSehWjmLenKR0cg9Bawb9yY_abGiGHBg-IBSXdMBkjbuk7R3cVJpFnchY5FhDt_Ev2zFl_N4wcS_4gsdNwmGaOw-IqImlPXdCjDmftBZlDRhQVSnGoZ9An41S5CAp0OYwDrcvC6PslpFU_qATQjuCYzmZBL4jE1rXVZrcI41XJ8896N6p1bGePoVRGjmEzjwQgZ3wJr3NoetNIqa4RVZfznyGUiC0IXu67RfTK89tFx7LP3bjjjGsNxSXnXpzfEGDLZDInbnPXk8K7-Stm1MZChdDg5KQQxrb16VWBCUO4QllHQJ_qymjbJOgRyxQfUoVbnL3n0-pcfl4ZioBKmGFiaFH8wn5n33iV9pgoiXDbjoKq2uTvrEftZMbWGZF6QgGfTG9pvHH61zQn8Z8OTGVRynJVoDuXdypbVthPFjJaJo3PK3F6gnNmgQEi1osKVDOVtgmZohG2LGRXdI7Vtu9qE-nDCoj2iLx8N5c-CzGTWWpNxY-11wJ3bVUlY_D_Lf-gj5UQat-pmJ-jaUK_vWTT3H_GlL6QxUYpsNgPdqgbOmxcuPzlVm00]--></g></svg>