<?xml version="1.0" encoding="us-ascii" standalone="no"?><svg xmlns="http://www.w3.org/2000/svg" xmlns:xlink="http://www.w3.org/1999/xlink" contentStyleType="text/css" height="938px" preserveAspectRatio="none" style="width:1637px;height:938px;background:#FFFFFF;" version="1.1" viewBox="0 0 1637 938" width="1637px" zoomAndPan="magnify"><defs/><g><text fill="#000000" font-family="sans-serif" font-size="14" font-weight="bold" lengthAdjust="spacing" textLength="116" x="753.5" y="22.9951">Class Diagram</text><!--cluster CONTROLLER--><g id="cluster_CONTROLLER"><path d="M9.5,43.2969 L113.5,43.2969 A5.25,5.25 0 0 1 117,46.7969 L124,65.5938 L1626.5,65.5938 A3.5,3.5 0 0 1 1630,69.0938 L1630,927.7969 A3.5,3.5 0 0 1 1626.5,931.2969 L9.5,931.2969 A3.5,3.5 0 0 1 6,927.7969 L6,46.7969 A3.5,3.5 0 0 1 9.5,43.2969 " fill="none" style="stroke:#696969;stroke-width:1.0;"/><line style="stroke:#696969;stroke-width:1.0;" x1="6" x2="124" y1="65.5938" y2="65.5938"/><text fill="#000000" font-family="sans-serif" font-size="14" font-weight="bold" lengthAdjust="spacing" textLength="105" x="10" y="58.292">CONTROLLER</text></g><!--cluster MODEL--><g id="cluster_MODEL"><path d="M33.5,86.2969 L87.5,86.2969 A5.25,5.25 0 0 1 91,89.7969 L98,108.5938 L1602.5,108.5938 A3.5,3.5 0 0 1 1606,112.0938 L1606,903.7969 A3.5,3.5 0 0 1 1602.5,907.2969 L33.5,907.2969 A3.5,3.5 0 0 1 30,903.7969 L30,89.7969 A3.5,3.5 0 0 1 33.5,86.2969 " fill="none" style="stroke:#696969;stroke-width:1.0;"/><line style="stroke:#696969;stroke-width:1.0;" x1="30" x2="98" y1="108.5938" y2="108.5938"/><text fill="#000000" font-family="sans-serif" font-size="14" font-weight="bold" lengthAdjust="spacing" textLength="55" x="34" y="101.292">MODEL</text></g><!--cluster Dos--><g id="cluster_Dos"><path d="M57.5,129.2969 L86.5,129.2969 A5.25,5.25 0 0 1 90,132.7969 L97,151.5938 L1578.5,151.5938 A3.5,3.5 0 0 1 1582,155.0938 L1582,879.7969 A3.5,3.5 0 0 1 1578.5,883.2969 L57.5,883.2969 A3.5,3.5 0 0 1 54,879.7969 L54,132.7969 A3.5,3.5 0 0 1 57.5,129.2969 " fill="none" style="stroke:#696969;stroke-width:1.0;"/><line style="stroke:#696969;stroke-width:1.0;" x1="54" x2="97" y1="151.5938" y2="151.5938"/><text fill="#000000" font-family="sans-serif" font-size="14" font-weight="bold" lengthAdjust="spacing" textLength="30" x="58" y="144.292">Dos</text></g><!--class AchievementDao--><g id="elem_AchievementDao"><rect codeLine="13" fill="#F1F1F1" height="96.8906" id="AchievementDao" rx="3.5" ry="3.5" style="stroke:#181818;stroke-width:0.5;" width="194" x="659" y="261.7969"/><ellipse cx="691.1" cy="277.7969" fill="#ADD1B2" rx="11" ry="11" style="stroke:#181818;stroke-width:1.0;"/><path d="M693.4438,273.4688 C692.5063,273.0313 691.9125,272.8906 691.0375,272.8906 C688.4125,272.8906 686.4125,274.9688 686.4125,277.6875 L686.4125,278.8125 C686.4125,281.3906 688.5219,283.2813 691.4125,283.2813 C692.6313,283.2813 693.7875,282.9844 694.5375,282.4375 C695.1156,282.0313 695.4438,281.5781 695.4438,281.1875 C695.4438,280.7344 695.0531,280.3438 694.5844,280.3438 C694.3656,280.3438 694.1625,280.4219 693.975,280.6094 C693.5219,281.0938 693.5219,281.0938 693.3344,281.1875 C692.9125,281.4531 692.225,281.5781 691.4594,281.5781 C689.4125,281.5781 688.1156,280.4844 688.1156,278.7813 L688.1156,277.6875 C688.1156,275.9063 689.3656,274.5938 691.1,274.5938 C691.6781,274.5938 692.2875,274.75 692.7563,275 C693.2406,275.2813 693.4125,275.5 693.5063,275.9063 C693.5688,276.3125 693.6,276.4375 693.7406,276.5625 C693.8813,276.7031 694.1156,276.8125 694.3344,276.8125 C694.6,276.8125 694.8656,276.6719 695.0375,276.4531 C695.1469,276.2969 695.1781,276.1094 695.1781,275.6875 L695.1781,274.2656 C695.1781,273.8281 695.1625,273.7031 695.0688,273.5469 C694.9125,273.2813 694.6313,273.1406 694.3344,273.1406 C694.0375,273.1406 693.8344,273.2344 693.6156,273.5469 L693.4438,273.4688 Z " fill="#000000"/><text fill="#000000" font-family="sans-serif" font-size="14" lengthAdjust="spacing" textLength="124" x="708.9" y="282.6436">AchievementDao</text><line style="stroke:#181818;stroke-width:0.5;" x1="660" x2="852" y1="293.7969" y2="293.7969"/><text fill="#000000" font-family="sans-serif" font-size="14" lengthAdjust="spacing" textLength="92" x="665" y="310.792">public $title;</text><text fill="#000000" font-family="sans-serif" font-size="14" lengthAdjust="spacing" textLength="143" x="665" y="327.0889">public $description;</text><text fill="#000000" font-family="sans-serif" font-size="14" lengthAdjust="spacing" textLength="182" x="665" y="343.3857">public $image_file_name;</text><line style="stroke:#181818;stroke-width:0.5;" x1="660" x2="852" y1="350.6875" y2="350.6875"/></g><!--class OrderDao--><g id="elem_OrderDao"><rect codeLine="18" fill="#F1F1F1" height="96.8906" id="OrderDao" rx="3.5" ry="3.5" style="stroke:#181818;stroke-width:0.5;" width="181" x="888.5" y="261.7969"/><ellipse cx="940.25" cy="277.7969" fill="#ADD1B2" rx="11" ry="11" style="stroke:#181818;stroke-width:1.0;"/><path d="M942.5938,273.4688 C941.6563,273.0313 941.0625,272.8906 940.1875,272.8906 C937.5625,272.8906 935.5625,274.9688 935.5625,277.6875 L935.5625,278.8125 C935.5625,281.3906 937.6719,283.2813 940.5625,283.2813 C941.7813,283.2813 942.9375,282.9844 943.6875,282.4375 C944.2656,282.0313 944.5938,281.5781 944.5938,281.1875 C944.5938,280.7344 944.2031,280.3438 943.7344,280.3438 C943.5156,280.3438 943.3125,280.4219 943.125,280.6094 C942.6719,281.0938 942.6719,281.0938 942.4844,281.1875 C942.0625,281.4531 941.375,281.5781 940.6094,281.5781 C938.5625,281.5781 937.2656,280.4844 937.2656,278.7813 L937.2656,277.6875 C937.2656,275.9063 938.5156,274.5938 940.25,274.5938 C940.8281,274.5938 941.4375,274.75 941.9063,275 C942.3906,275.2813 942.5625,275.5 942.6563,275.9063 C942.7188,276.3125 942.75,276.4375 942.8906,276.5625 C943.0313,276.7031 943.2656,276.8125 943.4844,276.8125 C943.75,276.8125 944.0156,276.6719 944.1875,276.4531 C944.2969,276.2969 944.3281,276.1094 944.3281,275.6875 L944.3281,274.2656 C944.3281,273.8281 944.3125,273.7031 944.2188,273.5469 C944.0625,273.2813 943.7813,273.1406 943.4844,273.1406 C943.1875,273.1406 942.9844,273.2344 942.7656,273.5469 L942.5938,273.4688 Z " fill="#000000"/><text fill="#000000" font-family="sans-serif" font-size="14" lengthAdjust="spacing" textLength="69" x="960.75" y="282.6436">OrderDao</text><line style="stroke:#181818;stroke-width:0.5;" x1="889.5" x2="1068.5" y1="293.7969" y2="293.7969"/><text fill="#000000" font-family="sans-serif" font-size="14" lengthAdjust="spacing" textLength="169" x="894.5" y="310.792">public $tavern_item_id;</text><text fill="#000000" font-family="sans-serif" font-size="14" lengthAdjust="spacing" textLength="111" x="894.5" y="327.0889">public $user_id;</text><text fill="#000000" font-family="sans-serif" font-size="14" lengthAdjust="spacing" textLength="105" x="894.5" y="343.3857">public $status;</text><line style="stroke:#181818;stroke-width:0.5;" x1="889.5" x2="1068.5" y1="350.6875" y2="350.6875"/></g><!--class RaidDo--><g id="elem_RaidDo"><rect codeLine="23" fill="#F1F1F1" height="129.4844" id="RaidDo" rx="3.5" ry="3.5" style="stroke:#181818;stroke-width:0.5;" width="188" x="1105" y="245.7969"/><ellipse cx="1169.25" cy="261.7969" fill="#ADD1B2" rx="11" ry="11" style="stroke:#181818;stroke-width:1.0;"/><path d="M1171.5938,257.4688 C1170.6563,257.0313 1170.0625,256.8906 1169.1875,256.8906 C1166.5625,256.8906 1164.5625,258.9688 1164.5625,261.6875 L1164.5625,262.8125 C1164.5625,265.3906 1166.6719,267.2813 1169.5625,267.2813 C1170.7813,267.2813 1171.9375,266.9844 1172.6875,266.4375 C1173.2656,266.0313 1173.5938,265.5781 1173.5938,265.1875 C1173.5938,264.7344 1173.2031,264.3438 1172.7344,264.3438 C1172.5156,264.3438 1172.3125,264.4219 1172.125,264.6094 C1171.6719,265.0938 1171.6719,265.0938 1171.4844,265.1875 C1171.0625,265.4531 1170.375,265.5781 1169.6094,265.5781 C1167.5625,265.5781 1166.2656,264.4844 1166.2656,262.7813 L1166.2656,261.6875 C1166.2656,259.9063 1167.5156,258.5938 1169.25,258.5938 C1169.8281,258.5938 1170.4375,258.75 1170.9063,259 C1171.3906,259.2813 1171.5625,259.5 1171.6563,259.9063 C1171.7188,260.3125 1171.75,260.4375 1171.8906,260.5625 C1172.0313,260.7031 1172.2656,260.8125 1172.4844,260.8125 C1172.75,260.8125 1173.0156,260.6719 1173.1875,260.4531 C1173.2969,260.2969 1173.3281,260.1094 1173.3281,259.6875 L1173.3281,258.2656 C1173.3281,257.8281 1173.3125,257.7031 1173.2188,257.5469 C1173.0625,257.2813 1172.7813,257.1406 1172.4844,257.1406 C1172.1875,257.1406 1171.9844,257.2344 1171.7656,257.5469 L1171.5938,257.4688 Z " fill="#000000"/><text fill="#000000" font-family="sans-serif" font-size="14" lengthAdjust="spacing" textLength="51" x="1189.75" y="266.6436">RaidDo</text><line style="stroke:#181818;stroke-width:0.5;" x1="1106" x2="1292" y1="277.7969" y2="277.7969"/><text fill="#000000" font-family="sans-serif" font-size="14" lengthAdjust="spacing" textLength="128" x="1111" y="294.792">public $tavern_id;</text><text fill="#000000" font-family="sans-serif" font-size="14" lengthAdjust="spacing" textLength="170" x="1111" y="311.0889">public $from_datetime;</text><text fill="#000000" font-family="sans-serif" font-size="14" lengthAdjust="spacing" textLength="151" x="1111" y="327.3857">public $to_datetime;</text><text fill="#000000" font-family="sans-serif" font-size="14" lengthAdjust="spacing" textLength="176" x="1111" y="343.6826">public $number_of_user;</text><text fill="#000000" font-family="sans-serif" font-size="14" lengthAdjust="spacing" textLength="143" x="1111" y="359.9795">public $description;</text><line style="stroke:#181818;stroke-width:0.5;" x1="1106" x2="1292" y1="367.2813" y2="367.2813"/></g><!--class RaidRewardDo--><g id="elem_RaidRewardDo"><rect codeLine="30" fill="#F1F1F1" height="80.5938" id="RaidRewardDo" rx="3.5" ry="3.5" style="stroke:#181818;stroke-width:0.5;" width="237" x="1328.5" y="269.7969"/><ellipse cx="1390.75" cy="285.7969" fill="#ADD1B2" rx="11" ry="11" style="stroke:#181818;stroke-width:1.0;"/><path d="M1393.0938,281.4688 C1392.1563,281.0313 1391.5625,280.8906 1390.6875,280.8906 C1388.0625,280.8906 1386.0625,282.9688 1386.0625,285.6875 L1386.0625,286.8125 C1386.0625,289.3906 1388.1719,291.2813 1391.0625,291.2813 C1392.2813,291.2813 1393.4375,290.9844 1394.1875,290.4375 C1394.7656,290.0313 1395.0938,289.5781 1395.0938,289.1875 C1395.0938,288.7344 1394.7031,288.3438 1394.2344,288.3438 C1394.0156,288.3438 1393.8125,288.4219 1393.625,288.6094 C1393.1719,289.0938 1393.1719,289.0938 1392.9844,289.1875 C1392.5625,289.4531 1391.875,289.5781 1391.1094,289.5781 C1389.0625,289.5781 1387.7656,288.4844 1387.7656,286.7813 L1387.7656,285.6875 C1387.7656,283.9063 1389.0156,282.5938 1390.75,282.5938 C1391.3281,282.5938 1391.9375,282.75 1392.4063,283 C1392.8906,283.2813 1393.0625,283.5 1393.1563,283.9063 C1393.2188,284.3125 1393.25,284.4375 1393.3906,284.5625 C1393.5313,284.7031 1393.7656,284.8125 1393.9844,284.8125 C1394.25,284.8125 1394.5156,284.6719 1394.6875,284.4531 C1394.7969,284.2969 1394.8281,284.1094 1394.8281,283.6875 L1394.8281,282.2656 C1394.8281,281.8281 1394.8125,281.7031 1394.7188,281.5469 C1394.5625,281.2813 1394.2813,281.1406 1393.9844,281.1406 C1393.6875,281.1406 1393.4844,281.2344 1393.2656,281.5469 L1393.0938,281.4688 Z " fill="#000000"/><text fill="#000000" font-family="sans-serif" font-size="14" lengthAdjust="spacing" textLength="104" x="1411.25" y="290.6436">RaidRewardDo</text><line style="stroke:#181818;stroke-width:0.5;" x1="1329.5" x2="1564.5" y1="301.7969" y2="301.7969"/><text fill="#000000" font-family="sans-serif" font-size="14" lengthAdjust="spacing" textLength="108" x="1334.5" y="318.792">public $raid_id;</text><text fill="#000000" font-family="sans-serif" font-size="14" lengthAdjust="spacing" textLength="225" x="1334.5" y="335.0889">public $tavern_item_reward_id;</text><line style="stroke:#181818;stroke-width:0.5;" x1="1329.5" x2="1564.5" y1="342.3906" y2="342.3906"/></g><!--class RaidUserDo--><g id="elem_RaidUserDo"><rect codeLine="34" fill="#F1F1F1" height="80.5938" id="RaidUserDo" rx="3.5" ry="3.5" style="stroke:#181818;stroke-width:0.5;" width="123" x="694.5" y="540.2969"/><ellipse cx="713.55" cy="556.2969" fill="#ADD1B2" rx="11" ry="11" style="stroke:#181818;stroke-width:1.0;"/><path d="M715.8938,551.9688 C714.9563,551.5313 714.3625,551.3906 713.4875,551.3906 C710.8625,551.3906 708.8625,553.4688 708.8625,556.1875 L708.8625,557.3125 C708.8625,559.8906 710.9719,561.7813 713.8625,561.7813 C715.0813,561.7813 716.2375,561.4844 716.9875,560.9375 C717.5656,560.5313 717.8938,560.0781 717.8938,559.6875 C717.8938,559.2344 717.5031,558.8438 717.0344,558.8438 C716.8156,558.8438 716.6125,558.9219 716.425,559.1094 C715.9719,559.5938 715.9719,559.5938 715.7844,559.6875 C715.3625,559.9531 714.675,560.0781 713.9094,560.0781 C711.8625,560.0781 710.5656,558.9844 710.5656,557.2813 L710.5656,556.1875 C710.5656,554.4063 711.8156,553.0938 713.55,553.0938 C714.1281,553.0938 714.7375,553.25 715.2063,553.5 C715.6906,553.7813 715.8625,554 715.9563,554.4063 C716.0188,554.8125 716.05,554.9375 716.1906,555.0625 C716.3313,555.2031 716.5656,555.3125 716.7844,555.3125 C717.05,555.3125 717.3156,555.1719 717.4875,554.9531 C717.5969,554.7969 717.6281,554.6094 717.6281,554.1875 L717.6281,552.7656 C717.6281,552.3281 717.6125,552.2031 717.5188,552.0469 C717.3625,551.7813 717.0813,551.6406 716.7844,551.6406 C716.4875,551.6406 716.2844,551.7344 716.0656,552.0469 L715.8938,551.9688 Z " fill="#000000"/><text fill="#000000" font-family="sans-serif" font-size="14" lengthAdjust="spacing" textLength="82" x="728.45" y="561.1436">RaidUserDo</text><line style="stroke:#181818;stroke-width:0.5;" x1="695.5" x2="816.5" y1="572.2969" y2="572.2969"/><text fill="#000000" font-family="sans-serif" font-size="14" lengthAdjust="spacing" textLength="111" x="700.5" y="589.292">public $user_id;</text><text fill="#000000" font-family="sans-serif" font-size="14" lengthAdjust="spacing" textLength="108" x="700.5" y="605.5889">public $raid_id;</text><line style="stroke:#181818;stroke-width:0.5;" x1="695.5" x2="816.5" y1="612.8906" y2="612.8906"/></g><!--class TavernDo--><g id="elem_TavernDo"><rect codeLine="107" fill="#F1F1F1" height="292.4531" id="TavernDo" rx="3.5" ry="3.5" style="stroke:#181818;stroke-width:0.5;" width="243" x="380.5" y="164.2969"/><ellipse cx="463.25" cy="180.2969" fill="#ADD1B2" rx="11" ry="11" style="stroke:#181818;stroke-width:1.0;"/><path d="M465.5938,175.9688 C464.6563,175.5313 464.0625,175.3906 463.1875,175.3906 C460.5625,175.3906 458.5625,177.4688 458.5625,180.1875 L458.5625,181.3125 C458.5625,183.8906 460.6719,185.7813 463.5625,185.7813 C464.7813,185.7813 465.9375,185.4844 466.6875,184.9375 C467.2656,184.5313 467.5938,184.0781 467.5938,183.6875 C467.5938,183.2344 467.2031,182.8438 466.7344,182.8438 C466.5156,182.8438 466.3125,182.9219 466.125,183.1094 C465.6719,183.5938 465.6719,183.5938 465.4844,183.6875 C465.0625,183.9531 464.375,184.0781 463.6094,184.0781 C461.5625,184.0781 460.2656,182.9844 460.2656,181.2813 L460.2656,180.1875 C460.2656,178.4063 461.5156,177.0938 463.25,177.0938 C463.8281,177.0938 464.4375,177.25 464.9063,177.5 C465.3906,177.7813 465.5625,178 465.6563,178.4063 C465.7188,178.8125 465.75,178.9375 465.8906,179.0625 C466.0313,179.2031 466.2656,179.3125 466.4844,179.3125 C466.75,179.3125 467.0156,179.1719 467.1875,178.9531 C467.2969,178.7969 467.3281,178.6094 467.3281,178.1875 L467.3281,176.7656 C467.3281,176.3281 467.3125,176.2031 467.2188,176.0469 C467.0625,175.7813 466.7813,175.6406 466.4844,175.6406 C466.1875,175.6406 465.9844,175.7344 465.7656,176.0469 L465.5938,175.9688 Z " fill="#000000"/><text fill="#000000" font-family="sans-serif" font-size="14" lengthAdjust="spacing" textLength="69" x="483.75" y="185.1436">TavernDo</text><line style="stroke:#181818;stroke-width:0.5;" x1="381.5" x2="622.5" y1="196.2969" y2="196.2969"/><text fill="#000000" font-family="sans-serif" font-size="14" lengthAdjust="spacing" textLength="158" x="386.5" y="213.292">public $display_name;</text><text fill="#000000" font-family="sans-serif" font-size="14" lengthAdjust="spacing" textLength="174" x="386.5" y="229.5889">public $comapny_name;</text><text fill="#000000" font-family="sans-serif" font-size="14" lengthAdjust="spacing" textLength="178" x="386.5" y="245.8857">public $address_country;</text><text fill="#000000" font-family="sans-serif" font-size="14" lengthAdjust="spacing" textLength="150" x="386.5" y="262.1826">public $address_city;</text><text fill="#000000" font-family="sans-serif" font-size="14" lengthAdjust="spacing" textLength="210" x="386.5" y="278.4795">public $address_postal_code;</text><text fill="#000000" font-family="sans-serif" font-size="14" lengthAdjust="spacing" textLength="215" x="386.5" y="294.7764">public $address_street_name;</text><text fill="#000000" font-family="sans-serif" font-size="14" lengthAdjust="spacing" textLength="231" x="386.5" y="311.0732">public $address_street_number;</text><text fill="#000000" font-family="sans-serif" font-size="14" lengthAdjust="spacing" textLength="179" x="386.5" y="327.3701">public $address_latitude;</text><text fill="#000000" font-family="sans-serif" font-size="14" lengthAdjust="spacing" textLength="191" x="386.5" y="343.667">public $address_longitude;</text><text fill="#000000" font-family="sans-serif" font-size="14" lengthAdjust="spacing" textLength="170" x="386.5" y="359.9639">public $phone_number;</text><text fill="#000000" font-family="sans-serif" font-size="14" lengthAdjust="spacing" textLength="100" x="386.5" y="376.2607">public $email;</text><text fill="#000000" font-family="sans-serif" font-size="14" lengthAdjust="spacing" textLength="143" x="386.5" y="392.5576">public $website_url;</text><text fill="#000000" font-family="sans-serif" font-size="14" lengthAdjust="spacing" textLength="154" x="386.5" y="408.8545">public $facebook_url;</text><text fill="#000000" font-family="sans-serif" font-size="14" lengthAdjust="spacing" textLength="162" x="386.5" y="425.1514">public $owner_user_id;</text><text fill="#000000" font-family="sans-serif" font-size="14" lengthAdjust="spacing" textLength="216" x="386.5" y="441.4482">public $administrator_user_id;</text><line style="stroke:#181818;stroke-width:0.5;" x1="381.5" x2="622.5" y1="448.75" y2="448.75"/></g><!--class TavernItemDo--><g id="elem_TavernItemDo"><rect codeLine="55" fill="#F1F1F1" height="96.8906" id="TavernItemDo" rx="3.5" ry="3.5" style="stroke:#181818;stroke-width:0.5;" width="154" x="853" y="532.2969"/><ellipse cx="876.55" cy="548.2969" fill="#ADD1B2" rx="11" ry="11" style="stroke:#181818;stroke-width:1.0;"/><path d="M878.8938,543.9688 C877.9563,543.5313 877.3625,543.3906 876.4875,543.3906 C873.8625,543.3906 871.8625,545.4688 871.8625,548.1875 L871.8625,549.3125 C871.8625,551.8906 873.9719,553.7813 876.8625,553.7813 C878.0813,553.7813 879.2375,553.4844 879.9875,552.9375 C880.5656,552.5313 880.8938,552.0781 880.8938,551.6875 C880.8938,551.2344 880.5031,550.8438 880.0344,550.8438 C879.8156,550.8438 879.6125,550.9219 879.425,551.1094 C878.9719,551.5938 878.9719,551.5938 878.7844,551.6875 C878.3625,551.9531 877.675,552.0781 876.9094,552.0781 C874.8625,552.0781 873.5656,550.9844 873.5656,549.2813 L873.5656,548.1875 C873.5656,546.4063 874.8156,545.0938 876.55,545.0938 C877.1281,545.0938 877.7375,545.25 878.2063,545.5 C878.6906,545.7813 878.8625,546 878.9563,546.4063 C879.0188,546.8125 879.05,546.9375 879.1906,547.0625 C879.3313,547.2031 879.5656,547.3125 879.7844,547.3125 C880.05,547.3125 880.3156,547.1719 880.4875,546.9531 C880.5969,546.7969 880.6281,546.6094 880.6281,546.1875 L880.6281,544.7656 C880.6281,544.3281 880.6125,544.2031 880.5188,544.0469 C880.3625,543.7813 880.0813,543.6406 879.7844,543.6406 C879.4875,543.6406 879.2844,543.7344 879.0656,544.0469 L878.8938,543.9688 Z " fill="#000000"/><text fill="#000000" font-family="sans-serif" font-size="14" lengthAdjust="spacing" textLength="103" x="892.45" y="553.1436">TavernItemDo</text><line style="stroke:#181818;stroke-width:0.5;" x1="854" x2="1006" y1="564.2969" y2="564.2969"/><text fill="#000000" font-family="sans-serif" font-size="14" lengthAdjust="spacing" textLength="128" x="859" y="581.292">public $tavern_id;</text><text fill="#000000" font-family="sans-serif" font-size="14" lengthAdjust="spacing" textLength="142" x="859" y="597.5889">public $item_name;</text><text fill="#000000" font-family="sans-serif" font-size="14" lengthAdjust="spacing" textLength="139" x="859" y="613.8857">public $item_price;</text><line style="stroke:#181818;stroke-width:0.5;" x1="854" x2="1006" y1="621.1875" y2="621.1875"/></g><!--class TavernItemRewardDo--><g id="elem_TavernItemRewardDo"><rect codeLine="60" fill="#F1F1F1" height="80.5938" id="TavernItemRewardDo" rx="3.5" ry="3.5" style="stroke:#181818;stroke-width:0.5;" width="188" x="1042" y="540.2969"/><ellipse cx="1057" cy="556.2969" fill="#ADD1B2" rx="11" ry="11" style="stroke:#181818;stroke-width:1.0;"/><path d="M1059.3438,551.9688 C1058.4063,551.5313 1057.8125,551.3906 1056.9375,551.3906 C1054.3125,551.3906 1052.3125,553.4688 1052.3125,556.1875 L1052.3125,557.3125 C1052.3125,559.8906 1054.4219,561.7813 1057.3125,561.7813 C1058.5313,561.7813 1059.6875,561.4844 1060.4375,560.9375 C1061.0156,560.5313 1061.3438,560.0781 1061.3438,559.6875 C1061.3438,559.2344 1060.9531,558.8438 1060.4844,558.8438 C1060.2656,558.8438 1060.0625,558.9219 1059.875,559.1094 C1059.4219,559.5938 1059.4219,559.5938 1059.2344,559.6875 C1058.8125,559.9531 1058.125,560.0781 1057.3594,560.0781 C1055.3125,560.0781 1054.0156,558.9844 1054.0156,557.2813 L1054.0156,556.1875 C1054.0156,554.4063 1055.2656,553.0938 1057,553.0938 C1057.5781,553.0938 1058.1875,553.25 1058.6563,553.5 C1059.1406,553.7813 1059.3125,554 1059.4063,554.4063 C1059.4688,554.8125 1059.5,554.9375 1059.6406,555.0625 C1059.7813,555.2031 1060.0156,555.3125 1060.2344,555.3125 C1060.5,555.3125 1060.7656,555.1719 1060.9375,554.9531 C1061.0469,554.7969 1061.0781,554.6094 1061.0781,554.1875 L1061.0781,552.7656 C1061.0781,552.3281 1061.0625,552.2031 1060.9688,552.0469 C1060.8125,551.7813 1060.5313,551.6406 1060.2344,551.6406 C1059.9375,551.6406 1059.7344,551.7344 1059.5156,552.0469 L1059.3438,551.9688 Z " fill="#000000"/><text fill="#000000" font-family="sans-serif" font-size="14" lengthAdjust="spacing" textLength="156" x="1071" y="561.1436">TavernItemRewardDo</text><line style="stroke:#181818;stroke-width:0.5;" x1="1043" x2="1229" y1="572.2969" y2="572.2969"/><text fill="#000000" font-family="sans-serif" font-size="14" lengthAdjust="spacing" textLength="128" x="1048" y="589.292">public $tavern_id;</text><text fill="#000000" font-family="sans-serif" font-size="14" lengthAdjust="spacing" textLength="142" x="1048" y="605.5889">public $item_name;</text><line style="stroke:#181818;stroke-width:0.5;" x1="1043" x2="1229" y1="612.8906" y2="612.8906"/></g><!--class TavernraidAbstractDo--><g id="elem_TavernraidAbstractDo"><rect codeLine="64" fill="#F1F1F1" height="129.4844" id="TavernraidAbstractDo" rx="3.5" ry="3.5" style="stroke:#181818;stroke-width:0.5;" width="294" x="1265" y="516.2969"/><ellipse cx="1328.25" cy="532.2969" fill="#ADD1B2" rx="11" ry="11" style="stroke:#181818;stroke-width:1.0;"/><path d="M1330.5938,527.9688 C1329.6563,527.5313 1329.0625,527.3906 1328.1875,527.3906 C1325.5625,527.3906 1323.5625,529.4688 1323.5625,532.1875 L1323.5625,533.3125 C1323.5625,535.8906 1325.6719,537.7813 1328.5625,537.7813 C1329.7813,537.7813 1330.9375,537.4844 1331.6875,536.9375 C1332.2656,536.5313 1332.5938,536.0781 1332.5938,535.6875 C1332.5938,535.2344 1332.2031,534.8438 1331.7344,534.8438 C1331.5156,534.8438 1331.3125,534.9219 1331.125,535.1094 C1330.6719,535.5938 1330.6719,535.5938 1330.4844,535.6875 C1330.0625,535.9531 1329.375,536.0781 1328.6094,536.0781 C1326.5625,536.0781 1325.2656,534.9844 1325.2656,533.2813 L1325.2656,532.1875 C1325.2656,530.4063 1326.5156,529.0938 1328.25,529.0938 C1328.8281,529.0938 1329.4375,529.25 1329.9063,529.5 C1330.3906,529.7813 1330.5625,530 1330.6563,530.4063 C1330.7188,530.8125 1330.75,530.9375 1330.8906,531.0625 C1331.0313,531.2031 1331.2656,531.3125 1331.4844,531.3125 C1331.75,531.3125 1332.0156,531.1719 1332.1875,530.9531 C1332.2969,530.7969 1332.3281,530.6094 1332.3281,530.1875 L1332.3281,528.7656 C1332.3281,528.3281 1332.3125,528.2031 1332.2188,528.0469 C1332.0625,527.7813 1331.7813,527.6406 1331.4844,527.6406 C1331.1875,527.6406 1330.9844,527.7344 1330.7656,528.0469 L1330.5938,527.9688 Z " fill="#000000"/><text fill="#000000" font-family="sans-serif" font-size="14" lengthAdjust="spacing" textLength="159" x="1348.75" y="537.1436">TavernraidAbstractDo</text><line style="stroke:#181818;stroke-width:0.5;" x1="1266" x2="1558" y1="548.2969" y2="548.2969"/><text fill="#000000" font-family="sans-serif" font-size="14" lengthAdjust="spacing" textLength="74" x="1271" y="565.292">public $id;</text><text fill="#000000" font-family="sans-serif" font-size="14" lengthAdjust="spacing" textLength="123" x="1271" y="581.5889">public $is_active;</text><text fill="#000000" font-family="sans-serif" font-size="14" lengthAdjust="spacing" textLength="139" x="1271" y="597.8857">public $created_at;</text><text fill="#000000" font-family="sans-serif" font-size="14" lengthAdjust="spacing" textLength="143" x="1271" y="614.1826">public $updated_at;</text><line style="stroke:#181818;stroke-width:0.5;" x1="1266" x2="1558" y1="621.4844" y2="621.4844"/><text fill="#000000" font-family="sans-serif" font-size="14" lengthAdjust="spacing" textLength="282" x="1271" y="638.4795">function __construct($attributes = null)</text></g><!--class UserDo--><g id="elem_UserDo"><rect codeLine="105" fill="#F1F1F1" height="194.6719" id="UserDo" rx="3.5" ry="3.5" style="stroke:#181818;stroke-width:0.5;" width="275" x="70.5" y="212.7969"/><ellipse cx="178.25" cy="228.7969" fill="#ADD1B2" rx="11" ry="11" style="stroke:#181818;stroke-width:1.0;"/><path d="M180.5938,224.4688 C179.6563,224.0313 179.0625,223.8906 178.1875,223.8906 C175.5625,223.8906 173.5625,225.9688 173.5625,228.6875 L173.5625,229.8125 C173.5625,232.3906 175.6719,234.2813 178.5625,234.2813 C179.7813,234.2813 180.9375,233.9844 181.6875,233.4375 C182.2656,233.0313 182.5938,232.5781 182.5938,232.1875 C182.5938,231.7344 182.2031,231.3438 181.7344,231.3438 C181.5156,231.3438 181.3125,231.4219 181.125,231.6094 C180.6719,232.0938 180.6719,232.0938 180.4844,232.1875 C180.0625,232.4531 179.375,232.5781 178.6094,232.5781 C176.5625,232.5781 175.2656,231.4844 175.2656,229.7813 L175.2656,228.6875 C175.2656,226.9063 176.5156,225.5938 178.25,225.5938 C178.8281,225.5938 179.4375,225.75 179.9063,226 C180.3906,226.2813 180.5625,226.5 180.6563,226.9063 C180.7188,227.3125 180.75,227.4375 180.8906,227.5625 C181.0313,227.7031 181.2656,227.8125 181.4844,227.8125 C181.75,227.8125 182.0156,227.6719 182.1875,227.4531 C182.2969,227.2969 182.3281,227.1094 182.3281,226.6875 L182.3281,225.2656 C182.3281,224.8281 182.3125,224.7031 182.2188,224.5469 C182.0625,224.2813 181.7813,224.1406 181.4844,224.1406 C181.1875,224.1406 180.9844,224.2344 180.7656,224.5469 L180.5938,224.4688 Z " fill="#000000"/><text fill="#000000" font-family="sans-serif" font-size="14" lengthAdjust="spacing" textLength="51" x="198.75" y="233.6436">UserDo</text><line style="stroke:#181818;stroke-width:0.5;" x1="71.5" x2="344.5" y1="244.7969" y2="244.7969"/><text fill="#000000" font-family="sans-serif" font-size="14" lengthAdjust="spacing" textLength="138" x="76.5" y="261.792">public $nick_name;</text><text fill="#000000" font-family="sans-serif" font-size="14" lengthAdjust="spacing" textLength="100" x="76.5" y="278.0889">public $email;</text><text fill="#000000" font-family="sans-serif" font-size="14" lengthAdjust="spacing" textLength="128" x="76.5" y="294.3857">public $password;</text><text fill="#000000" font-family="sans-serif" font-size="14" lengthAdjust="spacing" textLength="173" x="76.5" y="310.6826">public $password_again;</text><text fill="#000000" font-family="sans-serif" font-size="14" lengthAdjust="spacing" textLength="168" x="76.5" y="326.9795">public $password_hash;</text><text fill="#000000" font-family="sans-serif" font-size="14" lengthAdjust="spacing" textLength="144" x="76.5" y="343.2764">public $birthday_at;</text><text fill="#000000" font-family="sans-serif" font-size="14" lengthAdjust="spacing" textLength="263" x="76.5" y="359.5732">public $is_above_legal_drinking_age;</text><text fill="#000000" font-family="sans-serif" font-size="14" lengthAdjust="spacing" textLength="177" x="76.5" y="375.8701">public $is_administrator;</text><line style="stroke:#181818;stroke-width:0.5;" x1="71.5" x2="344.5" y1="383.1719" y2="383.1719"/><text fill="#000000" font-family="sans-serif" font-size="14" lengthAdjust="spacing" textLength="253" x="76.5" y="400.167">public function getAttributeArray()</text></g><!--class UserRaidAchievementDo--><g id="elem_UserRaidAchievementDo"><rect codeLine="82" fill="#F1F1F1" height="96.8906" id="UserRaidAchievementDo" rx="3.5" ry="3.5" style="stroke:#181818;stroke-width:0.5;" width="210" x="651" y="737.7969"/><ellipse cx="666" cy="753.7969" fill="#ADD1B2" rx="11" ry="11" style="stroke:#181818;stroke-width:1.0;"/><path d="M668.3438,749.4688 C667.4063,749.0313 666.8125,748.8906 665.9375,748.8906 C663.3125,748.8906 661.3125,750.9688 661.3125,753.6875 L661.3125,754.8125 C661.3125,757.3906 663.4219,759.2813 666.3125,759.2813 C667.5313,759.2813 668.6875,758.9844 669.4375,758.4375 C670.0156,758.0313 670.3438,757.5781 670.3438,757.1875 C670.3438,756.7344 669.9531,756.3438 669.4844,756.3438 C669.2656,756.3438 669.0625,756.4219 668.875,756.6094 C668.4219,757.0938 668.4219,757.0938 668.2344,757.1875 C667.8125,757.4531 667.125,757.5781 666.3594,757.5781 C664.3125,757.5781 663.0156,756.4844 663.0156,754.7813 L663.0156,753.6875 C663.0156,751.9063 664.2656,750.5938 666,750.5938 C666.5781,750.5938 667.1875,750.75 667.6563,751 C668.1406,751.2813 668.3125,751.5 668.4063,751.9063 C668.4688,752.3125 668.5,752.4375 668.6406,752.5625 C668.7813,752.7031 669.0156,752.8125 669.2344,752.8125 C669.5,752.8125 669.7656,752.6719 669.9375,752.4531 C670.0469,752.2969 670.0781,752.1094 670.0781,751.6875 L670.0781,750.2656 C670.0781,749.8281 670.0625,749.7031 669.9688,749.5469 C669.8125,749.2813 669.5313,749.1406 669.2344,749.1406 C668.9375,749.1406 668.7344,749.2344 668.5156,749.5469 L668.3438,749.4688 Z " fill="#000000"/><text fill="#000000" font-family="sans-serif" font-size="14" lengthAdjust="spacing" textLength="178" x="680" y="758.6436">UserRaidAchievementDo</text><line style="stroke:#181818;stroke-width:0.5;" x1="652" x2="860" y1="769.7969" y2="769.7969"/><text fill="#000000" font-family="sans-serif" font-size="14" lengthAdjust="spacing" textLength="175" x="657" y="786.792">public $achievement_id;</text><text fill="#000000" font-family="sans-serif" font-size="14" lengthAdjust="spacing" textLength="111" x="657" y="803.0889">public $user_id;</text><text fill="#000000" font-family="sans-serif" font-size="14" lengthAdjust="spacing" textLength="108" x="657" y="819.3857">public $raid_id;</text><line style="stroke:#181818;stroke-width:0.5;" x1="652" x2="860" y1="826.6875" y2="826.6875"/></g><!--class UserRaidPointsDo--><g id="elem_UserRaidPointsDo"><rect codeLine="87" fill="#F1F1F1" height="96.8906" id="UserRaidPointsDo" rx="3.5" ry="3.5" style="stroke:#181818;stroke-width:0.5;" width="159" x="896.5" y="737.7969"/><ellipse cx="911.5" cy="753.7969" fill="#ADD1B2" rx="11" ry="11" style="stroke:#181818;stroke-width:1.0;"/><path d="M913.8438,749.4688 C912.9063,749.0313 912.3125,748.8906 911.4375,748.8906 C908.8125,748.8906 906.8125,750.9688 906.8125,753.6875 L906.8125,754.8125 C906.8125,757.3906 908.9219,759.2813 911.8125,759.2813 C913.0313,759.2813 914.1875,758.9844 914.9375,758.4375 C915.5156,758.0313 915.8438,757.5781 915.8438,757.1875 C915.8438,756.7344 915.4531,756.3438 914.9844,756.3438 C914.7656,756.3438 914.5625,756.4219 914.375,756.6094 C913.9219,757.0938 913.9219,757.0938 913.7344,757.1875 C913.3125,757.4531 912.625,757.5781 911.8594,757.5781 C909.8125,757.5781 908.5156,756.4844 908.5156,754.7813 L908.5156,753.6875 C908.5156,751.9063 909.7656,750.5938 911.5,750.5938 C912.0781,750.5938 912.6875,750.75 913.1563,751 C913.6406,751.2813 913.8125,751.5 913.9063,751.9063 C913.9688,752.3125 914,752.4375 914.1406,752.5625 C914.2813,752.7031 914.5156,752.8125 914.7344,752.8125 C915,752.8125 915.2656,752.6719 915.4375,752.4531 C915.5469,752.2969 915.5781,752.1094 915.5781,751.6875 L915.5781,750.2656 C915.5781,749.8281 915.5625,749.7031 915.4688,749.5469 C915.3125,749.2813 915.0313,749.1406 914.7344,749.1406 C914.4375,749.1406 914.2344,749.2344 914.0156,749.5469 L913.8438,749.4688 Z " fill="#000000"/><text fill="#000000" font-family="sans-serif" font-size="14" lengthAdjust="spacing" textLength="127" x="925.5" y="758.6436">UserRaidPointsDo</text><line style="stroke:#181818;stroke-width:0.5;" x1="897.5" x2="1054.5" y1="769.7969" y2="769.7969"/><text fill="#000000" font-family="sans-serif" font-size="14" lengthAdjust="spacing" textLength="108" x="902.5" y="786.792">public $raid_id;</text><text fill="#000000" font-family="sans-serif" font-size="14" lengthAdjust="spacing" textLength="111" x="902.5" y="803.0889">public $user_id;</text><text fill="#000000" font-family="sans-serif" font-size="14" lengthAdjust="spacing" textLength="144" x="902.5" y="819.3857">public $point_value;</text><line style="stroke:#181818;stroke-width:0.5;" x1="897.5" x2="1054.5" y1="826.6875" y2="826.6875"/></g><!--class ViewDo--><g id="elem_ViewDo"><rect codeLine="92" fill="#F1F1F1" height="162.0781" id="ViewDo" rx="3.5" ry="3.5" style="stroke:#181818;stroke-width:0.5;" width="344" x="1091" y="705.2969"/><ellipse cx="1231.75" cy="721.2969" fill="#ADD1B2" rx="11" ry="11" style="stroke:#181818;stroke-width:1.0;"/><path d="M1234.0938,716.9688 C1233.1563,716.5313 1232.5625,716.3906 1231.6875,716.3906 C1229.0625,716.3906 1227.0625,718.4688 1227.0625,721.1875 L1227.0625,722.3125 C1227.0625,724.8906 1229.1719,726.7813 1232.0625,726.7813 C1233.2813,726.7813 1234.4375,726.4844 1235.1875,725.9375 C1235.7656,725.5313 1236.0938,725.0781 1236.0938,724.6875 C1236.0938,724.2344 1235.7031,723.8438 1235.2344,723.8438 C1235.0156,723.8438 1234.8125,723.9219 1234.625,724.1094 C1234.1719,724.5938 1234.1719,724.5938 1233.9844,724.6875 C1233.5625,724.9531 1232.875,725.0781 1232.1094,725.0781 C1230.0625,725.0781 1228.7656,723.9844 1228.7656,722.2813 L1228.7656,721.1875 C1228.7656,719.4063 1230.0156,718.0938 1231.75,718.0938 C1232.3281,718.0938 1232.9375,718.25 1233.4063,718.5 C1233.8906,718.7813 1234.0625,719 1234.1563,719.4063 C1234.2188,719.8125 1234.25,719.9375 1234.3906,720.0625 C1234.5313,720.2031 1234.7656,720.3125 1234.9844,720.3125 C1235.25,720.3125 1235.5156,720.1719 1235.6875,719.9531 C1235.7969,719.7969 1235.8281,719.6094 1235.8281,719.1875 L1235.8281,717.7656 C1235.8281,717.3281 1235.8125,717.2031 1235.7188,717.0469 C1235.5625,716.7813 1235.2813,716.6406 1234.9844,716.6406 C1234.6875,716.6406 1234.4844,716.7344 1234.2656,717.0469 L1234.0938,716.9688 Z " fill="#000000"/><text fill="#000000" font-family="sans-serif" font-size="14" lengthAdjust="spacing" textLength="54" x="1252.25" y="726.1436">ViewDo</text><line style="stroke:#181818;stroke-width:0.5;" x1="1092" x2="1434" y1="737.2969" y2="737.2969"/><text fill="#000000" font-family="sans-serif" font-size="14" lengthAdjust="spacing" textLength="237" x="1097" y="754.292">public $root_title = 'TavernRaid';</text><text fill="#000000" font-family="sans-serif" font-size="14" lengthAdjust="spacing" textLength="125" x="1097" y="770.5889">public $root_link;</text><text fill="#000000" font-family="sans-serif" font-size="14" lengthAdjust="spacing" textLength="99" x="1097" y="786.8857">public $titles;</text><text fill="#000000" font-family="sans-serif" font-size="14" lengthAdjust="spacing" textLength="94" x="1097" y="803.1826">public $links;</text><line style="stroke:#181818;stroke-width:0.5;" x1="1092" x2="1434" y1="810.4844" y2="810.4844"/><text fill="#000000" font-family="sans-serif" font-size="14" lengthAdjust="spacing" textLength="332" x="1097" y="827.4795">function __construct(array $titles, array $links)</text><text fill="#000000" font-family="sans-serif" font-size="14" lengthAdjust="spacing" textLength="215" x="1097" y="843.7764">public function getPageTitle()</text><text fill="#000000" font-family="sans-serif" font-size="14" lengthAdjust="spacing" textLength="213" x="1097" y="860.0732">public function getWebTitle()</text></g><!--class TavernRaidAbstractDo--><g id="elem_TavernRaidAbstractDo"><rect codeLine="101" fill="#F1F1F1" height="64.2969" id="TavernRaidAbstractDo" rx="3.5" ry="3.5" style="stroke:#181818;stroke-width:0.5;" width="230" x="240" y="548.7969"/><ellipse cx="270.75" cy="564.7969" fill="#ADD1B2" rx="11" ry="11" style="stroke:#181818;stroke-width:1.0;"/><path d="M273.0938,560.4688 C272.1563,560.0313 271.5625,559.8906 270.6875,559.8906 C268.0625,559.8906 266.0625,561.9688 266.0625,564.6875 L266.0625,565.8125 C266.0625,568.3906 268.1719,570.2813 271.0625,570.2813 C272.2813,570.2813 273.4375,569.9844 274.1875,569.4375 C274.7656,569.0313 275.0938,568.5781 275.0938,568.1875 C275.0938,567.7344 274.7031,567.3438 274.2344,567.3438 C274.0156,567.3438 273.8125,567.4219 273.625,567.6094 C273.1719,568.0938 273.1719,568.0938 272.9844,568.1875 C272.5625,568.4531 271.875,568.5781 271.1094,568.5781 C269.0625,568.5781 267.7656,567.4844 267.7656,565.7813 L267.7656,564.6875 C267.7656,562.9063 269.0156,561.5938 270.75,561.5938 C271.3281,561.5938 271.9375,561.75 272.4063,562 C272.8906,562.2813 273.0625,562.5 273.1563,562.9063 C273.2188,563.3125 273.25,563.4375 273.3906,563.5625 C273.5313,563.7031 273.7656,563.8125 273.9844,563.8125 C274.25,563.8125 274.5156,563.6719 274.6875,563.4531 C274.7969,563.2969 274.8281,563.1094 274.8281,562.6875 L274.8281,561.2656 C274.8281,560.8281 274.8125,560.7031 274.7188,560.5469 C274.5625,560.2813 274.2813,560.1406 273.9844,560.1406 C273.6875,560.1406 273.4844,560.2344 273.2656,560.5469 L273.0938,560.4688 Z " fill="#000000"/><text fill="#000000" font-family="sans-serif" font-size="14" lengthAdjust="spacing" textLength="163" x="288.25" y="569.6436">TavernRaidAbstractDo</text><line style="stroke:#181818;stroke-width:0.5;" x1="241" x2="469" y1="580.7969" y2="580.7969"/><line style="stroke:#181818;stroke-width:0.5;" x1="241" x2="469" y1="588.7969" y2="588.7969"/><text fill="#000000" font-family="sans-serif" font-size="14" lengthAdjust="spacing" textLength="218" x="246" y="605.792">__construct($attributes = null)</text></g><!--reverse link UserDo to TavernRaidAbstractDo--><g id="link_UserDo_TavernRaidAbstractDo"><path codeLine="104" d="M270.524,425.4999 C295.074,470.3399 321.295,518.2329 337.897,548.5579 " fill="none" id="UserDo-backto-TavernRaidAbstractDo" style="stroke:#454645;stroke-width:1.0;"/><polygon fill="none" points="264.327,428.7569,260.863,407.8519,276.607,422.0339,264.327,428.7569" style="stroke:#454645;stroke-width:1.0;"/></g><!--reverse link TavernDo to TavernRaidAbstractDo--><g id="link_TavernDo_TavernRaidAbstractDo"><path codeLine="106" d="M412.715,474.3789 C397.199,502.7199 382.667,529.2619 372.067,548.6229 " fill="none" id="TavernDo-backto-TavernRaidAbstractDo" style="stroke:#454645;stroke-width:1.0;"/><polygon fill="none" points="406.732,470.7299,422.477,456.5489,419.012,477.4529,406.732,470.7299" style="stroke:#454645;stroke-width:1.0;"/></g><!--SRC=[dLRBRjim4BphArWWW9EYGJuWpS6eSoYGre6HjaTY9QxbXIbI82aRGPf_BoL7ZLqjbQY-cRESMSq-f0zXWnMA7UKEJCYoG46Z-AB1Ux4WA1rKMNOr4n-d_38XfbsONMKr55iee_Jo-yDgUNTtkn9FMIJw7-tfwaBq-j-MYzixyIGwdlvmONtCfcCMHUVDlDWGxg9r9Yp0zbYyqUIQ2d7M-NWzE5Re2qTr86k685LHIwv9epHG_RtzV2AyT0eTBmaxT4PIm4gI6j8t7XqB-02XyRpS2aWjHiGOkhMpbLGGC535M13i26YQAezPshLiitsNVyDyLxW7nsRj8ihcVEoTwwuVXGqLViJaEFwanVy8dp8-TE8Sdo9VQtWyQOTNjB0Lr2Q5Wb8ElPU5RKnmZoC154RGsiRsq955ZMZuu1336udqGLs9qs4QukmqOshQcZ8HKc-imQG4La1wUBp7tCVAoyOnu1eApAtTygZTcrZnPDb1LMGeFZW4EmZZck1hRC29uzRrBEzy1zME2dnBCpqoKvGvzhRpvtbhGH4uVfROonXDEwxd7SRbeIG4Pi7LQe2j6rEqsqB8sC8cfj4KuVmCGd2KDm6zk16cqVg2VOBKc1igjWdB4orMHxgzTIgDI2Y1p0Y-0RyPmZcvi55nHN26j3xcTeTIOnbdM3aoMp9bb48- -BXT1n5_hImnp7i3vyx1utdQldPR7hyh6JVX5PxstXfTghtulIKJ_AINGLAmRhda3dIJQFcVXFk55OoMjK4UlgrknEmm6Mrsisi-LCTANVCV5NvutaRxDteUsaBr59_4oz_kviLOfUzZipoqbyv7mtvXVXh5xOBLoIuuicdQS1x6Kdp-VNd94ZCp_7BKlsdVURSFpmxgpty0]--></g></svg>