<?xml version="1.0" encoding="us-ascii" standalone="no"?><svg xmlns="http://www.w3.org/2000/svg" xmlns:xlink="http://www.w3.org/1999/xlink" contentStyleType="text/css" height="570px" preserveAspectRatio="none" style="width:908px;height:570px;background:#FFFFFF;" version="1.1" viewBox="0 0 908 570" width="908px" zoomAndPan="magnify"><defs/><g><text fill="#000000" font-family="sans-serif" font-size="14" font-weight="bold" lengthAdjust="spacing" textLength="116" x="389" y="22.9951">Class Diagram</text><!--cluster CONTROLLER--><g id="cluster_CONTROLLER"><path d="M9.5,43.2969 L113.5,43.2969 A5.25,5.25 0 0 1 117,46.7969 L124,65.5938 L897.5,65.5938 A3.5,3.5 0 0 1 901,69.0938 L901,559.7969 A3.5,3.5 0 0 1 897.5,563.2969 L9.5,563.2969 A3.5,3.5 0 0 1 6,559.7969 L6,46.7969 A3.5,3.5 0 0 1 9.5,43.2969 " fill="none" style="stroke:#696969;stroke-width:1.0;"/><line style="stroke:#696969;stroke-width:1.0;" x1="6" x2="124" y1="65.5938" y2="65.5938"/><text fill="#000000" font-family="sans-serif" font-size="14" font-weight="bold" lengthAdjust="spacing" textLength="105" x="10" y="58.292">CONTROLLER</text></g><!--cluster MODEL--><g id="cluster_MODEL"><path d="M33.5,86.2969 L87.5,86.2969 A5.25,5.25 0 0 1 91,89.7969 L98,108.5938 L873.5,108.5938 A3.5,3.5 0 0 1 877,112.0938 L877,535.7969 A3.5,3.5 0 0 1 873.5,539.2969 L33.5,539.2969 A3.5,3.5 0 0 1 30,535.7969 L30,89.7969 A3.5,3.5 0 0 1 33.5,86.2969 " fill="none" style="stroke:#696969;stroke-width:1.0;"/><line style="stroke:#696969;stroke-width:1.0;" x1="30" x2="98" y1="108.5938" y2="108.5938"/><text fill="#000000" font-family="sans-serif" font-size="14" font-weight="bold" lengthAdjust="spacing" textLength="55" x="34" y="101.292">MODEL</text></g><!--cluster factories--><g id="cluster_factories"><path d="M57.5,129.2969 L130.5,129.2969 A5.25,5.25 0 0 1 134,132.7969 L141,151.5938 L849.5,151.5938 A3.5,3.5 0 0 1 853,155.0938 L853,511.7969 A3.5,3.5 0 0 1 849.5,515.2969 L57.5,515.2969 A3.5,3.5 0 0 1 54,511.7969 L54,132.7969 A3.5,3.5 0 0 1 57.5,129.2969 " fill="none" style="stroke:#696969;stroke-width:1.0;"/><line style="stroke:#696969;stroke-width:1.0;" x1="54" x2="141" y1="151.5938" y2="151.5938"/><text fill="#000000" font-family="sans-serif" font-size="14" font-weight="bold" lengthAdjust="spacing" textLength="74" x="58" y="144.292">factories</text></g><!--class BoFactory--><g id="elem_BoFactory"><rect codeLine="13" fill="#F1F1F1" height="129.4844" id="BoFactory" rx="3.5" ry="3.5" style="stroke:#181818;stroke-width:0.5;" width="299" x="70.5" y="164.2969"/><ellipse cx="179.25" cy="180.2969" fill="#ADD1B2" rx="11" ry="11" style="stroke:#181818;stroke-width:1.0;"/><path d="M181.5938,175.9688 C180.6563,175.5313 180.0625,175.3906 179.1875,175.3906 C176.5625,175.3906 174.5625,177.4688 174.5625,180.1875 L174.5625,181.3125 C174.5625,183.8906 176.6719,185.7813 179.5625,185.7813 C180.7813,185.7813 181.9375,185.4844 182.6875,184.9375 C183.2656,184.5313 183.5938,184.0781 183.5938,183.6875 C183.5938,183.2344 183.2031,182.8438 182.7344,182.8438 C182.5156,182.8438 182.3125,182.9219 182.125,183.1094 C181.6719,183.5938 181.6719,183.5938 181.4844,183.6875 C181.0625,183.9531 180.375,184.0781 179.6094,184.0781 C177.5625,184.0781 176.2656,182.9844 176.2656,181.2813 L176.2656,180.1875 C176.2656,178.4063 177.5156,177.0938 179.25,177.0938 C179.8281,177.0938 180.4375,177.25 180.9063,177.5 C181.3906,177.7813 181.5625,178 181.6563,178.4063 C181.7188,178.8125 181.75,178.9375 181.8906,179.0625 C182.0313,179.2031 182.2656,179.3125 182.4844,179.3125 C182.75,179.3125 183.0156,179.1719 183.1875,178.9531 C183.2969,178.7969 183.3281,178.6094 183.3281,178.1875 L183.3281,176.7656 C183.3281,176.3281 183.3125,176.2031 183.2188,176.0469 C183.0625,175.7813 182.7813,175.6406 182.4844,175.6406 C182.1875,175.6406 181.9844,175.7344 181.7656,176.0469 L181.5938,175.9688 Z " fill="#000000"/><text fill="#000000" font-family="sans-serif" font-size="14" lengthAdjust="spacing" textLength="73" x="199.75" y="185.1436">BoFactory</text><line style="stroke:#181818;stroke-width:0.5;" x1="71.5" x2="368.5" y1="196.2969" y2="196.2969"/><text fill="#000000" font-family="sans-serif" font-size="14" lengthAdjust="spacing" textLength="190" x="76.5" y="213.292">const USER           = "User";</text><text fill="#000000" font-family="sans-serif" font-size="14" lengthAdjust="spacing" textLength="209" x="76.5" y="229.5889">const TAVERN      = "Tavern";</text><text fill="#000000" font-family="sans-serif" font-size="14" lengthAdjust="spacing" textLength="188" x="76.5" y="245.8857">const RAID           = "Raid";</text><text fill="#000000" font-family="sans-serif" font-size="14" lengthAdjust="spacing" textLength="280" x="76.5" y="262.1826">const ACHIEVEMENT = "Achievement";</text><line style="stroke:#181818;stroke-width:0.5;" x1="71.5" x2="368.5" y1="269.4844" y2="269.4844"/><text fill="#000000" font-family="sans-serif" font-size="14" lengthAdjust="spacing" textLength="287" x="76.5" y="286.4795">public function get(string $class_name);</text></g><!--class DaoFactory--><g id="elem_DaoFactory"><rect codeLine="21" fill="#F1F1F1" height="113.1875" id="DaoFactory" rx="3.5" ry="3.5" style="stroke:#181818;stroke-width:0.5;" width="432" x="405" y="172.2969"/><ellipse cx="575.75" cy="188.2969" fill="#ADD1B2" rx="11" ry="11" style="stroke:#181818;stroke-width:1.0;"/><path d="M578.0938,183.9688 C577.1563,183.5313 576.5625,183.3906 575.6875,183.3906 C573.0625,183.3906 571.0625,185.4688 571.0625,188.1875 L571.0625,189.3125 C571.0625,191.8906 573.1719,193.7813 576.0625,193.7813 C577.2813,193.7813 578.4375,193.4844 579.1875,192.9375 C579.7656,192.5313 580.0938,192.0781 580.0938,191.6875 C580.0938,191.2344 579.7031,190.8438 579.2344,190.8438 C579.0156,190.8438 578.8125,190.9219 578.625,191.1094 C578.1719,191.5938 578.1719,191.5938 577.9844,191.6875 C577.5625,191.9531 576.875,192.0781 576.1094,192.0781 C574.0625,192.0781 572.7656,190.9844 572.7656,189.2813 L572.7656,188.1875 C572.7656,186.4063 574.0156,185.0938 575.75,185.0938 C576.3281,185.0938 576.9375,185.25 577.4063,185.5 C577.8906,185.7813 578.0625,186 578.1563,186.4063 C578.2188,186.8125 578.25,186.9375 578.3906,187.0625 C578.5313,187.2031 578.7656,187.3125 578.9844,187.3125 C579.25,187.3125 579.5156,187.1719 579.6875,186.9531 C579.7969,186.7969 579.8281,186.6094 579.8281,186.1875 L579.8281,184.7656 C579.8281,184.3281 579.8125,184.2031 579.7188,184.0469 C579.5625,183.7813 579.2813,183.6406 578.9844,183.6406 C578.6875,183.6406 578.4844,183.7344 578.2656,184.0469 L578.0938,183.9688 Z " fill="#000000"/><text fill="#000000" font-family="sans-serif" font-size="14" lengthAdjust="spacing" textLength="82" x="596.25" y="193.1436">DaoFactory</text><line style="stroke:#181818;stroke-width:0.5;" x1="406" x2="836" y1="204.2969" y2="204.2969"/><text fill="#000000" font-family="sans-serif" font-size="14" lengthAdjust="spacing" textLength="170" x="411" y="221.292">const USER      = "User";</text><text fill="#000000" font-family="sans-serif" font-size="14" lengthAdjust="spacing" textLength="189" x="411" y="237.5889">const TAVERN = "Tavern";</text><text fill="#000000" font-family="sans-serif" font-size="14" lengthAdjust="spacing" textLength="168" x="411" y="253.8857">const RAID      = "Raid";</text><line style="stroke:#181818;stroke-width:0.5;" x1="406" x2="836" y1="261.1875" y2="261.1875"/><text fill="#000000" font-family="sans-serif" font-size="14" lengthAdjust="spacing" textLength="420" x="411" y="278.1826">public function get(string $class_name, $attributes = null);</text></g><!--class DoFactory--><g id="elem_DoFactory"><rect codeLine="28" fill="#F1F1F1" height="145.7813" id="DoFactory" rx="3.5" ry="3.5" style="stroke:#181818;stroke-width:0.5;" width="432" x="70" y="353.2969"/><ellipse cx="244.75" cy="369.2969" fill="#ADD1B2" rx="11" ry="11" style="stroke:#181818;stroke-width:1.0;"/><path d="M247.0938,364.9688 C246.1563,364.5313 245.5625,364.3906 244.6875,364.3906 C242.0625,364.3906 240.0625,366.4688 240.0625,369.1875 L240.0625,370.3125 C240.0625,372.8906 242.1719,374.7813 245.0625,374.7813 C246.2813,374.7813 247.4375,374.4844 248.1875,373.9375 C248.7656,373.5313 249.0938,373.0781 249.0938,372.6875 C249.0938,372.2344 248.7031,371.8438 248.2344,371.8438 C248.0156,371.8438 247.8125,371.9219 247.625,372.1094 C247.1719,372.5938 247.1719,372.5938 246.9844,372.6875 C246.5625,372.9531 245.875,373.0781 245.1094,373.0781 C243.0625,373.0781 241.7656,371.9844 241.7656,370.2813 L241.7656,369.1875 C241.7656,367.4063 243.0156,366.0938 244.75,366.0938 C245.3281,366.0938 245.9375,366.25 246.4063,366.5 C246.8906,366.7813 247.0625,367 247.1563,367.4063 C247.2188,367.8125 247.25,367.9375 247.3906,368.0625 C247.5313,368.2031 247.7656,368.3125 247.9844,368.3125 C248.25,368.3125 248.5156,368.1719 248.6875,367.9531 C248.7969,367.7969 248.8281,367.6094 248.8281,367.1875 L248.8281,365.7656 C248.8281,365.3281 248.8125,365.2031 248.7188,365.0469 C248.5625,364.7813 248.2813,364.6406 247.9844,364.6406 C247.6875,364.6406 247.4844,364.7344 247.2656,365.0469 L247.0938,364.9688 Z " fill="#000000"/><text fill="#000000" font-family="sans-serif" font-size="14" lengthAdjust="spacing" textLength="74" x="265.25" y="374.1436">DoFactory</text><line style="stroke:#181818;stroke-width:0.5;" x1="71" x2="501" y1="385.2969" y2="385.2969"/><text fill="#000000" font-family="sans-serif" font-size="14" lengthAdjust="spacing" textLength="190" x="76" y="402.292">const USER           = "User";</text><text fill="#000000" font-family="sans-serif" font-size="14" lengthAdjust="spacing" textLength="209" x="76" y="418.5889">const TAVERN      = "Tavern";</text><text fill="#000000" font-family="sans-serif" font-size="14" lengthAdjust="spacing" textLength="188" x="76" y="434.8857">const RAID           = "Raid";</text><text fill="#000000" font-family="sans-serif" font-size="14" lengthAdjust="spacing" textLength="193" x="76" y="451.1826">const VIEW           = "View";</text><text fill="#000000" font-family="sans-serif" font-size="14" lengthAdjust="spacing" textLength="280" x="76" y="467.4795">const ACHIEVEMENT = "Achievement";</text><line style="stroke:#181818;stroke-width:0.5;" x1="71" x2="501" y1="474.7813" y2="474.7813"/><text fill="#000000" font-family="sans-serif" font-size="14" lengthAdjust="spacing" textLength="420" x="76" y="491.7764">public function get(string $class_name, $attributes = null);</text></g><!--SRC=[pLBHQeCm57tFLzoLGhSnw0UCFhYQCS4gEEiUHynI6wQn95V7AFttfJ8jWWCT37OVyd3loJavv-OAzw8GKCjKCuM4eCHSm3fdne0hMQPPGSXo0RTJYW1Ckx1OaWFZxoopqc4GHw7lqmYEn1BzHdkwEa2hlmbTwiCH6fwskMCSIos5iMzg-84t2JsKZytai-j_Jqjb4BRFriIbLZ3R6g5dzmFGs4be57IucDL2gq5av7XkdpHYycqGwgoVF9hG3GtYCyxXUobgkss55jxX3rMQImwxId6KfO9CuBL1BLK6yyRbgsA5k6a5Jhq0N3OoWH7cn_g-M9xeuGxc36qthT1kSWMgolEVVFthnIOUVUb34oa-_lmFZCZlV9w-0000]--></g></svg>