<?xml version="1.0" encoding="us-ascii" standalone="no"?><svg xmlns="http://www.w3.org/2000/svg" xmlns:xlink="http://www.w3.org/1999/xlink" contentStyleType="text/css" height="749px" preserveAspectRatio="none" style="width:1470px;height:749px;background:#FFFFFF;" version="1.1" viewBox="0 0 1470 749" width="1470px" zoomAndPan="magnify"><defs/><g><text fill="#000000" font-family="sans-serif" font-size="14" font-weight="bold" lengthAdjust="spacing" textLength="116" x="670" y="22.9951">Class Diagram</text><!--cluster CONTROLLER--><g id="cluster_CONTROLLER"><path d="M9.5,43.2969 L113.5,43.2969 A5.25,5.25 0 0 1 117,46.7969 L124,65.5938 L1459.5,65.5938 A3.5,3.5 0 0 1 1463,69.0938 L1463,738.7969 A3.5,3.5 0 0 1 1459.5,742.2969 L9.5,742.2969 A3.5,3.5 0 0 1 6,738.7969 L6,46.7969 A3.5,3.5 0 0 1 9.5,43.2969 " fill="none" style="stroke:#696969;stroke-width:1.0;"/><line style="stroke:#696969;stroke-width:1.0;" x1="6" x2="124" y1="65.5938" y2="65.5938"/><text fill="#000000" font-family="sans-serif" font-size="14" font-weight="bold" lengthAdjust="spacing" textLength="105" x="10" y="58.292">CONTROLLER</text></g><!--cluster MODEL--><g id="cluster_MODEL"><path d="M33.5,86.2969 L87.5,86.2969 A5.25,5.25 0 0 1 91,89.7969 L98,108.5938 L1435.5,108.5938 A3.5,3.5 0 0 1 1439,112.0938 L1439,714.7969 A3.5,3.5 0 0 1 1435.5,718.2969 L33.5,718.2969 A3.5,3.5 0 0 1 30,714.7969 L30,89.7969 A3.5,3.5 0 0 1 33.5,86.2969 " fill="none" style="stroke:#696969;stroke-width:1.0;"/><line style="stroke:#696969;stroke-width:1.0;" x1="30" x2="98" y1="108.5938" y2="108.5938"/><text fill="#000000" font-family="sans-serif" font-size="14" font-weight="bold" lengthAdjust="spacing" textLength="55" x="34" y="101.292">MODEL</text></g><!--cluster helpers--><g id="cluster_helpers"><path d="M57.5,129.2969 L115.5,129.2969 A5.25,5.25 0 0 1 119,132.7969 L126,151.5938 L1411.5,151.5938 A3.5,3.5 0 0 1 1415,155.0938 L1415,690.7969 A3.5,3.5 0 0 1 1411.5,694.2969 L57.5,694.2969 A3.5,3.5 0 0 1 54,690.7969 L54,132.7969 A3.5,3.5 0 0 1 57.5,129.2969 " fill="none" style="stroke:#696969;stroke-width:1.0;"/><line style="stroke:#696969;stroke-width:1.0;" x1="54" x2="126" y1="151.5938" y2="151.5938"/><text fill="#000000" font-family="sans-serif" font-size="14" font-weight="bold" lengthAdjust="spacing" textLength="59" x="58" y="144.292">helpers</text></g><!--class TavernRaidLogHelper--><g id="elem_TavernRaidLogHelper"><rect codeLine="13" fill="#F1F1F1" height="96.8906" id="TavernRaidLogHelper" rx="3.5" ry="3.5" style="stroke:#181818;stroke-width:0.5;" width="302" x="230" y="229.2969"/><ellipse cx="299.75" cy="245.2969" fill="#ADD1B2" rx="11" ry="11" style="stroke:#181818;stroke-width:1.0;"/><path d="M302.0938,240.9688 C301.1563,240.5313 300.5625,240.3906 299.6875,240.3906 C297.0625,240.3906 295.0625,242.4688 295.0625,245.1875 L295.0625,246.3125 C295.0625,248.8906 297.1719,250.7813 300.0625,250.7813 C301.2813,250.7813 302.4375,250.4844 303.1875,249.9375 C303.7656,249.5313 304.0938,249.0781 304.0938,248.6875 C304.0938,248.2344 303.7031,247.8438 303.2344,247.8438 C303.0156,247.8438 302.8125,247.9219 302.625,248.1094 C302.1719,248.5938 302.1719,248.5938 301.9844,248.6875 C301.5625,248.9531 300.875,249.0781 300.1094,249.0781 C298.0625,249.0781 296.7656,247.9844 296.7656,246.2813 L296.7656,245.1875 C296.7656,243.4063 298.0156,242.0938 299.75,242.0938 C300.3281,242.0938 300.9375,242.25 301.4063,242.5 C301.8906,242.7813 302.0625,243 302.1563,243.4063 C302.2188,243.8125 302.25,243.9375 302.3906,244.0625 C302.5313,244.2031 302.7656,244.3125 302.9844,244.3125 C303.25,244.3125 303.5156,244.1719 303.6875,243.9531 C303.7969,243.7969 303.8281,243.6094 303.8281,243.1875 L303.8281,241.7656 C303.8281,241.3281 303.8125,241.2031 303.7188,241.0469 C303.5625,240.7813 303.2813,240.6406 302.9844,240.6406 C302.6875,240.6406 302.4844,240.7344 302.2656,241.0469 L302.0938,240.9688 Z " fill="#000000"/><text fill="#000000" font-family="sans-serif" font-size="14" lengthAdjust="spacing" textLength="154" x="320.25" y="250.1436">TavernRaidLogHelper</text><line style="stroke:#181818;stroke-width:0.5;" x1="231" x2="531" y1="261.2969" y2="261.2969"/><text fill="#000000" font-family="sans-serif" font-size="14" lengthAdjust="spacing" textLength="157" x="236" y="278.292">public static $log = [];</text><line style="stroke:#181818;stroke-width:0.5;" x1="231" x2="531" y1="285.5938" y2="285.5938"/><text fill="#000000" font-family="sans-serif" font-size="14" lengthAdjust="spacing" textLength="290" x="236" y="302.5889">public static function add(string $input);</text><text fill="#000000" font-family="sans-serif" font-size="14" lengthAdjust="spacing" textLength="197" x="236" y="318.8857">public static function get();</text></g><!--class TavernRaidRequestResponseHelper--><g id="elem_TavernRaidRequestResponseHelper"><rect codeLine="18" fill="#F1F1F1" height="227.2656" id="TavernRaidRequestResponseHelper" rx="3.5" ry="3.5" style="stroke:#181818;stroke-width:0.5;" width="394" x="567" y="164.2969"/><ellipse cx="631.25" cy="180.2969" fill="#ADD1B2" rx="11" ry="11" style="stroke:#181818;stroke-width:1.0;"/><path d="M633.5938,175.9688 C632.6563,175.5313 632.0625,175.3906 631.1875,175.3906 C628.5625,175.3906 626.5625,177.4688 626.5625,180.1875 L626.5625,181.3125 C626.5625,183.8906 628.6719,185.7813 631.5625,185.7813 C632.7813,185.7813 633.9375,185.4844 634.6875,184.9375 C635.2656,184.5313 635.5938,184.0781 635.5938,183.6875 C635.5938,183.2344 635.2031,182.8438 634.7344,182.8438 C634.5156,182.8438 634.3125,182.9219 634.125,183.1094 C633.6719,183.5938 633.6719,183.5938 633.4844,183.6875 C633.0625,183.9531 632.375,184.0781 631.6094,184.0781 C629.5625,184.0781 628.2656,182.9844 628.2656,181.2813 L628.2656,180.1875 C628.2656,178.4063 629.5156,177.0938 631.25,177.0938 C631.8281,177.0938 632.4375,177.25 632.9063,177.5 C633.3906,177.7813 633.5625,178 633.6563,178.4063 C633.7188,178.8125 633.75,178.9375 633.8906,179.0625 C634.0313,179.2031 634.2656,179.3125 634.4844,179.3125 C634.75,179.3125 635.0156,179.1719 635.1875,178.9531 C635.2969,178.7969 635.3281,178.6094 635.3281,178.1875 L635.3281,176.7656 C635.3281,176.3281 635.3125,176.2031 635.2188,176.0469 C635.0625,175.7813 634.7813,175.6406 634.4844,175.6406 C634.1875,175.6406 633.9844,175.7344 633.7656,176.0469 L633.5938,175.9688 Z " fill="#000000"/><text fill="#000000" font-family="sans-serif" font-size="14" lengthAdjust="spacing" textLength="257" x="651.75" y="185.1436">TavernRaidRequestResponseHelper</text><line style="stroke:#181818;stroke-width:0.5;" x1="568" x2="960" y1="196.2969" y2="196.2969"/><text fill="#000000" font-family="sans-serif" font-size="14" lengthAdjust="spacing" textLength="202" x="573" y="213.292">public static $root         = "";</text><text fill="#000000" font-family="sans-serif" font-size="14" lengthAdjust="spacing" textLength="205" x="573" y="229.5889">public static $path         = "";</text><text fill="#000000" font-family="sans-serif" font-size="14" lengthAdjust="spacing" textLength="211" x="573" y="245.8857">public static $url_root     = "";</text><text fill="#000000" font-family="sans-serif" font-size="14" lengthAdjust="spacing" textLength="210" x="573" y="262.1826">public static $request      = [];</text><text fill="#000000" font-family="sans-serif" font-size="14" lengthAdjust="spacing" textLength="239" x="573" y="278.4795">public static $project_name = "";</text><text fill="#000000" font-family="sans-serif" font-size="14" lengthAdjust="spacing" textLength="220" x="573" y="294.7764">public static $method       = "";</text><text fill="#000000" font-family="sans-serif" font-size="14" lengthAdjust="spacing" textLength="232" x="573" y="311.0732">public static $actor_name   = "";</text><text fill="#000000" font-family="sans-serif" font-size="14" lengthAdjust="spacing" textLength="229" x="573" y="327.3701">public static $actor_action = "";</text><text fill="#000000" font-family="sans-serif" font-size="14" lengthAdjust="spacing" textLength="217" x="573" y="343.667">public static $response     = [];</text><line style="stroke:#181818;stroke-width:0.5;" x1="568" x2="960" y1="350.9688" y2="350.9688"/><text fill="#000000" font-family="sans-serif" font-size="14" lengthAdjust="spacing" textLength="299" x="573" y="367.9639">public static function setBaseResponse();</text><text fill="#000000" font-family="sans-serif" font-size="14" lengthAdjust="spacing" textLength="382" x="573" y="384.2607">public static function addToResponse($name, $value)</text></g><!--class TavernRaidStringHelper--><g id="elem_TavernRaidStringHelper"><rect codeLine="31" fill="#F1F1F1" height="162.0781" id="TavernRaidStringHelper" rx="3.5" ry="3.5" style="stroke:#181818;stroke-width:0.5;" width="621" x="70.5" y="483.7969"/><ellipse cx="290.75" cy="499.7969" fill="#ADD1B2" rx="11" ry="11" style="stroke:#181818;stroke-width:1.0;"/><path d="M293.0938,495.4688 C292.1563,495.0313 291.5625,494.8906 290.6875,494.8906 C288.0625,494.8906 286.0625,496.9688 286.0625,499.6875 L286.0625,500.8125 C286.0625,503.3906 288.1719,505.2813 291.0625,505.2813 C292.2813,505.2813 293.4375,504.9844 294.1875,504.4375 C294.7656,504.0313 295.0938,503.5781 295.0938,503.1875 C295.0938,502.7344 294.7031,502.3438 294.2344,502.3438 C294.0156,502.3438 293.8125,502.4219 293.625,502.6094 C293.1719,503.0938 293.1719,503.0938 292.9844,503.1875 C292.5625,503.4531 291.875,503.5781 291.1094,503.5781 C289.0625,503.5781 287.7656,502.4844 287.7656,500.7813 L287.7656,499.6875 C287.7656,497.9063 289.0156,496.5938 290.75,496.5938 C291.3281,496.5938 291.9375,496.75 292.4063,497 C292.8906,497.2813 293.0625,497.5 293.1563,497.9063 C293.2188,498.3125 293.25,498.4375 293.3906,498.5625 C293.5313,498.7031 293.7656,498.8125 293.9844,498.8125 C294.25,498.8125 294.5156,498.6719 294.6875,498.4531 C294.7969,498.2969 294.8281,498.1094 294.8281,497.6875 L294.8281,496.2656 C294.8281,495.8281 294.8125,495.7031 294.7188,495.5469 C294.5625,495.2813 294.2813,495.1406 293.9844,495.1406 C293.6875,495.1406 293.4844,495.2344 293.2656,495.5469 L293.0938,495.4688 Z " fill="#000000"/><text fill="#000000" font-family="sans-serif" font-size="14" lengthAdjust="spacing" textLength="172" x="311.25" y="504.6436">TavernRaidStringHelper</text><line style="stroke:#181818;stroke-width:0.5;" x1="71.5" x2="690.5" y1="515.7969" y2="515.7969"/><line style="stroke:#181818;stroke-width:0.5;" x1="71.5" x2="690.5" y1="523.7969" y2="523.7969"/><text fill="#000000" font-family="sans-serif" font-size="14" lengthAdjust="spacing" textLength="319" x="76.5" y="540.792">public static function getLink(string $input);</text><text fill="#000000" font-family="sans-serif" font-size="14" lengthAdjust="spacing" textLength="531" x="76.5" y="557.0889">public static function getUnderScoresReplacedWithSpaces(string $input);</text><text fill="#000000" font-family="sans-serif" font-size="14" lengthAdjust="spacing" textLength="531" x="76.5" y="573.3857">public static function getSpacesReplacedWithUnderScores(string $input);</text><text fill="#000000" font-family="sans-serif" font-size="14" lengthAdjust="spacing" textLength="405" x="76.5" y="589.6826">public static function getHumanReadable(string $input);</text><text fill="#000000" font-family="sans-serif" font-size="14" lengthAdjust="spacing" textLength="554" x="76.5" y="605.9795">public static function getBoNameFromActorLinkSingularName(string $input);</text><text fill="#000000" font-family="sans-serif" font-size="14" lengthAdjust="spacing" textLength="569" x="76.5" y="622.2764">public static function getActorNameFromIdActorAttributeName(string $input);</text><text fill="#000000" font-family="sans-serif" font-size="14" lengthAdjust="spacing" textLength="609" x="76.5" y="638.5732">public static function getActorTableNameFromIdActorAttributeName(string $input);</text></g><!--class UserMessagesHelper--><g id="elem_UserMessagesHelper"><rect codeLine="40" fill="#F1F1F1" height="227.2656" id="UserMessagesHelper" rx="3.5" ry="3.5" style="stroke:#181818;stroke-width:0.5;" width="672" x="727" y="451.2969"/><ellipse cx="985.25" cy="467.2969" fill="#ADD1B2" rx="11" ry="11" style="stroke:#181818;stroke-width:1.0;"/><path d="M987.5938,462.9688 C986.6563,462.5313 986.0625,462.3906 985.1875,462.3906 C982.5625,462.3906 980.5625,464.4688 980.5625,467.1875 L980.5625,468.3125 C980.5625,470.8906 982.6719,472.7813 985.5625,472.7813 C986.7813,472.7813 987.9375,472.4844 988.6875,471.9375 C989.2656,471.5313 989.5938,471.0781 989.5938,470.6875 C989.5938,470.2344 989.2031,469.8438 988.7344,469.8438 C988.5156,469.8438 988.3125,469.9219 988.125,470.1094 C987.6719,470.5938 987.6719,470.5938 987.4844,470.6875 C987.0625,470.9531 986.375,471.0781 985.6094,471.0781 C983.5625,471.0781 982.2656,469.9844 982.2656,468.2813 L982.2656,467.1875 C982.2656,465.4063 983.5156,464.0938 985.25,464.0938 C985.8281,464.0938 986.4375,464.25 986.9063,464.5 C987.3906,464.7813 987.5625,465 987.6563,465.4063 C987.7188,465.8125 987.75,465.9375 987.8906,466.0625 C988.0313,466.2031 988.2656,466.3125 988.4844,466.3125 C988.75,466.3125 989.0156,466.1719 989.1875,465.9531 C989.2969,465.7969 989.3281,465.6094 989.3281,465.1875 L989.3281,463.7656 C989.3281,463.3281 989.3125,463.2031 989.2188,463.0469 C989.0625,462.7813 988.7813,462.6406 988.4844,462.6406 C988.1875,462.6406 987.9844,462.7344 987.7656,463.0469 L987.5938,462.9688 Z " fill="#000000"/><text fill="#000000" font-family="sans-serif" font-size="14" lengthAdjust="spacing" textLength="147" x="1005.75" y="472.1436">UserMessagesHelper</text><line style="stroke:#181818;stroke-width:0.5;" x1="728" x2="1398" y1="483.2969" y2="483.2969"/><text fill="#000000" font-family="sans-serif" font-size="14" lengthAdjust="spacing" textLength="341" x="733" y="500.292">const MESSAGE_LEVEL_MESSAGE = "message";</text><text fill="#000000" font-family="sans-serif" font-size="14" lengthAdjust="spacing" textLength="334" x="733" y="516.5889">const MESSAGE_LEVEL_WARNING = "warning";</text><text fill="#000000" font-family="sans-serif" font-size="14" lengthAdjust="spacing" textLength="303" x="733" y="532.8857">const MESSAGE_LEVEL_ERROR   = "error";</text><text fill="#000000" font-family="sans-serif" font-size="14" lengthAdjust="spacing" textLength="4" x="733" y="549.1826">&#160;</text><text fill="#000000" font-family="sans-serif" font-size="14" lengthAdjust="spacing" textLength="205" x="733" y="565.4795">public static $messages = [];</text><text fill="#000000" font-family="sans-serif" font-size="14" lengthAdjust="spacing" textLength="198" x="733" y="581.7764">public static $warnings = [];</text><text fill="#000000" font-family="sans-serif" font-size="14" lengthAdjust="spacing" textLength="186" x="733" y="598.0732">public static $errors   = [];</text><text fill="#000000" font-family="sans-serif" font-size="14" lengthAdjust="spacing" textLength="4" x="733" y="614.3701">&#160;</text><text fill="#000000" font-family="sans-serif" font-size="14" lengthAdjust="spacing" textLength="269" x="733" y="630.667">public static $invalid_form_fields = [];</text><line style="stroke:#181818;stroke-width:0.5;" x1="728" x2="1398" y1="637.9688" y2="637.9688"/><text fill="#000000" font-family="sans-serif" font-size="14" lengthAdjust="spacing" textLength="349" x="733" y="654.9639">public static function addToMessages($message,</text><text fill="#000000" font-family="sans-serif" font-size="14" lengthAdjust="spacing" textLength="276" x="1117" y="654.9639">$message_level = "default_message");</text><text fill="#000000" font-family="sans-serif" font-size="14" lengthAdjust="spacing" textLength="283" x="733" y="671.2607">public static function getAllMessages();</text></g><!--SRC=[fPJFRk8m4CRFoLDu4L9XLQaFiDe3RRDjfG1IGjl3QXKDyH2yTUoixR27gk- -Je8HK0YGpIN_lldDUFoDlvWbvaXMRAv06Dytp70aTnoq9lSCCWMvxzzSaQ-NN3uXbmLStVW5f6-GsTJJoIoQXc4GaNVVWhhalZmx8Ix_U7eVXEITr1ptSOcyGALjHJMTf7L_Ph129I9WD9JPOorn0XjQpZbBYJPWxAtFPKQ-av-_lXqHB4gH6YO50Ke7sYWcCj9deYZDy6H8XcQmKNqSAJ72FoLg4w4kfD1uebmbfN6_RDszNeFtl3rT0MPvZgvKFDamMtIggTBnNBy-vrNoDwOc4M3DsyBBqImbFLqVf4QgXdQ63fg-jwwZQVFUEbesKQEv1OrkVmR3Svmoanjzloh-clHNm4iSdZ13N1kitGFRzWgPUElWocT1KSMfjDs8iE2G8drbPXdRiKBTWTS4RgEsCdJWFPOvY0Y1mfnZX_XRER5D_w5aFgfyKNKfjeYIWwf-T23M70TzelNho5ZCl3JuFynPjSGEu5q7FMjKOzJQdebwtpsfjQ4Xuo2EHmz14WOlGPYitwf9oPimEp3USVthA9eyJHug_LzGmjRJSuLuX_H154sZPc9HAQagkjLx1qwqTNwzdaRluB6tJjekgZFfpLolHKV4JDY1P3HPI9Kd2uQSji9tXzkrUk2gloQUUqmuhf1NAwUuW9ARn7LuU8fTUOBp3Nndhp_-0G00]--></g></svg>