<?xml version="1.0" encoding="us-ascii" standalone="no"?><svg xmlns="http://www.w3.org/2000/svg" xmlns:xlink="http://www.w3.org/1999/xlink" contentStyleType="text/css" height="654px" preserveAspectRatio="none" style="width:1710px;height:654px;background:#FFFFFF;" version="1.1" viewBox="0 0 1710 654" width="1710px" zoomAndPan="magnify"><defs/><g><text fill="#000000" font-family="sans-serif" font-size="14" font-weight="bold" lengthAdjust="spacing" textLength="116" x="790" y="22.9951">Class Diagram</text><!--cluster CONTROLLER--><g id="cluster_CONTROLLER"><path d="M9.5,43.2969 L113.5,43.2969 A5.25,5.25 0 0 1 117,46.7969 L124,65.5938 L1699.5,65.5938 A3.5,3.5 0 0 1 1703,69.0938 L1703,643.7969 A3.5,3.5 0 0 1 1699.5,647.2969 L9.5,647.2969 A3.5,3.5 0 0 1 6,643.7969 L6,46.7969 A3.5,3.5 0 0 1 9.5,43.2969 " fill="none" style="stroke:#696969;stroke-width:1.0;"/><line style="stroke:#696969;stroke-width:1.0;" x1="6" x2="124" y1="65.5938" y2="65.5938"/><text fill="#000000" font-family="sans-serif" font-size="14" font-weight="bold" lengthAdjust="spacing" textLength="105" x="10" y="58.292">CONTROLLER</text></g><!--cluster MODEL--><g id="cluster_MODEL"><path d="M281.5,86.2969 L335.5,86.2969 A5.25,5.25 0 0 1 339,89.7969 L346,108.5938 L1675.5,108.5938 A3.5,3.5 0 0 1 1679,112.0938 L1679,619.7969 A3.5,3.5 0 0 1 1675.5,623.2969 L281.5,623.2969 A3.5,3.5 0 0 1 278,619.7969 L278,89.7969 A3.5,3.5 0 0 1 281.5,86.2969 " fill="none" style="stroke:#696969;stroke-width:1.0;"/><line style="stroke:#696969;stroke-width:1.0;" x1="278" x2="346" y1="108.5938" y2="108.5938"/><text fill="#000000" font-family="sans-serif" font-size="14" font-weight="bold" lengthAdjust="spacing" textLength="55" x="282" y="101.292">MODEL</text></g><!--cluster Dos--><g id="cluster_Dos"><path d="M1285.5,129.2969 L1314.5,129.2969 A5.25,5.25 0 0 1 1318,132.7969 L1325,151.5938 L1651.5,151.5938 A3.5,3.5 0 0 1 1655,155.0938 L1655,348.7969 A3.5,3.5 0 0 1 1651.5,352.2969 L1285.5,352.2969 A3.5,3.5 0 0 1 1282,348.7969 L1282,132.7969 A3.5,3.5 0 0 1 1285.5,129.2969 " fill="none" style="stroke:#696969;stroke-width:1.0;"/><line style="stroke:#696969;stroke-width:1.0;" x1="1282" x2="1325" y1="151.5938" y2="151.5938"/><text fill="#000000" font-family="sans-serif" font-size="14" font-weight="bold" lengthAdjust="spacing" textLength="30" x="1286" y="144.292">Dos</text></g><!--cluster Daos--><g id="cluster_Daos"><path d="M977.5,129.2969 L1016.5,129.2969 A5.25,5.25 0 0 1 1020,132.7969 L1027,151.5938 L1254.5,151.5938 A3.5,3.5 0 0 1 1258,155.0938 L1258,224.7969 A3.5,3.5 0 0 1 1254.5,228.2969 L977.5,228.2969 A3.5,3.5 0 0 1 974,224.7969 L974,132.7969 A3.5,3.5 0 0 1 977.5,129.2969 " fill="none" style="stroke:#696969;stroke-width:1.0;"/><line style="stroke:#696969;stroke-width:1.0;" x1="974" x2="1027" y1="151.5938" y2="151.5938"/><text fill="#000000" font-family="sans-serif" font-size="14" font-weight="bold" lengthAdjust="spacing" textLength="40" x="978" y="144.292">Daos</text></g><!--cluster Bos--><g id="cluster_Bos"><path d="M616.5,129.2969 L645.5,129.2969 A5.25,5.25 0 0 1 649,132.7969 L656,151.5938 L946.5,151.5938 A3.5,3.5 0 0 1 950,155.0938 L950,340.7969 A3.5,3.5 0 0 1 946.5,344.2969 L616.5,344.2969 A3.5,3.5 0 0 1 613,340.7969 L613,132.7969 A3.5,3.5 0 0 1 616.5,129.2969 " fill="none" style="stroke:#696969;stroke-width:1.0;"/><line style="stroke:#696969;stroke-width:1.0;" x1="613" x2="656" y1="151.5938" y2="151.5938"/><text fill="#000000" font-family="sans-serif" font-size="14" font-weight="bold" lengthAdjust="spacing" textLength="30" x="617" y="144.292">Bos</text></g><!--cluster Factories--><g id="cluster_Factories"><path d="M305.5,129.2969 L380.5,129.2969 A5.25,5.25 0 0 1 384,132.7969 L391,151.5938 L585.5,151.5938 A3.5,3.5 0 0 1 589,155.0938 L589,340.7969 A3.5,3.5 0 0 1 585.5,344.2969 L305.5,344.2969 A3.5,3.5 0 0 1 302,340.7969 L302,132.7969 A3.5,3.5 0 0 1 305.5,129.2969 " fill="none" style="stroke:#696969;stroke-width:1.0;"/><line style="stroke:#696969;stroke-width:1.0;" x1="302" x2="391" y1="151.5938" y2="151.5938"/><text fill="#000000" font-family="sans-serif" font-size="14" font-weight="bold" lengthAdjust="spacing" textLength="76" x="306" y="144.292">Factories</text></g><!--cluster Helpers--><g id="cluster_Helpers"><path d="M551.5,392.2969 L610.5,392.2969 A5.25,5.25 0 0 1 614,395.7969 L621,414.5938 L1087.5,414.5938 A3.5,3.5 0 0 1 1091,418.0938 L1091,595.7969 A3.5,3.5 0 0 1 1087.5,599.2969 L551.5,599.2969 A3.5,3.5 0 0 1 548,595.7969 L548,395.7969 A3.5,3.5 0 0 1 551.5,392.2969 " fill="none" style="stroke:#696969;stroke-width:1.0;"/><line style="stroke:#696969;stroke-width:1.0;" x1="548" x2="621" y1="414.5938" y2="414.5938"/><text fill="#000000" font-family="sans-serif" font-size="14" font-weight="bold" lengthAdjust="spacing" textLength="60" x="552" y="407.292">Helpers</text></g><!--cluster VIEW--><g id="cluster_VIEW"><path d="M33.5,86.2969 L72.5,86.2969 A5.25,5.25 0 0 1 76,89.7969 L83,108.5938 L250.5,108.5938 A3.5,3.5 0 0 1 254,112.0938 L254,364.7969 A3.5,3.5 0 0 1 250.5,368.2969 L33.5,368.2969 A3.5,3.5 0 0 1 30,364.7969 L30,89.7969 A3.5,3.5 0 0 1 33.5,86.2969 " fill="none" style="stroke:#696969;stroke-width:1.0;"/><line style="stroke:#696969;stroke-width:1.0;" x1="30" x2="83" y1="108.5938" y2="108.5938"/><text fill="#000000" font-family="sans-serif" font-size="14" font-weight="bold" lengthAdjust="spacing" textLength="40" x="34" y="101.292">VIEW</text></g><!--cluster Views--><g id="cluster_Views"><path d="M57.5,129.2969 L103.5,129.2969 A5.25,5.25 0 0 1 107,132.7969 L114,151.5938 L226.5,151.5938 A3.5,3.5 0 0 1 230,155.0938 L230,340.7969 A3.5,3.5 0 0 1 226.5,344.2969 L57.5,344.2969 A3.5,3.5 0 0 1 54,340.7969 L54,132.7969 A3.5,3.5 0 0 1 57.5,129.2969 " fill="none" style="stroke:#696969;stroke-width:1.0;"/><line style="stroke:#696969;stroke-width:1.0;" x1="54" x2="114" y1="151.5938" y2="151.5938"/><text fill="#000000" font-family="sans-serif" font-size="14" font-weight="bold" lengthAdjust="spacing" textLength="47" x="58" y="144.292">Views</text></g><!--class ViewDo--><g id="elem_ViewDo"><rect codeLine="13" fill="#F1F1F1" height="48" id="ViewDo" rx="3.5" ry="3.5" style="stroke:#181818;stroke-width:0.5;" width="86" x="1553" y="164.2969"/><ellipse cx="1568" cy="180.2969" fill="#ADD1B2" rx="11" ry="11" style="stroke:#181818;stroke-width:1.0;"/><path d="M1570.3438,175.9688 C1569.4063,175.5313 1568.8125,175.3906 1567.9375,175.3906 C1565.3125,175.3906 1563.3125,177.4688 1563.3125,180.1875 L1563.3125,181.3125 C1563.3125,183.8906 1565.4219,185.7813 1568.3125,185.7813 C1569.5313,185.7813 1570.6875,185.4844 1571.4375,184.9375 C1572.0156,184.5313 1572.3438,184.0781 1572.3438,183.6875 C1572.3438,183.2344 1571.9531,182.8438 1571.4844,182.8438 C1571.2656,182.8438 1571.0625,182.9219 1570.875,183.1094 C1570.4219,183.5938 1570.4219,183.5938 1570.2344,183.6875 C1569.8125,183.9531 1569.125,184.0781 1568.3594,184.0781 C1566.3125,184.0781 1565.0156,182.9844 1565.0156,181.2813 L1565.0156,180.1875 C1565.0156,178.4063 1566.2656,177.0938 1568,177.0938 C1568.5781,177.0938 1569.1875,177.25 1569.6563,177.5 C1570.1406,177.7813 1570.3125,178 1570.4063,178.4063 C1570.4688,178.8125 1570.5,178.9375 1570.6406,179.0625 C1570.7813,179.2031 1571.0156,179.3125 1571.2344,179.3125 C1571.5,179.3125 1571.7656,179.1719 1571.9375,178.9531 C1572.0469,178.7969 1572.0781,178.6094 1572.0781,178.1875 L1572.0781,176.7656 C1572.0781,176.3281 1572.0625,176.2031 1571.9688,176.0469 C1571.8125,175.7813 1571.5313,175.6406 1571.2344,175.6406 C1570.9375,175.6406 1570.7344,175.7344 1570.5156,176.0469 L1570.3438,175.9688 Z " fill="#000000"/><text fill="#000000" font-family="sans-serif" font-size="14" lengthAdjust="spacing" textLength="54" x="1582" y="185.1436">ViewDo</text><line style="stroke:#181818;stroke-width:0.5;" x1="1554" x2="1638" y1="196.2969" y2="196.2969"/><line style="stroke:#181818;stroke-width:0.5;" x1="1554" x2="1638" y1="204.2969" y2="204.2969"/></g><!--class TavernRaidAbstractDo--><g id="elem_TavernRaidAbstractDo"><rect codeLine="14" fill="#F1F1F1" height="64.2969" id="TavernRaidAbstractDo" rx="3.5" ry="3.5" style="stroke:#181818;stroke-width:0.5;" width="230" x="1329" y="272.2969"/><ellipse cx="1359.75" cy="288.2969" fill="#ADD1B2" rx="11" ry="11" style="stroke:#181818;stroke-width:1.0;"/><path d="M1362.0938,283.9688 C1361.1563,283.5313 1360.5625,283.3906 1359.6875,283.3906 C1357.0625,283.3906 1355.0625,285.4688 1355.0625,288.1875 L1355.0625,289.3125 C1355.0625,291.8906 1357.1719,293.7813 1360.0625,293.7813 C1361.2813,293.7813 1362.4375,293.4844 1363.1875,292.9375 C1363.7656,292.5313 1364.0938,292.0781 1364.0938,291.6875 C1364.0938,291.2344 1363.7031,290.8438 1363.2344,290.8438 C1363.0156,290.8438 1362.8125,290.9219 1362.625,291.1094 C1362.1719,291.5938 1362.1719,291.5938 1361.9844,291.6875 C1361.5625,291.9531 1360.875,292.0781 1360.1094,292.0781 C1358.0625,292.0781 1356.7656,290.9844 1356.7656,289.2813 L1356.7656,288.1875 C1356.7656,286.4063 1358.0156,285.0938 1359.75,285.0938 C1360.3281,285.0938 1360.9375,285.25 1361.4063,285.5 C1361.8906,285.7813 1362.0625,286 1362.1563,286.4063 C1362.2188,286.8125 1362.25,286.9375 1362.3906,287.0625 C1362.5313,287.2031 1362.7656,287.3125 1362.9844,287.3125 C1363.25,287.3125 1363.5156,287.1719 1363.6875,286.9531 C1363.7969,286.7969 1363.8281,286.6094 1363.8281,286.1875 L1363.8281,284.7656 C1363.8281,284.3281 1363.8125,284.2031 1363.7188,284.0469 C1363.5625,283.7813 1363.2813,283.6406 1362.9844,283.6406 C1362.6875,283.6406 1362.4844,283.7344 1362.2656,284.0469 L1362.0938,283.9688 Z " fill="#000000"/><text fill="#000000" font-family="sans-serif" font-size="14" lengthAdjust="spacing" textLength="163" x="1377.25" y="293.1436">TavernRaidAbstractDo</text><line style="stroke:#181818;stroke-width:0.5;" x1="1330" x2="1558" y1="304.2969" y2="304.2969"/><line style="stroke:#181818;stroke-width:0.5;" x1="1330" x2="1558" y1="312.2969" y2="312.2969"/><text fill="#000000" font-family="sans-serif" font-size="14" lengthAdjust="spacing" textLength="218" x="1335" y="329.292">__construct($attributes = null)</text></g><!--class UserDo--><g id="elem_UserDo"><rect codeLine="18" fill="#F1F1F1" height="48" id="UserDo" rx="3.5" ry="3.5" style="stroke:#181818;stroke-width:0.5;" width="83" x="1434.5" y="164.2969"/><ellipse cx="1449.5" cy="180.2969" fill="#ADD1B2" rx="11" ry="11" style="stroke:#181818;stroke-width:1.0;"/><path d="M1451.8438,175.9688 C1450.9063,175.5313 1450.3125,175.3906 1449.4375,175.3906 C1446.8125,175.3906 1444.8125,177.4688 1444.8125,180.1875 L1444.8125,181.3125 C1444.8125,183.8906 1446.9219,185.7813 1449.8125,185.7813 C1451.0313,185.7813 1452.1875,185.4844 1452.9375,184.9375 C1453.5156,184.5313 1453.8438,184.0781 1453.8438,183.6875 C1453.8438,183.2344 1453.4531,182.8438 1452.9844,182.8438 C1452.7656,182.8438 1452.5625,182.9219 1452.375,183.1094 C1451.9219,183.5938 1451.9219,183.5938 1451.7344,183.6875 C1451.3125,183.9531 1450.625,184.0781 1449.8594,184.0781 C1447.8125,184.0781 1446.5156,182.9844 1446.5156,181.2813 L1446.5156,180.1875 C1446.5156,178.4063 1447.7656,177.0938 1449.5,177.0938 C1450.0781,177.0938 1450.6875,177.25 1451.1563,177.5 C1451.6406,177.7813 1451.8125,178 1451.9063,178.4063 C1451.9688,178.8125 1452,178.9375 1452.1406,179.0625 C1452.2813,179.2031 1452.5156,179.3125 1452.7344,179.3125 C1453,179.3125 1453.2656,179.1719 1453.4375,178.9531 C1453.5469,178.7969 1453.5781,178.6094 1453.5781,178.1875 L1453.5781,176.7656 C1453.5781,176.3281 1453.5625,176.2031 1453.4688,176.0469 C1453.3125,175.7813 1453.0313,175.6406 1452.7344,175.6406 C1452.4375,175.6406 1452.2344,175.7344 1452.0156,176.0469 L1451.8438,175.9688 Z " fill="#000000"/><text fill="#000000" font-family="sans-serif" font-size="14" lengthAdjust="spacing" textLength="51" x="1463.5" y="185.1436">UserDo</text><line style="stroke:#181818;stroke-width:0.5;" x1="1435.5" x2="1516.5" y1="196.2969" y2="196.2969"/><line style="stroke:#181818;stroke-width:0.5;" x1="1435.5" x2="1516.5" y1="204.2969" y2="204.2969"/></g><!--class TavernDo--><g id="elem_TavernDo"><rect codeLine="20" fill="#F1F1F1" height="48" id="TavernDo" rx="3.5" ry="3.5" style="stroke:#181818;stroke-width:0.5;" width="101" x="1298.5" y="164.2969"/><ellipse cx="1313.5" cy="180.2969" fill="#ADD1B2" rx="11" ry="11" style="stroke:#181818;stroke-width:1.0;"/><path d="M1315.8438,175.9688 C1314.9063,175.5313 1314.3125,175.3906 1313.4375,175.3906 C1310.8125,175.3906 1308.8125,177.4688 1308.8125,180.1875 L1308.8125,181.3125 C1308.8125,183.8906 1310.9219,185.7813 1313.8125,185.7813 C1315.0313,185.7813 1316.1875,185.4844 1316.9375,184.9375 C1317.5156,184.5313 1317.8438,184.0781 1317.8438,183.6875 C1317.8438,183.2344 1317.4531,182.8438 1316.9844,182.8438 C1316.7656,182.8438 1316.5625,182.9219 1316.375,183.1094 C1315.9219,183.5938 1315.9219,183.5938 1315.7344,183.6875 C1315.3125,183.9531 1314.625,184.0781 1313.8594,184.0781 C1311.8125,184.0781 1310.5156,182.9844 1310.5156,181.2813 L1310.5156,180.1875 C1310.5156,178.4063 1311.7656,177.0938 1313.5,177.0938 C1314.0781,177.0938 1314.6875,177.25 1315.1563,177.5 C1315.6406,177.7813 1315.8125,178 1315.9063,178.4063 C1315.9688,178.8125 1316,178.9375 1316.1406,179.0625 C1316.2813,179.2031 1316.5156,179.3125 1316.7344,179.3125 C1317,179.3125 1317.2656,179.1719 1317.4375,178.9531 C1317.5469,178.7969 1317.5781,178.6094 1317.5781,178.1875 L1317.5781,176.7656 C1317.5781,176.3281 1317.5625,176.2031 1317.4688,176.0469 C1317.3125,175.7813 1317.0313,175.6406 1316.7344,175.6406 C1316.4375,175.6406 1316.2344,175.7344 1316.0156,176.0469 L1315.8438,175.9688 Z " fill="#000000"/><text fill="#000000" font-family="sans-serif" font-size="14" lengthAdjust="spacing" textLength="69" x="1327.5" y="185.1436">TavernDo</text><line style="stroke:#181818;stroke-width:0.5;" x1="1299.5" x2="1398.5" y1="196.2969" y2="196.2969"/><line style="stroke:#181818;stroke-width:0.5;" x1="1299.5" x2="1398.5" y1="204.2969" y2="204.2969"/></g><!--class CommonDao--><g id="elem_CommonDao"><rect codeLine="24" fill="#F1F1F1" height="48" id="CommonDao" rx="3.5" ry="3.5" style="stroke:#181818;stroke-width:0.5;" width="125" x="1116.5" y="164.2969"/><ellipse cx="1131.5" cy="180.2969" fill="#ADD1B2" rx="11" ry="11" style="stroke:#181818;stroke-width:1.0;"/><path d="M1133.8438,175.9688 C1132.9063,175.5313 1132.3125,175.3906 1131.4375,175.3906 C1128.8125,175.3906 1126.8125,177.4688 1126.8125,180.1875 L1126.8125,181.3125 C1126.8125,183.8906 1128.9219,185.7813 1131.8125,185.7813 C1133.0313,185.7813 1134.1875,185.4844 1134.9375,184.9375 C1135.5156,184.5313 1135.8438,184.0781 1135.8438,183.6875 C1135.8438,183.2344 1135.4531,182.8438 1134.9844,182.8438 C1134.7656,182.8438 1134.5625,182.9219 1134.375,183.1094 C1133.9219,183.5938 1133.9219,183.5938 1133.7344,183.6875 C1133.3125,183.9531 1132.625,184.0781 1131.8594,184.0781 C1129.8125,184.0781 1128.5156,182.9844 1128.5156,181.2813 L1128.5156,180.1875 C1128.5156,178.4063 1129.7656,177.0938 1131.5,177.0938 C1132.0781,177.0938 1132.6875,177.25 1133.1563,177.5 C1133.6406,177.7813 1133.8125,178 1133.9063,178.4063 C1133.9688,178.8125 1134,178.9375 1134.1406,179.0625 C1134.2813,179.2031 1134.5156,179.3125 1134.7344,179.3125 C1135,179.3125 1135.2656,179.1719 1135.4375,178.9531 C1135.5469,178.7969 1135.5781,178.6094 1135.5781,178.1875 L1135.5781,176.7656 C1135.5781,176.3281 1135.5625,176.2031 1135.4688,176.0469 C1135.3125,175.7813 1135.0313,175.6406 1134.7344,175.6406 C1134.4375,175.6406 1134.2344,175.7344 1134.0156,176.0469 L1133.8438,175.9688 Z " fill="#000000"/><text fill="#000000" font-family="sans-serif" font-size="14" lengthAdjust="spacing" textLength="93" x="1145.5" y="185.1436">CommonDao</text><line style="stroke:#181818;stroke-width:0.5;" x1="1117.5" x2="1240.5" y1="196.2969" y2="196.2969"/><line style="stroke:#181818;stroke-width:0.5;" x1="1117.5" x2="1240.5" y1="204.2969" y2="204.2969"/></g><!--class UserDao--><g id="elem_UserDao"><rect codeLine="25" fill="#F1F1F1" height="48" id="UserDao" rx="3.5" ry="3.5" style="stroke:#181818;stroke-width:0.5;" width="91" x="990.5" y="164.2969"/><ellipse cx="1005.5" cy="180.2969" fill="#ADD1B2" rx="11" ry="11" style="stroke:#181818;stroke-width:1.0;"/><path d="M1007.8438,175.9688 C1006.9063,175.5313 1006.3125,175.3906 1005.4375,175.3906 C1002.8125,175.3906 1000.8125,177.4688 1000.8125,180.1875 L1000.8125,181.3125 C1000.8125,183.8906 1002.9219,185.7813 1005.8125,185.7813 C1007.0313,185.7813 1008.1875,185.4844 1008.9375,184.9375 C1009.5156,184.5313 1009.8438,184.0781 1009.8438,183.6875 C1009.8438,183.2344 1009.4531,182.8438 1008.9844,182.8438 C1008.7656,182.8438 1008.5625,182.9219 1008.375,183.1094 C1007.9219,183.5938 1007.9219,183.5938 1007.7344,183.6875 C1007.3125,183.9531 1006.625,184.0781 1005.8594,184.0781 C1003.8125,184.0781 1002.5156,182.9844 1002.5156,181.2813 L1002.5156,180.1875 C1002.5156,178.4063 1003.7656,177.0938 1005.5,177.0938 C1006.0781,177.0938 1006.6875,177.25 1007.1563,177.5 C1007.6406,177.7813 1007.8125,178 1007.9063,178.4063 C1007.9688,178.8125 1008,178.9375 1008.1406,179.0625 C1008.2813,179.2031 1008.5156,179.3125 1008.7344,179.3125 C1009,179.3125 1009.2656,179.1719 1009.4375,178.9531 C1009.5469,178.7969 1009.5781,178.6094 1009.5781,178.1875 L1009.5781,176.7656 C1009.5781,176.3281 1009.5625,176.2031 1009.4688,176.0469 C1009.3125,175.7813 1009.0313,175.6406 1008.7344,175.6406 C1008.4375,175.6406 1008.2344,175.7344 1008.0156,176.0469 L1007.8438,175.9688 Z " fill="#000000"/><text fill="#000000" font-family="sans-serif" font-size="14" lengthAdjust="spacing" textLength="59" x="1019.5" y="185.1436">UserDao</text><line style="stroke:#181818;stroke-width:0.5;" x1="991.5" x2="1080.5" y1="196.2969" y2="196.2969"/><line style="stroke:#181818;stroke-width:0.5;" x1="991.5" x2="1080.5" y1="204.2969" y2="204.2969"/></g><!--class MysqlDatabaseBo--><g id="elem_MysqlDatabaseBo"><rect codeLine="29" fill="#F1F1F1" height="48" id="MysqlDatabaseBo" rx="3.5" ry="3.5" style="stroke:#181818;stroke-width:0.5;" width="159" x="629.5" y="164.2969"/><ellipse cx="644.5" cy="180.2969" fill="#ADD1B2" rx="11" ry="11" style="stroke:#181818;stroke-width:1.0;"/><path d="M646.8438,175.9688 C645.9063,175.5313 645.3125,175.3906 644.4375,175.3906 C641.8125,175.3906 639.8125,177.4688 639.8125,180.1875 L639.8125,181.3125 C639.8125,183.8906 641.9219,185.7813 644.8125,185.7813 C646.0313,185.7813 647.1875,185.4844 647.9375,184.9375 C648.5156,184.5313 648.8438,184.0781 648.8438,183.6875 C648.8438,183.2344 648.4531,182.8438 647.9844,182.8438 C647.7656,182.8438 647.5625,182.9219 647.375,183.1094 C646.9219,183.5938 646.9219,183.5938 646.7344,183.6875 C646.3125,183.9531 645.625,184.0781 644.8594,184.0781 C642.8125,184.0781 641.5156,182.9844 641.5156,181.2813 L641.5156,180.1875 C641.5156,178.4063 642.7656,177.0938 644.5,177.0938 C645.0781,177.0938 645.6875,177.25 646.1563,177.5 C646.6406,177.7813 646.8125,178 646.9063,178.4063 C646.9688,178.8125 647,178.9375 647.1406,179.0625 C647.2813,179.2031 647.5156,179.3125 647.7344,179.3125 C648,179.3125 648.2656,179.1719 648.4375,178.9531 C648.5469,178.7969 648.5781,178.6094 648.5781,178.1875 L648.5781,176.7656 C648.5781,176.3281 648.5625,176.2031 648.4688,176.0469 C648.3125,175.7813 648.0313,175.6406 647.7344,175.6406 C647.4375,175.6406 647.2344,175.7344 647.0156,176.0469 L646.8438,175.9688 Z " fill="#000000"/><text fill="#000000" font-family="sans-serif" font-size="14" lengthAdjust="spacing" textLength="127" x="658.5" y="185.1436">MysqlDatabaseBo</text><line style="stroke:#181818;stroke-width:0.5;" x1="630.5" x2="787.5" y1="196.2969" y2="196.2969"/><line style="stroke:#181818;stroke-width:0.5;" x1="630.5" x2="787.5" y1="204.2969" y2="204.2969"/></g><!--class SecurityBo--><g id="elem_SecurityBo"><rect codeLine="30" fill="#F1F1F1" height="48" id="SecurityBo" rx="3.5" ry="3.5" style="stroke:#181818;stroke-width:0.5;" width="110" x="824" y="164.2969"/><ellipse cx="839" cy="180.2969" fill="#ADD1B2" rx="11" ry="11" style="stroke:#181818;stroke-width:1.0;"/><path d="M841.3438,175.9688 C840.4063,175.5313 839.8125,175.3906 838.9375,175.3906 C836.3125,175.3906 834.3125,177.4688 834.3125,180.1875 L834.3125,181.3125 C834.3125,183.8906 836.4219,185.7813 839.3125,185.7813 C840.5313,185.7813 841.6875,185.4844 842.4375,184.9375 C843.0156,184.5313 843.3438,184.0781 843.3438,183.6875 C843.3438,183.2344 842.9531,182.8438 842.4844,182.8438 C842.2656,182.8438 842.0625,182.9219 841.875,183.1094 C841.4219,183.5938 841.4219,183.5938 841.2344,183.6875 C840.8125,183.9531 840.125,184.0781 839.3594,184.0781 C837.3125,184.0781 836.0156,182.9844 836.0156,181.2813 L836.0156,180.1875 C836.0156,178.4063 837.2656,177.0938 839,177.0938 C839.5781,177.0938 840.1875,177.25 840.6563,177.5 C841.1406,177.7813 841.3125,178 841.4063,178.4063 C841.4688,178.8125 841.5,178.9375 841.6406,179.0625 C841.7813,179.2031 842.0156,179.3125 842.2344,179.3125 C842.5,179.3125 842.7656,179.1719 842.9375,178.9531 C843.0469,178.7969 843.0781,178.6094 843.0781,178.1875 L843.0781,176.7656 C843.0781,176.3281 843.0625,176.2031 842.9688,176.0469 C842.8125,175.7813 842.5313,175.6406 842.2344,175.6406 C841.9375,175.6406 841.7344,175.7344 841.5156,176.0469 L841.3438,175.9688 Z " fill="#000000"/><text fill="#000000" font-family="sans-serif" font-size="14" lengthAdjust="spacing" textLength="78" x="853" y="185.1436">SecurityBo</text><line style="stroke:#181818;stroke-width:0.5;" x1="825" x2="933" y1="196.2969" y2="196.2969"/><line style="stroke:#181818;stroke-width:0.5;" x1="825" x2="933" y1="204.2969" y2="204.2969"/></g><!--class UserBo--><g id="elem_UserBo"><rect codeLine="31" fill="#F1F1F1" height="48" id="UserBo" rx="3.5" ry="3.5" style="stroke:#181818;stroke-width:0.5;" width="82" x="668" y="280.2969"/><ellipse cx="683" cy="296.2969" fill="#ADD1B2" rx="11" ry="11" style="stroke:#181818;stroke-width:1.0;"/><path d="M685.3438,291.9688 C684.4063,291.5313 683.8125,291.3906 682.9375,291.3906 C680.3125,291.3906 678.3125,293.4688 678.3125,296.1875 L678.3125,297.3125 C678.3125,299.8906 680.4219,301.7813 683.3125,301.7813 C684.5313,301.7813 685.6875,301.4844 686.4375,300.9375 C687.0156,300.5313 687.3438,300.0781 687.3438,299.6875 C687.3438,299.2344 686.9531,298.8438 686.4844,298.8438 C686.2656,298.8438 686.0625,298.9219 685.875,299.1094 C685.4219,299.5938 685.4219,299.5938 685.2344,299.6875 C684.8125,299.9531 684.125,300.0781 683.3594,300.0781 C681.3125,300.0781 680.0156,298.9844 680.0156,297.2813 L680.0156,296.1875 C680.0156,294.4063 681.2656,293.0938 683,293.0938 C683.5781,293.0938 684.1875,293.25 684.6563,293.5 C685.1406,293.7813 685.3125,294 685.4063,294.4063 C685.4688,294.8125 685.5,294.9375 685.6406,295.0625 C685.7813,295.2031 686.0156,295.3125 686.2344,295.3125 C686.5,295.3125 686.7656,295.1719 686.9375,294.9531 C687.0469,294.7969 687.0781,294.6094 687.0781,294.1875 L687.0781,292.7656 C687.0781,292.3281 687.0625,292.2031 686.9688,292.0469 C686.8125,291.7813 686.5313,291.6406 686.2344,291.6406 C685.9375,291.6406 685.7344,291.7344 685.5156,292.0469 L685.3438,291.9688 Z " fill="#000000"/><text fill="#000000" font-family="sans-serif" font-size="14" lengthAdjust="spacing" textLength="50" x="697" y="301.1436">UserBo</text><line style="stroke:#181818;stroke-width:0.5;" x1="669" x2="749" y1="312.2969" y2="312.2969"/><line style="stroke:#181818;stroke-width:0.5;" x1="669" x2="749" y1="320.2969" y2="320.2969"/></g><!--class DoFactory--><g id="elem_DoFactory"><rect codeLine="35" fill="#F1F1F1" height="48" id="DoFactory" rx="3.5" ry="3.5" style="stroke:#181818;stroke-width:0.5;" width="106" x="318" y="164.2969"/><ellipse cx="333" cy="180.2969" fill="#ADD1B2" rx="11" ry="11" style="stroke:#181818;stroke-width:1.0;"/><path d="M335.3438,175.9688 C334.4063,175.5313 333.8125,175.3906 332.9375,175.3906 C330.3125,175.3906 328.3125,177.4688 328.3125,180.1875 L328.3125,181.3125 C328.3125,183.8906 330.4219,185.7813 333.3125,185.7813 C334.5313,185.7813 335.6875,185.4844 336.4375,184.9375 C337.0156,184.5313 337.3438,184.0781 337.3438,183.6875 C337.3438,183.2344 336.9531,182.8438 336.4844,182.8438 C336.2656,182.8438 336.0625,182.9219 335.875,183.1094 C335.4219,183.5938 335.4219,183.5938 335.2344,183.6875 C334.8125,183.9531 334.125,184.0781 333.3594,184.0781 C331.3125,184.0781 330.0156,182.9844 330.0156,181.2813 L330.0156,180.1875 C330.0156,178.4063 331.2656,177.0938 333,177.0938 C333.5781,177.0938 334.1875,177.25 334.6563,177.5 C335.1406,177.7813 335.3125,178 335.4063,178.4063 C335.4688,178.8125 335.5,178.9375 335.6406,179.0625 C335.7813,179.2031 336.0156,179.3125 336.2344,179.3125 C336.5,179.3125 336.7656,179.1719 336.9375,178.9531 C337.0469,178.7969 337.0781,178.6094 337.0781,178.1875 L337.0781,176.7656 C337.0781,176.3281 337.0625,176.2031 336.9688,176.0469 C336.8125,175.7813 336.5313,175.6406 336.2344,175.6406 C335.9375,175.6406 335.7344,175.7344 335.5156,176.0469 L335.3438,175.9688 Z " fill="#000000"/><text fill="#000000" font-family="sans-serif" font-size="14" lengthAdjust="spacing" textLength="74" x="347" y="185.1436">DoFactory</text><line style="stroke:#181818;stroke-width:0.5;" x1="319" x2="423" y1="196.2969" y2="196.2969"/><line style="stroke:#181818;stroke-width:0.5;" x1="319" x2="423" y1="204.2969" y2="204.2969"/></g><!--class DaoFactory--><g id="elem_DaoFactory"><rect codeLine="36" fill="#F1F1F1" height="48" id="DaoFactory" rx="3.5" ry="3.5" style="stroke:#181818;stroke-width:0.5;" width="114" x="459" y="164.2969"/><ellipse cx="474" cy="180.2969" fill="#ADD1B2" rx="11" ry="11" style="stroke:#181818;stroke-width:1.0;"/><path d="M476.3438,175.9688 C475.4063,175.5313 474.8125,175.3906 473.9375,175.3906 C471.3125,175.3906 469.3125,177.4688 469.3125,180.1875 L469.3125,181.3125 C469.3125,183.8906 471.4219,185.7813 474.3125,185.7813 C475.5313,185.7813 476.6875,185.4844 477.4375,184.9375 C478.0156,184.5313 478.3438,184.0781 478.3438,183.6875 C478.3438,183.2344 477.9531,182.8438 477.4844,182.8438 C477.2656,182.8438 477.0625,182.9219 476.875,183.1094 C476.4219,183.5938 476.4219,183.5938 476.2344,183.6875 C475.8125,183.9531 475.125,184.0781 474.3594,184.0781 C472.3125,184.0781 471.0156,182.9844 471.0156,181.2813 L471.0156,180.1875 C471.0156,178.4063 472.2656,177.0938 474,177.0938 C474.5781,177.0938 475.1875,177.25 475.6563,177.5 C476.1406,177.7813 476.3125,178 476.4063,178.4063 C476.4688,178.8125 476.5,178.9375 476.6406,179.0625 C476.7813,179.2031 477.0156,179.3125 477.2344,179.3125 C477.5,179.3125 477.7656,179.1719 477.9375,178.9531 C478.0469,178.7969 478.0781,178.6094 478.0781,178.1875 L478.0781,176.7656 C478.0781,176.3281 478.0625,176.2031 477.9688,176.0469 C477.8125,175.7813 477.5313,175.6406 477.2344,175.6406 C476.9375,175.6406 476.7344,175.7344 476.5156,176.0469 L476.3438,175.9688 Z " fill="#000000"/><text fill="#000000" font-family="sans-serif" font-size="14" lengthAdjust="spacing" textLength="82" x="488" y="185.1436">DaoFactory</text><line style="stroke:#181818;stroke-width:0.5;" x1="460" x2="572" y1="196.2969" y2="196.2969"/><line style="stroke:#181818;stroke-width:0.5;" x1="460" x2="572" y1="204.2969" y2="204.2969"/></g><!--class BoFactory--><g id="elem_BoFactory"><rect codeLine="37" fill="#F1F1F1" height="48" id="BoFactory" rx="3.5" ry="3.5" style="stroke:#181818;stroke-width:0.5;" width="105" x="318.5" y="280.2969"/><ellipse cx="333.5" cy="296.2969" fill="#ADD1B2" rx="11" ry="11" style="stroke:#181818;stroke-width:1.0;"/><path d="M335.8438,291.9688 C334.9063,291.5313 334.3125,291.3906 333.4375,291.3906 C330.8125,291.3906 328.8125,293.4688 328.8125,296.1875 L328.8125,297.3125 C328.8125,299.8906 330.9219,301.7813 333.8125,301.7813 C335.0313,301.7813 336.1875,301.4844 336.9375,300.9375 C337.5156,300.5313 337.8438,300.0781 337.8438,299.6875 C337.8438,299.2344 337.4531,298.8438 336.9844,298.8438 C336.7656,298.8438 336.5625,298.9219 336.375,299.1094 C335.9219,299.5938 335.9219,299.5938 335.7344,299.6875 C335.3125,299.9531 334.625,300.0781 333.8594,300.0781 C331.8125,300.0781 330.5156,298.9844 330.5156,297.2813 L330.5156,296.1875 C330.5156,294.4063 331.7656,293.0938 333.5,293.0938 C334.0781,293.0938 334.6875,293.25 335.1563,293.5 C335.6406,293.7813 335.8125,294 335.9063,294.4063 C335.9688,294.8125 336,294.9375 336.1406,295.0625 C336.2813,295.2031 336.5156,295.3125 336.7344,295.3125 C337,295.3125 337.2656,295.1719 337.4375,294.9531 C337.5469,294.7969 337.5781,294.6094 337.5781,294.1875 L337.5781,292.7656 C337.5781,292.3281 337.5625,292.2031 337.4688,292.0469 C337.3125,291.7813 337.0313,291.6406 336.7344,291.6406 C336.4375,291.6406 336.2344,291.7344 336.0156,292.0469 L335.8438,291.9688 Z " fill="#000000"/><text fill="#000000" font-family="sans-serif" font-size="14" lengthAdjust="spacing" textLength="73" x="347.5" y="301.1436">BoFactory</text><line style="stroke:#181818;stroke-width:0.5;" x1="319.5" x2="422.5" y1="312.2969" y2="312.2969"/><line style="stroke:#181818;stroke-width:0.5;" x1="319.5" x2="422.5" y1="320.2969" y2="320.2969"/></g><!--class TavernRaidRequestResponseHelper--><g id="elem_TavernRaidRequestResponseHelper"><rect codeLine="41" fill="#F1F1F1" height="48" id="TavernRaidRequestResponseHelper" rx="3.5" ry="3.5" style="stroke:#181818;stroke-width:0.5;" width="289" x="564.5" y="427.2969"/><ellipse cx="579.5" cy="443.2969" fill="#ADD1B2" rx="11" ry="11" style="stroke:#181818;stroke-width:1.0;"/><path d="M581.8438,438.9688 C580.9063,438.5313 580.3125,438.3906 579.4375,438.3906 C576.8125,438.3906 574.8125,440.4688 574.8125,443.1875 L574.8125,444.3125 C574.8125,446.8906 576.9219,448.7813 579.8125,448.7813 C581.0313,448.7813 582.1875,448.4844 582.9375,447.9375 C583.5156,447.5313 583.8438,447.0781 583.8438,446.6875 C583.8438,446.2344 583.4531,445.8438 582.9844,445.8438 C582.7656,445.8438 582.5625,445.9219 582.375,446.1094 C581.9219,446.5938 581.9219,446.5938 581.7344,446.6875 C581.3125,446.9531 580.625,447.0781 579.8594,447.0781 C577.8125,447.0781 576.5156,445.9844 576.5156,444.2813 L576.5156,443.1875 C576.5156,441.4063 577.7656,440.0938 579.5,440.0938 C580.0781,440.0938 580.6875,440.25 581.1563,440.5 C581.6406,440.7813 581.8125,441 581.9063,441.4063 C581.9688,441.8125 582,441.9375 582.1406,442.0625 C582.2813,442.2031 582.5156,442.3125 582.7344,442.3125 C583,442.3125 583.2656,442.1719 583.4375,441.9531 C583.5469,441.7969 583.5781,441.6094 583.5781,441.1875 L583.5781,439.7656 C583.5781,439.3281 583.5625,439.2031 583.4688,439.0469 C583.3125,438.7813 583.0313,438.6406 582.7344,438.6406 C582.4375,438.6406 582.2344,438.7344 582.0156,439.0469 L581.8438,438.9688 Z " fill="#000000"/><text fill="#000000" font-family="sans-serif" font-size="14" lengthAdjust="spacing" textLength="257" x="593.5" y="448.1436">TavernRaidRequestResponseHelper</text><line style="stroke:#181818;stroke-width:0.5;" x1="565.5" x2="852.5" y1="459.2969" y2="459.2969"/><line style="stroke:#181818;stroke-width:0.5;" x1="565.5" x2="852.5" y1="467.2969" y2="467.2969"/></g><!--class TavernRaidLogHelper--><g id="elem_TavernRaidLogHelper"><rect codeLine="42" fill="#F1F1F1" height="48" id="TavernRaidLogHelper" rx="3.5" ry="3.5" style="stroke:#181818;stroke-width:0.5;" width="186" x="889" y="427.2969"/><ellipse cx="904" cy="443.2969" fill="#ADD1B2" rx="11" ry="11" style="stroke:#181818;stroke-width:1.0;"/><path d="M906.3438,438.9688 C905.4063,438.5313 904.8125,438.3906 903.9375,438.3906 C901.3125,438.3906 899.3125,440.4688 899.3125,443.1875 L899.3125,444.3125 C899.3125,446.8906 901.4219,448.7813 904.3125,448.7813 C905.5313,448.7813 906.6875,448.4844 907.4375,447.9375 C908.0156,447.5313 908.3438,447.0781 908.3438,446.6875 C908.3438,446.2344 907.9531,445.8438 907.4844,445.8438 C907.2656,445.8438 907.0625,445.9219 906.875,446.1094 C906.4219,446.5938 906.4219,446.5938 906.2344,446.6875 C905.8125,446.9531 905.125,447.0781 904.3594,447.0781 C902.3125,447.0781 901.0156,445.9844 901.0156,444.2813 L901.0156,443.1875 C901.0156,441.4063 902.2656,440.0938 904,440.0938 C904.5781,440.0938 905.1875,440.25 905.6563,440.5 C906.1406,440.7813 906.3125,441 906.4063,441.4063 C906.4688,441.8125 906.5,441.9375 906.6406,442.0625 C906.7813,442.2031 907.0156,442.3125 907.2344,442.3125 C907.5,442.3125 907.7656,442.1719 907.9375,441.9531 C908.0469,441.7969 908.0781,441.6094 908.0781,441.1875 L908.0781,439.7656 C908.0781,439.3281 908.0625,439.2031 907.9688,439.0469 C907.8125,438.7813 907.5313,438.6406 907.2344,438.6406 C906.9375,438.6406 906.7344,438.7344 906.5156,439.0469 L906.3438,438.9688 Z " fill="#000000"/><text fill="#000000" font-family="sans-serif" font-size="14" lengthAdjust="spacing" textLength="154" x="918" y="448.1436">TavernRaidLogHelper</text><line style="stroke:#181818;stroke-width:0.5;" x1="890" x2="1074" y1="459.2969" y2="459.2969"/><line style="stroke:#181818;stroke-width:0.5;" x1="890" x2="1074" y1="467.2969" y2="467.2969"/></g><!--class TavernRaidStringHelper--><g id="elem_TavernRaidStringHelper"><rect codeLine="43" fill="#F1F1F1" height="48" id="TavernRaidStringHelper" rx="3.5" ry="3.5" style="stroke:#181818;stroke-width:0.5;" width="204" x="607" y="535.2969"/><ellipse cx="622" cy="551.2969" fill="#ADD1B2" rx="11" ry="11" style="stroke:#181818;stroke-width:1.0;"/><path d="M624.3438,546.9688 C623.4063,546.5313 622.8125,546.3906 621.9375,546.3906 C619.3125,546.3906 617.3125,548.4688 617.3125,551.1875 L617.3125,552.3125 C617.3125,554.8906 619.4219,556.7813 622.3125,556.7813 C623.5313,556.7813 624.6875,556.4844 625.4375,555.9375 C626.0156,555.5313 626.3438,555.0781 626.3438,554.6875 C626.3438,554.2344 625.9531,553.8438 625.4844,553.8438 C625.2656,553.8438 625.0625,553.9219 624.875,554.1094 C624.4219,554.5938 624.4219,554.5938 624.2344,554.6875 C623.8125,554.9531 623.125,555.0781 622.3594,555.0781 C620.3125,555.0781 619.0156,553.9844 619.0156,552.2813 L619.0156,551.1875 C619.0156,549.4063 620.2656,548.0938 622,548.0938 C622.5781,548.0938 623.1875,548.25 623.6563,548.5 C624.1406,548.7813 624.3125,549 624.4063,549.4063 C624.4688,549.8125 624.5,549.9375 624.6406,550.0625 C624.7813,550.2031 625.0156,550.3125 625.2344,550.3125 C625.5,550.3125 625.7656,550.1719 625.9375,549.9531 C626.0469,549.7969 626.0781,549.6094 626.0781,549.1875 L626.0781,547.7656 C626.0781,547.3281 626.0625,547.2031 625.9688,547.0469 C625.8125,546.7813 625.5313,546.6406 625.2344,546.6406 C624.9375,546.6406 624.7344,546.7344 624.5156,547.0469 L624.3438,546.9688 Z " fill="#000000"/><text fill="#000000" font-family="sans-serif" font-size="14" lengthAdjust="spacing" textLength="172" x="636" y="556.1436">TavernRaidStringHelper</text><line style="stroke:#181818;stroke-width:0.5;" x1="608" x2="810" y1="567.2969" y2="567.2969"/><line style="stroke:#181818;stroke-width:0.5;" x1="608" x2="810" y1="575.2969" y2="575.2969"/></g><!--class UserMessagesHelper--><g id="elem_UserMessagesHelper"><rect codeLine="44" fill="#F1F1F1" height="48" id="UserMessagesHelper" rx="3.5" ry="3.5" style="stroke:#181818;stroke-width:0.5;" width="179" x="846.5" y="535.2969"/><ellipse cx="861.5" cy="551.2969" fill="#ADD1B2" rx="11" ry="11" style="stroke:#181818;stroke-width:1.0;"/><path d="M863.8438,546.9688 C862.9063,546.5313 862.3125,546.3906 861.4375,546.3906 C858.8125,546.3906 856.8125,548.4688 856.8125,551.1875 L856.8125,552.3125 C856.8125,554.8906 858.9219,556.7813 861.8125,556.7813 C863.0313,556.7813 864.1875,556.4844 864.9375,555.9375 C865.5156,555.5313 865.8438,555.0781 865.8438,554.6875 C865.8438,554.2344 865.4531,553.8438 864.9844,553.8438 C864.7656,553.8438 864.5625,553.9219 864.375,554.1094 C863.9219,554.5938 863.9219,554.5938 863.7344,554.6875 C863.3125,554.9531 862.625,555.0781 861.8594,555.0781 C859.8125,555.0781 858.5156,553.9844 858.5156,552.2813 L858.5156,551.1875 C858.5156,549.4063 859.7656,548.0938 861.5,548.0938 C862.0781,548.0938 862.6875,548.25 863.1563,548.5 C863.6406,548.7813 863.8125,549 863.9063,549.4063 C863.9688,549.8125 864,549.9375 864.1406,550.0625 C864.2813,550.2031 864.5156,550.3125 864.7344,550.3125 C865,550.3125 865.2656,550.1719 865.4375,549.9531 C865.5469,549.7969 865.5781,549.6094 865.5781,549.1875 L865.5781,547.7656 C865.5781,547.3281 865.5625,547.2031 865.4688,547.0469 C865.3125,546.7813 865.0313,546.6406 864.7344,546.6406 C864.4375,546.6406 864.2344,546.7344 864.0156,547.0469 L863.8438,546.9688 Z " fill="#000000"/><text fill="#000000" font-family="sans-serif" font-size="14" lengthAdjust="spacing" textLength="147" x="875.5" y="556.1436">UserMessagesHelper</text><line style="stroke:#181818;stroke-width:0.5;" x1="847.5" x2="1024.5" y1="567.2969" y2="567.2969"/><line style="stroke:#181818;stroke-width:0.5;" x1="847.5" x2="1024.5" y1="575.2969" y2="575.2969"/></g><!--class AbstractView--><g id="elem_AbstractView"><rect codeLine="52" fill="#F1F1F1" height="48" id="AbstractView" rx="3.5" ry="3.5" style="stroke:#181818;stroke-width:0.5;" width="125" x="79.5" y="280.2969"/><ellipse cx="94.5" cy="296.2969" fill="#A9DCDF" rx="11" ry="11" style="stroke:#181818;stroke-width:1.0;"/><path d="M96.5781,298.1094 L96.9688,299.0938 L96.5781,299.0938 C96.125,299.0938 96.0156,299.1094 95.8594,299.2188 C95.6094,299.375 95.4531,299.6563 95.4531,299.9531 C95.4531,300.2188 95.5938,300.4688 95.8125,300.625 C95.9531,300.75 96.1563,300.7969 96.5781,300.7969 L98.9375,300.7969 C99.2969,300.7969 99.5156,300.7656 99.6563,300.6719 C99.9063,300.5313 100.0625,300.2344 100.0625,299.9531 C100.0625,299.6719 99.9219,299.4219 99.7031,299.2656 C99.5313,299.125 99.375,299.0938 98.9063,299.0938 L95.5156,290.8906 L91.8438,290.8906 C91.3906,290.8906 91.2656,290.9063 91.1094,291 C90.8594,291.1719 90.7031,291.4531 90.7031,291.7344 C90.7031,292.0156 90.8438,292.2656 91.0625,292.4375 C91.2344,292.5469 91.4063,292.5781 91.8438,292.5781 L92.9219,292.5781 L90.2813,299.0938 C89.8594,299.0938 89.7031,299.1094 89.5469,299.2188 C89.2969,299.375 89.1406,299.6563 89.1406,299.9531 C89.1406,300.5156 89.5156,300.7969 90.2656,300.7969 L92.5313,300.7969 C92.8906,300.7969 93.1094,300.7656 93.2344,300.6719 C93.5,300.5313 93.6406,300.2344 93.6406,299.9531 C93.6406,299.6719 93.5156,299.4219 93.2969,299.25 C93.125,299.125 92.9844,299.0938 92.5313,299.0938 L92.1406,299.0938 L92.5313,298.1094 L96.5781,298.1094 Z M95.875,296.4063 L93.2031,296.4063 L94.5469,293.1406 L95.875,296.4063 Z " fill="#000000"/><text fill="#000000" font-family="sans-serif" font-size="14" font-style="italic" lengthAdjust="spacing" textLength="93" x="108.5" y="301.1436">AbstractView</text><line style="stroke:#181818;stroke-width:0.5;" x1="80.5" x2="203.5" y1="312.2969" y2="312.2969"/><line style="stroke:#181818;stroke-width:0.5;" x1="80.5" x2="203.5" y1="320.2969" y2="320.2969"/></g><!--class UserProfileView--><g id="elem_UserProfileView"><rect codeLine="54" fill="#F1F1F1" height="48" id="UserProfileView" rx="3.5" ry="3.5" style="stroke:#181818;stroke-width:0.5;" width="144" x="70" y="164.2969"/><ellipse cx="85" cy="180.2969" fill="#ADD1B2" rx="11" ry="11" style="stroke:#181818;stroke-width:1.0;"/><path d="M87.3438,175.9688 C86.4063,175.5313 85.8125,175.3906 84.9375,175.3906 C82.3125,175.3906 80.3125,177.4688 80.3125,180.1875 L80.3125,181.3125 C80.3125,183.8906 82.4219,185.7813 85.3125,185.7813 C86.5313,185.7813 87.6875,185.4844 88.4375,184.9375 C89.0156,184.5313 89.3438,184.0781 89.3438,183.6875 C89.3438,183.2344 88.9531,182.8438 88.4844,182.8438 C88.2656,182.8438 88.0625,182.9219 87.875,183.1094 C87.4219,183.5938 87.4219,183.5938 87.2344,183.6875 C86.8125,183.9531 86.125,184.0781 85.3594,184.0781 C83.3125,184.0781 82.0156,182.9844 82.0156,181.2813 L82.0156,180.1875 C82.0156,178.4063 83.2656,177.0938 85,177.0938 C85.5781,177.0938 86.1875,177.25 86.6563,177.5 C87.1406,177.7813 87.3125,178 87.4063,178.4063 C87.4688,178.8125 87.5,178.9375 87.6406,179.0625 C87.7813,179.2031 88.0156,179.3125 88.2344,179.3125 C88.5,179.3125 88.7656,179.1719 88.9375,178.9531 C89.0469,178.7969 89.0781,178.6094 89.0781,178.1875 L89.0781,176.7656 C89.0781,176.3281 89.0625,176.2031 88.9688,176.0469 C88.8125,175.7813 88.5313,175.6406 88.2344,175.6406 C87.9375,175.6406 87.7344,175.7344 87.5156,176.0469 L87.3438,175.9688 Z " fill="#000000"/><text fill="#000000" font-family="sans-serif" font-size="14" lengthAdjust="spacing" textLength="112" x="99" y="185.1436">UserProfileView</text><line style="stroke:#181818;stroke-width:0.5;" x1="71" x2="213" y1="196.2969" y2="196.2969"/><line style="stroke:#181818;stroke-width:0.5;" x1="71" x2="213" y1="204.2969" y2="204.2969"/></g><!--reverse link UserDo to TavernRaidAbstractDo--><g id="link_UserDo_TavernRaidAbstractDo"><path codeLine="17" d="M1464.04,231.9139 C1460.3,245.2309 1456.25,259.6679 1452.77,272.0519 " fill="none" id="UserDo-backto-TavernRaidAbstractDo" style="stroke:#454645;stroke-width:1.0;"/><polygon fill="none" points="1457.38,229.7309,1469.52,212.3669,1470.86,233.5139,1457.38,229.7309" style="stroke:#454645;stroke-width:1.0;"/></g><!--reverse link TavernDo to TavernRaidAbstractDo--><g id="link_TavernDo_TavernRaidAbstractDo"><path codeLine="19" d="M1381.37,228.1429 C1393.3,242.4619 1406.66,258.4889 1417.96,272.0519 " fill="none" id="TavernDo-backto-TavernRaidAbstractDo" style="stroke:#454645;stroke-width:1.0;"/><polygon fill="none" points="1375.65,232.2119,1368.22,212.3669,1386.41,223.2499,1375.65,232.2119" style="stroke:#454645;stroke-width:1.0;"/></g><!--reverse link UserProfileView to AbstractView--><g id="link_UserProfileView_AbstractView"><path codeLine="53" d="M142,232.6209 C142,248.8239 142,266.5939 142,280.2619 " fill="none" id="UserProfileView-backto-AbstractView" style="stroke:#454645;stroke-width:1.0;"/><polygon fill="none" points="135,232.3669,142,212.3669,149,232.3669,135,232.3669" style="stroke:#454645;stroke-width:1.0;"/></g><!--SRC=[nLF1Ji904BtlLuo92Mf2-04zM8hHf8WfY4SohIDkRBkmkyKGvD_TfMtAKXh5YqtQmvktx-sRpfpfTqe9LZoIc6d6DDS9GJz1fS3dE9UOCjRhmDKf3mCuxK2dnnOOV-3SM8yU9-4e20OXR9WH-eltwUu0bVzmv0y2OsrLAimNgaG0ubrhffm-VG6RhODES4Ko2v6_taPAIuorvPGKWDai5fd1yrXVdAFMaaUv9WKtaEL9SbdoAibdHT8Sl_xgTeyAEyu5kOGAzg_FLdHMkxlfiH6_Bz9KPARGl0IswdWDcU5QBHCVDKQeo7F5nXJdakkrr_JmMYtkJ3eXEHqQ-QAeh5qKZyAUWnvnkQTaGVBGe-vpICkSb0v9BSp_feBUFYk1cFz46PjPoLfOjYD3KihSJBaC-xNlFspHz67mSh14TcNgdc4vYr0DfItNqMoe9odUU4AxmcwIzwcD5kopdVoCRRy1]--></g></svg>