<?xml version="1.0" encoding="us-ascii" standalone="no"?><svg xmlns="http://www.w3.org/2000/svg" xmlns:xlink="http://www.w3.org/1999/xlink" contentStyleType="text/css" height="422px" preserveAspectRatio="none" style="width:2616px;height:422px;background:#FFFFFF;" version="1.1" viewBox="0 0 2616 422" width="2616px" zoomAndPan="magnify"><defs/><g><text fill="#000000" font-family="sans-serif" font-size="14" font-weight="bold" lengthAdjust="spacing" textLength="116" x="1243" y="22.9951">Class Diagram</text><!--cluster CONTROLLER--><g id="cluster_CONTROLLER"><path d="M9.5,43.2969 L113.5,43.2969 A5.25,5.25 0 0 1 117,46.7969 L124,65.5938 L2605.5,65.5938 A3.5,3.5 0 0 1 2609,69.0938 L2609,411.7969 A3.5,3.5 0 0 1 2605.5,415.2969 L9.5,415.2969 A3.5,3.5 0 0 1 6,411.7969 L6,46.7969 A3.5,3.5 0 0 1 9.5,43.2969 " fill="none" style="stroke:#696969;stroke-width:1.0;"/><line style="stroke:#696969;stroke-width:1.0;" x1="6" x2="124" y1="65.5938" y2="65.5938"/><text fill="#000000" font-family="sans-serif" font-size="14" font-weight="bold" lengthAdjust="spacing" textLength="105" x="10" y="58.292">CONTROLLER</text></g><!--cluster VIEW--><g id="cluster_VIEW"><path d="M33.5,86.2969 L72.5,86.2969 A5.25,5.25 0 0 1 76,89.7969 L83,108.5938 L2581.5,108.5938 A3.5,3.5 0 0 1 2585,112.0938 L2585,387.7969 A3.5,3.5 0 0 1 2581.5,391.2969 L33.5,391.2969 A3.5,3.5 0 0 1 30,387.7969 L30,89.7969 A3.5,3.5 0 0 1 33.5,86.2969 " fill="none" style="stroke:#696969;stroke-width:1.0;"/><line style="stroke:#696969;stroke-width:1.0;" x1="30" x2="83" y1="108.5938" y2="108.5938"/><text fill="#000000" font-family="sans-serif" font-size="14" font-weight="bold" lengthAdjust="spacing" textLength="40" x="34" y="101.292">VIEW</text></g><!--class AbstractView--><g id="elem_AbstractView"><rect codeLine="12" fill="#F1F1F1" height="113.1875" id="AbstractView" rx="3.5" ry="3.5" style="stroke:#181818;stroke-width:0.5;" width="258" x="1276" y="121.2969"/><ellipse cx="1352.25" cy="137.2969" fill="#ADD1B2" rx="11" ry="11" style="stroke:#181818;stroke-width:1.0;"/><path d="M1354.5938,132.9688 C1353.6563,132.5313 1353.0625,132.3906 1352.1875,132.3906 C1349.5625,132.3906 1347.5625,134.4688 1347.5625,137.1875 L1347.5625,138.3125 C1347.5625,140.8906 1349.6719,142.7813 1352.5625,142.7813 C1353.7813,142.7813 1354.9375,142.4844 1355.6875,141.9375 C1356.2656,141.5313 1356.5938,141.0781 1356.5938,140.6875 C1356.5938,140.2344 1356.2031,139.8438 1355.7344,139.8438 C1355.5156,139.8438 1355.3125,139.9219 1355.125,140.1094 C1354.6719,140.5938 1354.6719,140.5938 1354.4844,140.6875 C1354.0625,140.9531 1353.375,141.0781 1352.6094,141.0781 C1350.5625,141.0781 1349.2656,139.9844 1349.2656,138.2813 L1349.2656,137.1875 C1349.2656,135.4063 1350.5156,134.0938 1352.25,134.0938 C1352.8281,134.0938 1353.4375,134.25 1353.9063,134.5 C1354.3906,134.7813 1354.5625,135 1354.6563,135.4063 C1354.7188,135.8125 1354.75,135.9375 1354.8906,136.0625 C1355.0313,136.2031 1355.2656,136.3125 1355.4844,136.3125 C1355.75,136.3125 1356.0156,136.1719 1356.1875,135.9531 C1356.2969,135.7969 1356.3281,135.6094 1356.3281,135.1875 L1356.3281,133.7656 C1356.3281,133.3281 1356.3125,133.2031 1356.2188,133.0469 C1356.0625,132.7813 1355.7813,132.6406 1355.4844,132.6406 C1355.1875,132.6406 1354.9844,132.7344 1354.7656,133.0469 L1354.5938,132.9688 Z " fill="#000000"/><text fill="#000000" font-family="sans-serif" font-size="14" lengthAdjust="spacing" textLength="97" x="1372.75" y="142.1436">AbstractView</text><line style="stroke:#181818;stroke-width:0.5;" x1="1277" x2="1533" y1="153.2969" y2="153.2969"/><text fill="#000000" font-family="sans-serif" font-size="14" lengthAdjust="spacing" textLength="79" x="1282" y="170.292">public $do;</text><line style="stroke:#181818;stroke-width:0.5;" x1="1277" x2="1533" y1="177.5938" y2="177.5938"/><text fill="#000000" font-family="sans-serif" font-size="14" lengthAdjust="spacing" textLength="246" x="1282" y="194.5889">function __construct(ViewDo $do);</text><text fill="#000000" font-family="sans-serif" font-size="14" lengthAdjust="spacing" textLength="236" x="1282" y="210.8857">public function getWebHeader();</text><text fill="#000000" font-family="sans-serif" font-size="14" lengthAdjust="spacing" textLength="233" x="1282" y="227.1826">public function getWebFooter();</text></g><!--class AchievementCreateView--><g id="elem_AchievementCreateView"><rect codeLine="19" fill="#F1F1F1" height="80.5938" id="AchievementCreateView" rx="3.5" ry="3.5" style="stroke:#181818;stroke-width:0.5;" width="469" x="46.5" y="294.2969"/><ellipse cx="187.25" cy="310.2969" fill="#ADD1B2" rx="11" ry="11" style="stroke:#181818;stroke-width:1.0;"/><path d="M189.5938,305.9688 C188.6563,305.5313 188.0625,305.3906 187.1875,305.3906 C184.5625,305.3906 182.5625,307.4688 182.5625,310.1875 L182.5625,311.3125 C182.5625,313.8906 184.6719,315.7813 187.5625,315.7813 C188.7813,315.7813 189.9375,315.4844 190.6875,314.9375 C191.2656,314.5313 191.5938,314.0781 191.5938,313.6875 C191.5938,313.2344 191.2031,312.8438 190.7344,312.8438 C190.5156,312.8438 190.3125,312.9219 190.125,313.1094 C189.6719,313.5938 189.6719,313.5938 189.4844,313.6875 C189.0625,313.9531 188.375,314.0781 187.6094,314.0781 C185.5625,314.0781 184.2656,312.9844 184.2656,311.2813 L184.2656,310.1875 C184.2656,308.4063 185.5156,307.0938 187.25,307.0938 C187.8281,307.0938 188.4375,307.25 188.9063,307.5 C189.3906,307.7813 189.5625,308 189.6563,308.4063 C189.7188,308.8125 189.75,308.9375 189.8906,309.0625 C190.0313,309.2031 190.2656,309.3125 190.4844,309.3125 C190.75,309.3125 191.0156,309.1719 191.1875,308.9531 C191.2969,308.7969 191.3281,308.6094 191.3281,308.1875 L191.3281,306.7656 C191.3281,306.3281 191.3125,306.2031 191.2188,306.0469 C191.0625,305.7813 190.7813,305.6406 190.4844,305.6406 C190.1875,305.6406 189.9844,305.7344 189.7656,306.0469 L189.5938,305.9688 Z " fill="#000000"/><text fill="#000000" font-family="sans-serif" font-size="14" lengthAdjust="spacing" textLength="179" x="207.75" y="315.1436">AchievementCreateView</text><line style="stroke:#181818;stroke-width:0.5;" x1="47.5" x2="514.5" y1="326.2969" y2="326.2969"/><line style="stroke:#181818;stroke-width:0.5;" x1="47.5" x2="514.5" y1="334.2969" y2="334.2969"/><text fill="#000000" font-family="sans-serif" font-size="14" lengthAdjust="spacing" textLength="225" x="52.5" y="351.292">public function displayMobile();</text><text fill="#000000" font-family="sans-serif" font-size="14" lengthAdjust="spacing" textLength="457" x="52.5" y="367.5889">public function displayWeb(AchievementDo $achievement_do);</text></g><!--class DocumentationIndexView--><g id="elem_DocumentationIndexView"><rect codeLine="23" fill="#F1F1F1" height="80.5938" id="DocumentationIndexView" rx="3.5" ry="3.5" style="stroke:#181818;stroke-width:0.5;" width="340" x="551" y="294.2969"/><ellipse cx="624.25" cy="310.2969" fill="#ADD1B2" rx="11" ry="11" style="stroke:#181818;stroke-width:1.0;"/><path d="M626.5938,305.9688 C625.6563,305.5313 625.0625,305.3906 624.1875,305.3906 C621.5625,305.3906 619.5625,307.4688 619.5625,310.1875 L619.5625,311.3125 C619.5625,313.8906 621.6719,315.7813 624.5625,315.7813 C625.7813,315.7813 626.9375,315.4844 627.6875,314.9375 C628.2656,314.5313 628.5938,314.0781 628.5938,313.6875 C628.5938,313.2344 628.2031,312.8438 627.7344,312.8438 C627.5156,312.8438 627.3125,312.9219 627.125,313.1094 C626.6719,313.5938 626.6719,313.5938 626.4844,313.6875 C626.0625,313.9531 625.375,314.0781 624.6094,314.0781 C622.5625,314.0781 621.2656,312.9844 621.2656,311.2813 L621.2656,310.1875 C621.2656,308.4063 622.5156,307.0938 624.25,307.0938 C624.8281,307.0938 625.4375,307.25 625.9063,307.5 C626.3906,307.7813 626.5625,308 626.6563,308.4063 C626.7188,308.8125 626.75,308.9375 626.8906,309.0625 C627.0313,309.2031 627.2656,309.3125 627.4844,309.3125 C627.75,309.3125 628.0156,309.1719 628.1875,308.9531 C628.2969,308.7969 628.3281,308.6094 628.3281,308.1875 L628.3281,306.7656 C628.3281,306.3281 628.3125,306.2031 628.2188,306.0469 C628.0625,305.7813 627.7813,305.6406 627.4844,305.6406 C627.1875,305.6406 626.9844,305.7344 626.7656,306.0469 L626.5938,305.9688 Z " fill="#000000"/><text fill="#000000" font-family="sans-serif" font-size="14" lengthAdjust="spacing" textLength="185" x="644.75" y="315.1436">DocumentationIndexView</text><line style="stroke:#181818;stroke-width:0.5;" x1="552" x2="890" y1="326.2969" y2="326.2969"/><line style="stroke:#181818;stroke-width:0.5;" x1="552" x2="890" y1="334.2969" y2="334.2969"/><text fill="#000000" font-family="sans-serif" font-size="14" lengthAdjust="spacing" textLength="225" x="557" y="351.292">public function displayMobile();</text><text fill="#000000" font-family="sans-serif" font-size="14" lengthAdjust="spacing" textLength="328" x="557" y="367.5889">public function displayWeb(UserDo $user_do);</text></g><!--class TavernRegistrationView--><g id="elem_TavernRegistrationView"><rect codeLine="27" fill="#F1F1F1" height="80.5938" id="TavernRegistrationView" rx="3.5" ry="3.5" style="stroke:#181818;stroke-width:0.5;" width="501" x="926.5" y="294.2969"/><ellipse cx="1086.75" cy="310.2969" fill="#ADD1B2" rx="11" ry="11" style="stroke:#181818;stroke-width:1.0;"/><path d="M1089.0938,305.9688 C1088.1563,305.5313 1087.5625,305.3906 1086.6875,305.3906 C1084.0625,305.3906 1082.0625,307.4688 1082.0625,310.1875 L1082.0625,311.3125 C1082.0625,313.8906 1084.1719,315.7813 1087.0625,315.7813 C1088.2813,315.7813 1089.4375,315.4844 1090.1875,314.9375 C1090.7656,314.5313 1091.0938,314.0781 1091.0938,313.6875 C1091.0938,313.2344 1090.7031,312.8438 1090.2344,312.8438 C1090.0156,312.8438 1089.8125,312.9219 1089.625,313.1094 C1089.1719,313.5938 1089.1719,313.5938 1088.9844,313.6875 C1088.5625,313.9531 1087.875,314.0781 1087.1094,314.0781 C1085.0625,314.0781 1083.7656,312.9844 1083.7656,311.2813 L1083.7656,310.1875 C1083.7656,308.4063 1085.0156,307.0938 1086.75,307.0938 C1087.3281,307.0938 1087.9375,307.25 1088.4063,307.5 C1088.8906,307.7813 1089.0625,308 1089.1563,308.4063 C1089.2188,308.8125 1089.25,308.9375 1089.3906,309.0625 C1089.5313,309.2031 1089.7656,309.3125 1089.9844,309.3125 C1090.25,309.3125 1090.5156,309.1719 1090.6875,308.9531 C1090.7969,308.7969 1090.8281,308.6094 1090.8281,308.1875 L1090.8281,306.7656 C1090.8281,306.3281 1090.8125,306.2031 1090.7188,306.0469 C1090.5625,305.7813 1090.2813,305.6406 1089.9844,305.6406 C1089.6875,305.6406 1089.4844,305.7344 1089.2656,306.0469 L1089.0938,305.9688 Z " fill="#000000"/><text fill="#000000" font-family="sans-serif" font-size="14" lengthAdjust="spacing" textLength="172" x="1107.25" y="315.1436">TavernRegistrationView</text><line style="stroke:#181818;stroke-width:0.5;" x1="927.5" x2="1426.5" y1="326.2969" y2="326.2969"/><line style="stroke:#181818;stroke-width:0.5;" x1="927.5" x2="1426.5" y1="334.2969" y2="334.2969"/><text fill="#000000" font-family="sans-serif" font-size="14" lengthAdjust="spacing" textLength="225" x="932.5" y="351.292">public function displayMobile();</text><text fill="#000000" font-family="sans-serif" font-size="14" lengthAdjust="spacing" textLength="489" x="932.5" y="367.5889">public function displayWeb(TavernDo $tavern_do, UserBo $user_bo);</text></g><!--class UserLoginView--><g id="elem_UserLoginView"><rect codeLine="31" fill="#F1F1F1" height="80.5938" id="UserLoginView" rx="3.5" ry="3.5" style="stroke:#181818;stroke-width:0.5;" width="340" x="1463" y="294.2969"/><ellipse cx="1576.75" cy="310.2969" fill="#ADD1B2" rx="11" ry="11" style="stroke:#181818;stroke-width:1.0;"/><path d="M1579.0938,305.9688 C1578.1563,305.5313 1577.5625,305.3906 1576.6875,305.3906 C1574.0625,305.3906 1572.0625,307.4688 1572.0625,310.1875 L1572.0625,311.3125 C1572.0625,313.8906 1574.1719,315.7813 1577.0625,315.7813 C1578.2813,315.7813 1579.4375,315.4844 1580.1875,314.9375 C1580.7656,314.5313 1581.0938,314.0781 1581.0938,313.6875 C1581.0938,313.2344 1580.7031,312.8438 1580.2344,312.8438 C1580.0156,312.8438 1579.8125,312.9219 1579.625,313.1094 C1579.1719,313.5938 1579.1719,313.5938 1578.9844,313.6875 C1578.5625,313.9531 1577.875,314.0781 1577.1094,314.0781 C1575.0625,314.0781 1573.7656,312.9844 1573.7656,311.2813 L1573.7656,310.1875 C1573.7656,308.4063 1575.0156,307.0938 1576.75,307.0938 C1577.3281,307.0938 1577.9375,307.25 1578.4063,307.5 C1578.8906,307.7813 1579.0625,308 1579.1563,308.4063 C1579.2188,308.8125 1579.25,308.9375 1579.3906,309.0625 C1579.5313,309.2031 1579.7656,309.3125 1579.9844,309.3125 C1580.25,309.3125 1580.5156,309.1719 1580.6875,308.9531 C1580.7969,308.7969 1580.8281,308.6094 1580.8281,308.1875 L1580.8281,306.7656 C1580.8281,306.3281 1580.8125,306.2031 1580.7188,306.0469 C1580.5625,305.7813 1580.2813,305.6406 1579.9844,305.6406 C1579.6875,305.6406 1579.4844,305.7344 1579.2656,306.0469 L1579.0938,305.9688 Z " fill="#000000"/><text fill="#000000" font-family="sans-serif" font-size="14" lengthAdjust="spacing" textLength="104" x="1597.25" y="315.1436">UserLoginView</text><line style="stroke:#181818;stroke-width:0.5;" x1="1464" x2="1802" y1="326.2969" y2="326.2969"/><line style="stroke:#181818;stroke-width:0.5;" x1="1464" x2="1802" y1="334.2969" y2="334.2969"/><text fill="#000000" font-family="sans-serif" font-size="14" lengthAdjust="spacing" textLength="225" x="1469" y="351.292">public function displayMobile();</text><text fill="#000000" font-family="sans-serif" font-size="14" lengthAdjust="spacing" textLength="328" x="1469" y="367.5889">public function displayWeb(UserDo $user_do);</text></g><!--class UserProfileView--><g id="elem_UserProfileView"><rect codeLine="35" fill="#F1F1F1" height="80.5938" id="UserProfileView" rx="3.5" ry="3.5" style="stroke:#181818;stroke-width:0.5;" width="355" x="1838.5" y="294.2969"/><ellipse cx="1955.75" cy="310.2969" fill="#ADD1B2" rx="11" ry="11" style="stroke:#181818;stroke-width:1.0;"/><path d="M1958.0938,305.9688 C1957.1563,305.5313 1956.5625,305.3906 1955.6875,305.3906 C1953.0625,305.3906 1951.0625,307.4688 1951.0625,310.1875 L1951.0625,311.3125 C1951.0625,313.8906 1953.1719,315.7813 1956.0625,315.7813 C1957.2813,315.7813 1958.4375,315.4844 1959.1875,314.9375 C1959.7656,314.5313 1960.0938,314.0781 1960.0938,313.6875 C1960.0938,313.2344 1959.7031,312.8438 1959.2344,312.8438 C1959.0156,312.8438 1958.8125,312.9219 1958.625,313.1094 C1958.1719,313.5938 1958.1719,313.5938 1957.9844,313.6875 C1957.5625,313.9531 1956.875,314.0781 1956.1094,314.0781 C1954.0625,314.0781 1952.7656,312.9844 1952.7656,311.2813 L1952.7656,310.1875 C1952.7656,308.4063 1954.0156,307.0938 1955.75,307.0938 C1956.3281,307.0938 1956.9375,307.25 1957.4063,307.5 C1957.8906,307.7813 1958.0625,308 1958.1563,308.4063 C1958.2188,308.8125 1958.25,308.9375 1958.3906,309.0625 C1958.5313,309.2031 1958.7656,309.3125 1958.9844,309.3125 C1959.25,309.3125 1959.5156,309.1719 1959.6875,308.9531 C1959.7969,308.7969 1959.8281,308.6094 1959.8281,308.1875 L1959.8281,306.7656 C1959.8281,306.3281 1959.8125,306.2031 1959.7188,306.0469 C1959.5625,305.7813 1959.2813,305.6406 1958.9844,305.6406 C1958.6875,305.6406 1958.4844,305.7344 1958.2656,306.0469 L1958.0938,305.9688 Z " fill="#000000"/><text fill="#000000" font-family="sans-serif" font-size="14" lengthAdjust="spacing" textLength="112" x="1976.25" y="315.1436">UserProfileView</text><line style="stroke:#181818;stroke-width:0.5;" x1="1839.5" x2="2192.5" y1="326.2969" y2="326.2969"/><line style="stroke:#181818;stroke-width:0.5;" x1="1839.5" x2="2192.5" y1="334.2969" y2="334.2969"/><text fill="#000000" font-family="sans-serif" font-size="14" lengthAdjust="spacing" textLength="343" x="1844.5" y="351.292">public function displayMobile(UserDo $user_do);</text><text fill="#000000" font-family="sans-serif" font-size="14" lengthAdjust="spacing" textLength="328" x="1844.5" y="367.5889">public function displayWeb(UserDo $user_do);</text></g><!--class UserRegistrationView--><g id="elem_UserRegistrationView"><rect codeLine="39" fill="#F1F1F1" height="80.5938" id="UserRegistrationView" rx="3.5" ry="3.5" style="stroke:#181818;stroke-width:0.5;" width="340" x="2229" y="294.2969"/><ellipse cx="2317.75" cy="310.2969" fill="#ADD1B2" rx="11" ry="11" style="stroke:#181818;stroke-width:1.0;"/><path d="M2320.0938,305.9688 C2319.1563,305.5313 2318.5625,305.3906 2317.6875,305.3906 C2315.0625,305.3906 2313.0625,307.4688 2313.0625,310.1875 L2313.0625,311.3125 C2313.0625,313.8906 2315.1719,315.7813 2318.0625,315.7813 C2319.2813,315.7813 2320.4375,315.4844 2321.1875,314.9375 C2321.7656,314.5313 2322.0938,314.0781 2322.0938,313.6875 C2322.0938,313.2344 2321.7031,312.8438 2321.2344,312.8438 C2321.0156,312.8438 2320.8125,312.9219 2320.625,313.1094 C2320.1719,313.5938 2320.1719,313.5938 2319.9844,313.6875 C2319.5625,313.9531 2318.875,314.0781 2318.1094,314.0781 C2316.0625,314.0781 2314.7656,312.9844 2314.7656,311.2813 L2314.7656,310.1875 C2314.7656,308.4063 2316.0156,307.0938 2317.75,307.0938 C2318.3281,307.0938 2318.9375,307.25 2319.4063,307.5 C2319.8906,307.7813 2320.0625,308 2320.1563,308.4063 C2320.2188,308.8125 2320.25,308.9375 2320.3906,309.0625 C2320.5313,309.2031 2320.7656,309.3125 2320.9844,309.3125 C2321.25,309.3125 2321.5156,309.1719 2321.6875,308.9531 C2321.7969,308.7969 2321.8281,308.6094 2321.8281,308.1875 L2321.8281,306.7656 C2321.8281,306.3281 2321.8125,306.2031 2321.7188,306.0469 C2321.5625,305.7813 2321.2813,305.6406 2320.9844,305.6406 C2320.6875,305.6406 2320.4844,305.7344 2320.2656,306.0469 L2320.0938,305.9688 Z " fill="#000000"/><text fill="#000000" font-family="sans-serif" font-size="14" lengthAdjust="spacing" textLength="154" x="2338.25" y="315.1436">UserRegistrationView</text><line style="stroke:#181818;stroke-width:0.5;" x1="2230" x2="2568" y1="326.2969" y2="326.2969"/><line style="stroke:#181818;stroke-width:0.5;" x1="2230" x2="2568" y1="334.2969" y2="334.2969"/><text fill="#000000" font-family="sans-serif" font-size="14" lengthAdjust="spacing" textLength="225" x="2235" y="351.292">public function displayMobile();</text><text fill="#000000" font-family="sans-serif" font-size="14" lengthAdjust="spacing" textLength="328" x="2235" y="367.5889">public function displayWeb(UserDo $user_do);</text></g><!--reverse link AbstractView to AchievementCreateView--><g id="link_AbstractView_AchievementCreateView"><path d="M1255.71,197.5309 C1082.12,219.5609 787.053,257.7699 534,294.2969 C527.95,295.1699 521.82,296.0639 515.636,296.9729 " fill="none" id="AbstractView-backto-AchievementCreateView" style="stroke:#454645;stroke-width:1.0;"/><polygon fill="none" points="1255.02,190.5619,1275.75,194.9919,1256.79,204.4509,1255.02,190.5619" style="stroke:#454645;stroke-width:1.0;"/></g><!--reverse link AbstractView to DocumentationIndexView--><g id="link_AbstractView_DocumentationIndexView"><path d="M1256.33,212.4869 C1148.82,236.8489 1003.36,269.8109 891.204,295.2269 " fill="none" id="AbstractView-backto-DocumentationIndexView" style="stroke:#454645;stroke-width:1.0;"/><polygon fill="none" points="1254.89,205.6359,1275.94,208.0419,1257.98,219.2889,1254.89,205.6359" style="stroke:#454645;stroke-width:1.0;"/></g><!--reverse link AbstractView to TavernRegistrationView--><g id="link_AbstractView_TavernRegistrationView"><path d="M1306.68,245.6399 C1282.31,262.2029 1256.98,279.4279 1235.23,294.2109 " fill="none" id="AbstractView-backto-TavernRegistrationView" style="stroke:#454645;stroke-width:1.0;"/><polygon fill="none" points="1302.86,239.7729,1323.33,234.3179,1310.73,251.3509,1302.86,239.7729" style="stroke:#454645;stroke-width:1.0;"/></g><!--reverse link AbstractView to UserLoginView--><g id="link_AbstractView_UserLoginView"><path d="M1503.32,245.6399 C1527.69,262.2029 1553.02,279.4279 1574.77,294.2109 " fill="none" id="AbstractView-backto-UserLoginView" style="stroke:#454645;stroke-width:1.0;"/><polygon fill="none" points="1499.27,251.3509,1486.67,234.3179,1507.14,239.7729,1499.27,251.3509" style="stroke:#454645;stroke-width:1.0;"/></g><!--reverse link AbstractView to UserProfileView--><g id="link_AbstractView_UserProfileView"><path d="M1553.6,216.4949 C1646.49,240.0599 1765.95,270.3629 1860.17,294.2659 " fill="none" id="AbstractView-backto-UserProfileView" style="stroke:#454645;stroke-width:1.0;"/><polygon fill="none" points="1551.87,223.2769,1534.2,211.5739,1555.31,209.7069,1551.87,223.2769" style="stroke:#454645;stroke-width:1.0;"/></g><!--reverse link AbstractView to UserRegistrationView--><g id="link_AbstractView_UserRegistrationView"><path d="M1554.41,197.2629 C1716.56,217.9899 1982.88,254.0319 2211,294.2969 C2216.91,295.3409 2222.92,296.4329 2228.99,297.5609 " fill="none" id="AbstractView-backto-UserRegistrationView" style="stroke:#454645;stroke-width:1.0;"/><polygon fill="none" points="1553.14,204.1589,1534.19,194.6889,1554.91,190.2709,1553.14,204.1589" style="stroke:#454645;stroke-width:1.0;"/></g><!--SRC=[pP7TJi8m5CVl-nJ7n8HfJ7W0hfHX99bY2C8bEUiEet6qf3j33E7TRISV8naQr11tqstzV_nEUy5JcX4iL6nHin2iE2DePvZd42fCBSw4Q3RW-fH709ncQ3J57EKhfgwwzpJezwAequULS44_wJwz7M3RF-nsHh22CaQMnt0RvsnHyb3HcsCgys5Un9cIS9cObjZycXHQiZ8QncDfjFCKaWDl2etNNRKEhJjvIZoY-84m8HjyexetXlUgTPLIJXKjt5rgRbj2fXANbamw-Ng6NKMYydc6xuycLXaT9zd874rGAVL3ulvpl1ku2XaQMVXTz45TdT3o79GlELcFLxYrdck02xAwJwdo0Dv_3gxFLa_6vPjZkm4FUxU5ZUjWlI8ogTB_u-oyujcQYKlyBL1zsH_mdVjcZrEjFm00]--></g></svg>